  0
SECTION
  2
HEADER
  9
$ACADVER
  1
AC1009
  9
$EXTMIN
 10
0.0
 20
0.0
 30
0.0
  9
$EXTMAX
 10
1000.0
 20
1000.0
 30
0.0
  9
$FILLMODE
 70
 0
  9
$SPLFRAME
 70
 1
  0
ENDSEC
  0
SECTION
  2
TABLES
  0
TABLE
  2
LAYER
 70
1
  0
LAYER
  2
0
 70
     0
 62
     7
  6
CONTINUOUS
  0
ENDTAB
  0
ENDSEC
  0
SECTION
  2
ENTITIES
  0
LINE
  8
0
 62
     0
 10
190.876
 20
133.96
 30
0.0
 11
190.876
 21
128.96
 31
0.0
  0
LINE
  8
0
 62
     0
 10
190.876
 20
128.96
 30
0.0
 11
5.09598
 21
128.96
 31
0.0
  0
LINE
  8
0
 62
     0
 10
5.09598
 20
128.96
 30
0.0
 11
5.09598
 21
5.13457
 31
0.0
  0
LINE
  8
0
 62
     0
 10
5.09598
 20
5.13457
 30
0.0
 11
314.658
 21
5.13457
 31
0.0
  0
LINE
  8
0
 62
     0
 10
314.658
 20
5.13457
 30
0.0
 11
314.658
 21
128.96
 31
0.0
  0
LINE
  8
0
 62
     0
 10
314.658
 20
128.96
 30
0.0
 11
200.877
 21
128.96
 31
0.0
  0
LINE
  8
0
 62
     0
 10
200.877
 20
128.96
 30
0.0
 11
200.877
 21
133.96
 31
0.0
  0
LINE
  8
0
 62
     0
 10
200.877
 20
133.96
 30
0.0
 11
316.658
 21
133.96
 31
0.0
  0
LINE
  8
0
 62
     0
 10
316.658
 20
133.96
 30
0.0
 11
316.894
 21
133.951
 31
0.0
  0
LINE
  8
0
 62
     0
 10
316.894
 20
133.951
 30
0.0
 11
317.128
 21
133.925
 31
0.0
  0
LINE
  8
0
 62
     0
 10
317.128
 20
133.925
 30
0.0
 11
317.358
 21
133.878
 31
0.0
  0
LINE
  8
0
 62
     0
 10
317.358
 20
133.878
 30
0.0
 11
317.585
 21
133.814
 31
0.0
  0
LINE
  8
0
 62
     0
 10
317.585
 20
133.814
 30
0.0
 11
317.806
 21
133.732
 31
0.0
  0
LINE
  8
0
 62
     0
 10
317.806
 20
133.732
 30
0.0
 11
318.021
 21
133.634
 31
0.0
  0
LINE
  8
0
 62
     0
 10
318.021
 20
133.634
 30
0.0
 11
318.225
 21
133.518
 31
0.0
  0
LINE
  8
0
 62
     0
 10
318.225
 20
133.518
 30
0.0
 11
318.422
 21
133.388
 31
0.0
  0
LINE
  8
0
 62
     0
 10
318.422
 20
133.388
 30
0.0
 11
318.607
 21
133.242
 31
0.0
  0
LINE
  8
0
 62
     0
 10
318.607
 20
133.242
 30
0.0
 11
318.779
 21
133.083
 31
0.0
  0
LINE
  8
0
 62
     0
 10
318.779
 20
133.083
 30
0.0
 11
318.94
 21
132.909
 31
0.0
  0
LINE
  8
0
 62
     0
 10
318.94
 20
132.909
 30
0.0
 11
319.086
 21
132.725
 31
0.0
  0
LINE
  8
0
 62
     0
 10
319.086
 20
132.725
 30
0.0
 11
319.217
 21
132.529
 31
0.0
  0
LINE
  8
0
 62
     0
 10
319.217
 20
132.529
 30
0.0
 11
319.331
 21
132.322
 31
0.0
  0
LINE
  8
0
 62
     0
 10
319.331
 20
132.322
 30
0.0
 11
319.431
 21
132.108
 31
0.0
  0
LINE
  8
0
 62
     0
 10
319.431
 20
132.108
 30
0.0
 11
319.512
 21
131.888
 31
0.0
  0
LINE
  8
0
 62
     0
 10
319.512
 20
131.888
 30
0.0
 11
319.575
 21
131.661
 31
0.0
  0
LINE
  8
0
 62
     0
 10
319.575
 20
131.661
 30
0.0
 11
319.621
 21
131.431
 31
0.0
  0
LINE
  8
0
 62
     0
 10
319.621
 20
131.431
 30
0.0
 11
319.65
 21
131.196
 31
0.0
  0
LINE
  8
0
 62
     0
 10
319.65
 20
131.196
 30
0.0
 11
319.658
 21
130.961
 31
0.0
  0
LINE
  8
0
 62
     0
 10
319.658
 20
130.961
 30
0.0
 11
319.658
 21
3.13366
 31
0.0
  0
LINE
  8
0
 62
     0
 10
319.658
 20
3.13366
 30
0.0
 11
319.65
 21
2.89939
 31
0.0
  0
LINE
  8
0
 62
     0
 10
319.65
 20
2.89939
 30
0.0
 11
319.621
 21
2.66513
 31
0.0
  0
LINE
  8
0
 62
     0
 10
319.621
 20
2.66513
 30
0.0
 11
319.575
 21
2.43362
 31
0.0
  0
LINE
  8
0
 62
     0
 10
319.575
 20
2.43362
 30
0.0
 11
319.512
 21
2.20762
 31
0.0
  0
LINE
  8
0
 62
     0
 10
319.512
 20
2.20762
 30
0.0
 11
319.431
 21
1.98575
 31
0.0
  0
LINE
  8
0
 62
     0
 10
319.431
 20
1.98575
 30
0.0
 11
319.331
 21
1.77353
 31
0.0
  0
LINE
  8
0
 62
     0
 10
319.331
 20
1.77353
 30
0.0
 11
319.217
 21
1.56683
 31
0.0
  0
LINE
  8
0
 62
     0
 10
319.217
 20
1.56683
 30
0.0
 11
319.086
 21
1.37115
 31
0.0
  0
LINE
  8
0
 62
     0
 10
319.086
 20
1.37115
 30
0.0
 11
318.94
 21
1.18649
 31
0.0
  0
LINE
  8
0
 62
     0
 10
318.94
 20
1.18649
 30
0.0
 11
318.779
 21
1.01286
 31
0.0
  0
LINE
  8
0
 62
     0
 10
318.779
 20
1.01286
 30
0.0
 11
318.607
 21
0.853006
 31
0.0
  0
LINE
  8
0
 62
     0
 10
318.607
 20
0.853006
 30
0.0
 11
318.422
 21
0.706935
 31
0.0
  0
LINE
  8
0
 62
     0
 10
318.422
 20
0.706935
 30
0.0
 11
318.225
 21
0.577398
 31
0.0
  0
LINE
  8
0
 62
     0
 10
318.225
 20
0.577398
 30
0.0
 11
318.021
 21
0.461641
 31
0.0
  0
LINE
  8
0
 62
     0
 10
318.021
 20
0.461641
 30
0.0
 11
317.806
 21
0.362423
 31
0.0
  0
LINE
  8
0
 62
     0
 10
317.806
 20
0.362423
 30
0.0
 11
317.585
 21
0.28112
 31
0.0
  0
LINE
  8
0
 62
     0
 10
317.585
 20
0.28112
 30
0.0
 11
317.358
 21
0.21773
 31
0.0
  0
LINE
  8
0
 62
     0
 10
317.358
 20
0.21773
 30
0.0
 11
317.128
 21
0.170877
 31
0.0
  0
LINE
  8
0
 62
     0
 10
317.128
 20
0.170877
 30
0.0
 11
316.894
 21
0.144694
 31
0.0
  0
LINE
  8
0
 62
     0
 10
316.894
 20
0.144694
 30
0.0
 11
316.658
 21
0.13367
 31
0.0
  0
LINE
  8
0
 62
     0
 10
316.658
 20
0.13367
 30
0.0
 11
3.09507
 21
0.13367
 31
0.0
  0
LINE
  8
0
 62
     0
 10
3.09507
 20
0.13367
 30
0.0
 11
2.85943
 21
0.144694
 31
0.0
  0
LINE
  8
0
 62
     0
 10
2.85943
 20
0.144694
 30
0.0
 11
2.62516
 21
0.170877
 31
0.0
  0
LINE
  8
0
 62
     0
 10
2.62516
 20
0.170877
 30
0.0
 11
2.39503
 21
0.21773
 31
0.0
  0
LINE
  8
0
 62
     0
 10
2.39503
 20
0.21773
 30
0.0
 11
2.16765
 21
0.28112
 31
0.0
  0
LINE
  8
0
 62
     0
 10
2.16765
 20
0.28112
 30
0.0
 11
1.94717
 21
0.362423
 31
0.0
  0
LINE
  8
0
 62
     0
 10
1.94717
 20
0.362423
 30
0.0
 11
1.73357
 21
0.461641
 31
0.0
  0
LINE
  8
0
 62
     0
 10
1.73357
 20
0.461641
 30
0.0
 11
1.52687
 21
0.577398
 31
0.0
  0
LINE
  8
0
 62
     0
 10
1.52687
 20
0.577398
 30
0.0
 11
1.33119
 21
0.706935
 31
0.0
  0
LINE
  8
0
 62
     0
 10
1.33119
 20
0.706935
 30
0.0
 11
1.14653
 21
0.853006
 31
0.0
  0
LINE
  8
0
 62
     0
 10
1.14653
 20
0.853006
 30
0.0
 11
0.972894
 21
1.01286
 31
0.0
  0
LINE
  8
0
 62
     0
 10
0.972894
 20
1.01286
 30
0.0
 11
0.813043
 21
1.18649
 31
0.0
  0
LINE
  8
0
 62
     0
 10
0.813043
 20
1.18649
 30
0.0
 11
0.666972
 21
1.37115
 31
0.0
  0
LINE
  8
0
 62
     0
 10
0.666972
 20
1.37115
 30
0.0
 11
0.537436
 21
1.56683
 31
0.0
  0
LINE
  8
0
 62
     0
 10
0.537436
 20
1.56683
 30
0.0
 11
0.421679
 21
1.77353
 31
0.0
  0
LINE
  8
0
 62
     0
 10
0.421679
 20
1.77353
 30
0.0
 11
0.323839
 21
1.98575
 31
0.0
  0
LINE
  8
0
 62
     0
 10
0.323839
 20
1.98575
 30
0.0
 11
0.241157
 21
2.20762
 31
0.0
  0
LINE
  8
0
 62
     0
 10
0.241157
 20
2.20762
 30
0.0
 11
0.177767
 21
2.43362
 31
0.0
  0
LINE
  8
0
 62
     0
 10
0.177767
 20
2.43362
 30
0.0
 11
0.130914
 21
2.66513
 31
0.0
  0
LINE
  8
0
 62
     0
 10
0.130914
 20
2.66513
 30
0.0
 11
0.104731
 21
2.89939
 31
0.0
  0
LINE
  8
0
 62
     0
 10
0.104731
 20
2.89939
 30
0.0
 11
0.0950846
 21
3.13504
 31
0.0
  0
LINE
  8
0
 62
     0
 10
0.0950846
 20
3.13504
 30
0.0
 11
0.0950846
 21
130.961
 31
0.0
  0
LINE
  8
0
 62
     0
 10
0.0950846
 20
130.961
 30
0.0
 11
0.104731
 21
131.196
 31
0.0
  0
LINE
  8
0
 62
     0
 10
0.104731
 20
131.196
 30
0.0
 11
0.130914
 21
131.431
 31
0.0
  0
LINE
  8
0
 62
     0
 10
0.130914
 20
131.431
 30
0.0
 11
0.177767
 21
131.661
 31
0.0
  0
LINE
  8
0
 62
     0
 10
0.177767
 20
131.661
 30
0.0
 11
0.241157
 21
131.888
 31
0.0
  0
LINE
  8
0
 62
     0
 10
0.241157
 20
131.888
 30
0.0
 11
0.323839
 21
132.108
 31
0.0
  0
LINE
  8
0
 62
     0
 10
0.323839
 20
132.108
 30
0.0
 11
0.421679
 21
132.322
 31
0.0
  0
LINE
  8
0
 62
     0
 10
0.421679
 20
132.322
 30
0.0
 11
0.537436
 21
132.529
 31
0.0
  0
LINE
  8
0
 62
     0
 10
0.537436
 20
132.529
 30
0.0
 11
0.666972
 21
132.725
 31
0.0
  0
LINE
  8
0
 62
     0
 10
0.666972
 20
132.725
 30
0.0
 11
0.813043
 21
132.909
 31
0.0
  0
LINE
  8
0
 62
     0
 10
0.813043
 20
132.909
 30
0.0
 11
0.972894
 21
133.083
 31
0.0
  0
LINE
  8
0
 62
     0
 10
0.972894
 20
133.083
 30
0.0
 11
1.14653
 21
133.242
 31
0.0
  0
LINE
  8
0
 62
     0
 10
1.14653
 20
133.242
 30
0.0
 11
1.33119
 21
133.388
 31
0.0
  0
LINE
  8
0
 62
     0
 10
1.33119
 20
133.388
 30
0.0
 11
1.52687
 21
133.518
 31
0.0
  0
LINE
  8
0
 62
     0
 10
1.52687
 20
133.518
 30
0.0
 11
1.73357
 21
133.634
 31
0.0
  0
LINE
  8
0
 62
     0
 10
1.73357
 20
133.634
 30
0.0
 11
1.94717
 21
133.732
 31
0.0
  0
LINE
  8
0
 62
     0
 10
1.94717
 20
133.732
 30
0.0
 11
2.16765
 21
133.814
 31
0.0
  0
LINE
  8
0
 62
     0
 10
2.16765
 20
133.814
 30
0.0
 11
2.39503
 21
133.878
 31
0.0
  0
LINE
  8
0
 62
     0
 10
2.39503
 20
133.878
 30
0.0
 11
2.62516
 21
133.925
 31
0.0
  0
LINE
  8
0
 62
     0
 10
2.62516
 20
133.925
 30
0.0
 11
2.85943
 21
133.951
 31
0.0
  0
LINE
  8
0
 62
     0
 10
2.85943
 20
133.951
 30
0.0
 11
3.09507
 21
133.96
 31
0.0
  0
LINE
  8
0
 62
     0
 10
3.09507
 20
133.96
 30
0.0
 11
190.876
 21
133.96
 31
0.0
  0
LINE
  8
0
 62
     0
 10
2.10013
 20
4.15618
 30
0.0
 11
1.65503
 21
3.92878
 31
0.0
  0
LINE
  8
0
 62
     0
 10
1.65503
 20
3.92878
 30
0.0
 11
1.30087
 21
3.57463
 31
0.0
  0
LINE
  8
0
 62
     0
 10
1.30087
 20
3.57463
 30
0.0
 11
1.07349
 21
3.12952
 31
0.0
  0
LINE
  8
0
 62
     0
 10
1.07349
 20
3.12952
 30
0.0
 11
0.994943
 21
2.63343
 31
0.0
  0
LINE
  8
0
 62
     0
 10
0.994943
 20
2.63343
 30
0.0
 11
1.07349
 21
2.14009
 31
0.0
  0
LINE
  8
0
 62
     0
 10
1.07349
 20
2.14009
 30
0.0
 11
1.30087
 21
1.69361
 31
0.0
  0
LINE
  8
0
 62
     0
 10
1.30087
 20
1.69361
 30
0.0
 11
1.65503
 21
1.33945
 31
0.0
  0
LINE
  8
0
 62
     0
 10
1.65503
 20
1.33945
 30
0.0
 11
2.10013
 21
1.11345
 31
0.0
  0
LINE
  8
0
 62
     0
 10
2.10013
 20
1.11345
 30
0.0
 11
2.59485
 21
1.03353
 31
0.0
  0
LINE
  8
0
 62
     0
 10
2.59485
 20
1.03353
 30
0.0
 11
3.08956
 21
1.11345
 31
0.0
  0
LINE
  8
0
 62
     0
 10
3.08956
 20
1.11345
 30
0.0
 11
3.53603
 21
1.33945
 31
0.0
  0
LINE
  8
0
 62
     0
 10
3.53603
 20
1.33945
 30
0.0
 11
3.88881
 21
1.69361
 31
0.0
  0
LINE
  8
0
 62
     0
 10
3.88881
 20
1.69361
 30
0.0
 11
4.11621
 21
2.14009
 31
0.0
  0
LINE
  8
0
 62
     0
 10
4.11621
 20
2.14009
 30
0.0
 11
4.19612
 21
2.63343
 31
0.0
  0
LINE
  8
0
 62
     0
 10
4.19612
 20
2.63343
 30
0.0
 11
4.11621
 21
3.12952
 31
0.0
  0
LINE
  8
0
 62
     0
 10
4.11621
 20
3.12952
 30
0.0
 11
3.88881
 21
3.57463
 31
0.0
  0
LINE
  8
0
 62
     0
 10
3.88881
 20
3.57463
 30
0.0
 11
3.53603
 21
3.92878
 31
0.0
  0
LINE
  8
0
 62
     0
 10
3.53603
 20
3.92878
 30
0.0
 11
3.08956
 21
4.15618
 31
0.0
  0
LINE
  8
0
 62
     0
 10
3.08956
 20
4.15618
 30
0.0
 11
2.59485
 21
4.23471
 31
0.0
  0
LINE
  8
0
 62
     0
 10
2.59485
 20
4.23471
 30
0.0
 11
2.10013
 21
4.15618
 31
0.0
  0
LINE
  8
0
 62
     0
 10
159.383
 20
4.15618
 30
0.0
 11
158.936
 21
3.92878
 31
0.0
  0
LINE
  8
0
 62
     0
 10
158.936
 20
3.92878
 30
0.0
 11
158.582
 21
3.57463
 31
0.0
  0
LINE
  8
0
 62
     0
 10
158.582
 20
3.57463
 30
0.0
 11
158.356
 21
3.12952
 31
0.0
  0
LINE
  8
0
 62
     0
 10
158.356
 20
3.12952
 30
0.0
 11
158.276
 21
2.63343
 31
0.0
  0
LINE
  8
0
 62
     0
 10
158.276
 20
2.63343
 30
0.0
 11
158.356
 21
2.14009
 31
0.0
  0
LINE
  8
0
 62
     0
 10
158.356
 20
2.14009
 30
0.0
 11
158.582
 21
1.69361
 31
0.0
  0
LINE
  8
0
 62
     0
 10
158.582
 20
1.69361
 30
0.0
 11
158.936
 21
1.33945
 31
0.0
  0
LINE
  8
0
 62
     0
 10
158.936
 20
1.33945
 30
0.0
 11
159.383
 21
1.11345
 31
0.0
  0
LINE
  8
0
 62
     0
 10
159.383
 20
1.11345
 30
0.0
 11
159.876
 21
1.03353
 31
0.0
  0
LINE
  8
0
 62
     0
 10
159.876
 20
1.03353
 30
0.0
 11
160.372
 21
1.11345
 31
0.0
  0
LINE
  8
0
 62
     0
 10
160.372
 20
1.11345
 30
0.0
 11
160.817
 21
1.33945
 31
0.0
  0
LINE
  8
0
 62
     0
 10
160.817
 20
1.33945
 30
0.0
 11
161.171
 21
1.69361
 31
0.0
  0
LINE
  8
0
 62
     0
 10
161.171
 20
1.69361
 30
0.0
 11
161.399
 21
2.14009
 31
0.0
  0
LINE
  8
0
 62
     0
 10
161.399
 20
2.14009
 30
0.0
 11
161.477
 21
2.63343
 31
0.0
  0
LINE
  8
0
 62
     0
 10
161.477
 20
2.63343
 30
0.0
 11
161.399
 21
3.12952
 31
0.0
  0
LINE
  8
0
 62
     0
 10
161.399
 20
3.12952
 30
0.0
 11
161.171
 21
3.57463
 31
0.0
  0
LINE
  8
0
 62
     0
 10
161.171
 20
3.57463
 30
0.0
 11
160.817
 21
3.92878
 31
0.0
  0
LINE
  8
0
 62
     0
 10
160.817
 20
3.92878
 30
0.0
 11
160.372
 21
4.15618
 31
0.0
  0
LINE
  8
0
 62
     0
 10
160.372
 20
4.15618
 30
0.0
 11
159.876
 21
4.23471
 31
0.0
  0
LINE
  8
0
 62
     0
 10
159.876
 20
4.23471
 30
0.0
 11
159.383
 21
4.15618
 31
0.0
  0
LINE
  8
0
 62
     0
 10
316.665
 20
4.15618
 30
0.0
 11
316.218
 21
3.92878
 31
0.0
  0
LINE
  8
0
 62
     0
 10
316.218
 20
3.92878
 30
0.0
 11
315.864
 21
3.57463
 31
0.0
  0
LINE
  8
0
 62
     0
 10
315.864
 20
3.57463
 30
0.0
 11
315.637
 21
3.12952
 31
0.0
  0
LINE
  8
0
 62
     0
 10
315.637
 20
3.12952
 30
0.0
 11
315.558
 21
2.63343
 31
0.0
  0
LINE
  8
0
 62
     0
 10
315.558
 20
2.63343
 30
0.0
 11
315.637
 21
2.14009
 31
0.0
  0
LINE
  8
0
 62
     0
 10
315.637
 20
2.14009
 30
0.0
 11
315.864
 21
1.69361
 31
0.0
  0
LINE
  8
0
 62
     0
 10
315.864
 20
1.69361
 30
0.0
 11
316.218
 21
1.33945
 31
0.0
  0
LINE
  8
0
 62
     0
 10
316.218
 20
1.33945
 30
0.0
 11
316.665
 21
1.11345
 31
0.0
  0
LINE
  8
0
 62
     0
 10
316.665
 20
1.11345
 30
0.0
 11
317.158
 21
1.03353
 31
0.0
  0
LINE
  8
0
 62
     0
 10
317.158
 20
1.03353
 30
0.0
 11
317.653
 21
1.11345
 31
0.0
  0
LINE
  8
0
 62
     0
 10
317.653
 20
1.11345
 30
0.0
 11
318.098
 21
1.33945
 31
0.0
  0
LINE
  8
0
 62
     0
 10
318.098
 20
1.33945
 30
0.0
 11
318.452
 21
1.69361
 31
0.0
  0
LINE
  8
0
 62
     0
 10
318.452
 20
1.69361
 30
0.0
 11
318.681
 21
2.14009
 31
0.0
  0
LINE
  8
0
 62
     0
 10
318.681
 20
2.14009
 30
0.0
 11
318.758
 21
2.63343
 31
0.0
  0
LINE
  8
0
 62
     0
 10
318.758
 20
2.63343
 30
0.0
 11
318.681
 21
3.12952
 31
0.0
  0
LINE
  8
0
 62
     0
 10
318.681
 20
3.12952
 30
0.0
 11
318.452
 21
3.57463
 31
0.0
  0
LINE
  8
0
 62
     0
 10
318.452
 20
3.57463
 30
0.0
 11
318.098
 21
3.92878
 31
0.0
  0
LINE
  8
0
 62
     0
 10
318.098
 20
3.92878
 30
0.0
 11
317.653
 21
4.15618
 31
0.0
  0
LINE
  8
0
 62
     0
 10
317.653
 20
4.15618
 30
0.0
 11
317.158
 21
4.23471
 31
0.0
  0
LINE
  8
0
 62
     0
 10
317.158
 20
4.23471
 30
0.0
 11
316.665
 21
4.15618
 31
0.0
  0
LINE
  8
0
 62
     0
 10
2.10013
 20
132.982
 30
0.0
 11
1.65503
 21
132.755
 31
0.0
  0
LINE
  8
0
 62
     0
 10
1.65503
 20
132.755
 30
0.0
 11
1.30087
 21
132.401
 31
0.0
  0
LINE
  8
0
 62
     0
 10
1.30087
 20
132.401
 30
0.0
 11
1.07349
 21
131.955
 31
0.0
  0
LINE
  8
0
 62
     0
 10
1.07349
 20
131.955
 30
0.0
 11
0.994943
 21
131.461
 31
0.0
  0
LINE
  8
0
 62
     0
 10
0.994943
 20
131.461
 30
0.0
 11
1.07349
 21
130.966
 31
0.0
  0
LINE
  8
0
 62
     0
 10
1.07349
 20
130.966
 30
0.0
 11
1.30087
 21
130.52
 31
0.0
  0
LINE
  8
0
 62
     0
 10
1.30087
 20
130.52
 30
0.0
 11
1.65503
 21
130.167
 31
0.0
  0
LINE
  8
0
 62
     0
 10
1.65503
 20
130.167
 30
0.0
 11
2.10013
 21
129.939
 31
0.0
  0
LINE
  8
0
 62
     0
 10
2.10013
 20
129.939
 30
0.0
 11
2.59485
 21
129.859
 31
0.0
  0
LINE
  8
0
 62
     0
 10
2.59485
 20
129.859
 30
0.0
 11
3.08956
 21
129.939
 31
0.0
  0
LINE
  8
0
 62
     0
 10
3.08956
 20
129.939
 30
0.0
 11
3.53603
 21
130.167
 31
0.0
  0
LINE
  8
0
 62
     0
 10
3.53603
 20
130.167
 30
0.0
 11
3.88881
 21
130.52
 31
0.0
  0
LINE
  8
0
 62
     0
 10
3.88881
 20
130.52
 30
0.0
 11
4.11621
 21
130.966
 31
0.0
  0
LINE
  8
0
 62
     0
 10
4.11621
 20
130.966
 30
0.0
 11
4.19612
 21
131.461
 31
0.0
  0
LINE
  8
0
 62
     0
 10
4.19612
 20
131.461
 30
0.0
 11
4.11621
 21
131.955
 31
0.0
  0
LINE
  8
0
 62
     0
 10
4.11621
 20
131.955
 30
0.0
 11
3.88881
 21
132.401
 31
0.0
  0
LINE
  8
0
 62
     0
 10
3.88881
 20
132.401
 30
0.0
 11
3.53603
 21
132.755
 31
0.0
  0
LINE
  8
0
 62
     0
 10
3.53603
 20
132.755
 30
0.0
 11
3.08956
 21
132.982
 31
0.0
  0
LINE
  8
0
 62
     0
 10
3.08956
 20
132.982
 30
0.0
 11
2.59485
 21
133.061
 31
0.0
  0
LINE
  8
0
 62
     0
 10
2.59485
 20
133.061
 30
0.0
 11
2.10013
 21
132.982
 31
0.0
  0
LINE
  8
0
 62
     0
 10
316.665
 20
132.982
 30
0.0
 11
316.218
 21
132.755
 31
0.0
  0
LINE
  8
0
 62
     0
 10
316.218
 20
132.755
 30
0.0
 11
315.864
 21
132.401
 31
0.0
  0
LINE
  8
0
 62
     0
 10
315.864
 20
132.401
 30
0.0
 11
315.637
 21
131.955
 31
0.0
  0
LINE
  8
0
 62
     0
 10
315.637
 20
131.955
 30
0.0
 11
315.558
 21
131.461
 31
0.0
  0
LINE
  8
0
 62
     0
 10
315.558
 20
131.461
 30
0.0
 11
315.637
 21
130.966
 31
0.0
  0
LINE
  8
0
 62
     0
 10
315.637
 20
130.966
 30
0.0
 11
315.864
 21
130.52
 31
0.0
  0
LINE
  8
0
 62
     0
 10
315.864
 20
130.52
 30
0.0
 11
316.218
 21
130.167
 31
0.0
  0
LINE
  8
0
 62
     0
 10
316.218
 20
130.167
 30
0.0
 11
316.665
 21
129.939
 31
0.0
  0
LINE
  8
0
 62
     0
 10
316.665
 20
129.939
 30
0.0
 11
317.158
 21
129.859
 31
0.0
  0
LINE
  8
0
 62
     0
 10
317.158
 20
129.859
 30
0.0
 11
317.653
 21
129.939
 31
0.0
  0
LINE
  8
0
 62
     0
 10
317.653
 20
129.939
 30
0.0
 11
318.098
 21
130.167
 31
0.0
  0
LINE
  8
0
 62
     0
 10
318.098
 20
130.167
 30
0.0
 11
318.452
 21
130.52
 31
0.0
  0
LINE
  8
0
 62
     0
 10
318.452
 20
130.52
 30
0.0
 11
318.681
 21
130.966
 31
0.0
  0
LINE
  8
0
 62
     0
 10
318.681
 20
130.966
 30
0.0
 11
318.758
 21
131.461
 31
0.0
  0
LINE
  8
0
 62
     0
 10
318.758
 20
131.461
 30
0.0
 11
318.681
 21
131.955
 31
0.0
  0
LINE
  8
0
 62
     0
 10
318.681
 20
131.955
 30
0.0
 11
318.452
 21
132.401
 31
0.0
  0
LINE
  8
0
 62
     0
 10
318.452
 20
132.401
 30
0.0
 11
318.098
 21
132.755
 31
0.0
  0
LINE
  8
0
 62
     0
 10
318.098
 20
132.755
 30
0.0
 11
317.653
 21
132.982
 31
0.0
  0
LINE
  8
0
 62
     0
 10
317.653
 20
132.982
 30
0.0
 11
317.158
 21
133.061
 31
0.0
  0
LINE
  8
0
 62
     0
 10
317.158
 20
133.061
 30
0.0
 11
316.665
 21
132.982
 31
0.0
  0
LINE
  8
0
 62
     0
 10
159.383
 20
132.982
 30
0.0
 11
158.936
 21
132.755
 31
0.0
  0
LINE
  8
0
 62
     0
 10
158.936
 20
132.755
 30
0.0
 11
158.582
 21
132.401
 31
0.0
  0
LINE
  8
0
 62
     0
 10
158.582
 20
132.401
 30
0.0
 11
158.356
 21
131.955
 31
0.0
  0
LINE
  8
0
 62
     0
 10
158.356
 20
131.955
 30
0.0
 11
158.276
 21
131.461
 31
0.0
  0
LINE
  8
0
 62
     0
 10
158.276
 20
131.461
 30
0.0
 11
158.356
 21
130.966
 31
0.0
  0
LINE
  8
0
 62
     0
 10
158.356
 20
130.966
 30
0.0
 11
158.582
 21
130.52
 31
0.0
  0
LINE
  8
0
 62
     0
 10
158.582
 20
130.52
 30
0.0
 11
158.936
 21
130.167
 31
0.0
  0
LINE
  8
0
 62
     0
 10
158.936
 20
130.167
 30
0.0
 11
159.383
 21
129.939
 31
0.0
  0
LINE
  8
0
 62
     0
 10
159.383
 20
129.939
 30
0.0
 11
159.876
 21
129.859
 31
0.0
  0
LINE
  8
0
 62
     0
 10
159.876
 20
129.859
 30
0.0
 11
160.372
 21
129.939
 31
0.0
  0
LINE
  8
0
 62
     0
 10
160.372
 20
129.939
 30
0.0
 11
160.817
 21
130.167
 31
0.0
  0
LINE
  8
0
 62
     0
 10
160.817
 20
130.167
 30
0.0
 11
161.171
 21
130.52
 31
0.0
  0
LINE
  8
0
 62
     0
 10
161.171
 20
130.52
 30
0.0
 11
161.399
 21
130.966
 31
0.0
  0
LINE
  8
0
 62
     0
 10
161.399
 20
130.966
 30
0.0
 11
161.477
 21
131.461
 31
0.0
  0
LINE
  8
0
 62
     0
 10
161.477
 20
131.461
 30
0.0
 11
161.399
 21
131.955
 31
0.0
  0
LINE
  8
0
 62
     0
 10
161.399
 20
131.955
 30
0.0
 11
161.171
 21
132.401
 31
0.0
  0
LINE
  8
0
 62
     0
 10
161.171
 20
132.401
 30
0.0
 11
160.817
 21
132.755
 31
0.0
  0
LINE
  8
0
 62
     0
 10
160.817
 20
132.755
 30
0.0
 11
160.372
 21
132.982
 31
0.0
  0
LINE
  8
0
 62
     0
 10
160.372
 20
132.982
 30
0.0
 11
159.876
 21
133.061
 31
0.0
  0
LINE
  8
0
 62
     0
 10
159.876
 20
133.061
 30
0.0
 11
159.383
 21
132.982
 31
0.0
  0
ENDSEC
  0
EOF
