  0
SECTION
  2
HEADER
  9
$ACADVER
  1
AC1009
  9
$EXTMIN
 10
0.0
 20
0.0
 30
0.0
  9
$EXTMAX
 10
1000.0
 20
1000.0
 30
0.0
  9
$FILLMODE
 70
 0
  9
$SPLFRAME
 70
 1
  0
ENDSEC
  0
SECTION
  2
TABLES
  0
TABLE
  2
LAYER
 70
1
  0
LAYER
  2
0
 70
     0
 62
     7
  6
CONTINUOUS
  0
ENDTAB
  0
ENDSEC
  0
SECTION
  2
ENTITIES
  0
LINE
  8
0
 62
     0
 10
316.658
 20
133.96
 30
0.0
 11
316.894
 21
133.951
 31
0.0
  0
LINE
  8
0
 62
     0
 10
316.894
 20
133.951
 30
0.0
 11
317.128
 21
133.925
 31
0.0
  0
LINE
  8
0
 62
     0
 10
317.128
 20
133.925
 30
0.0
 11
317.358
 21
133.878
 31
0.0
  0
LINE
  8
0
 62
     0
 10
317.358
 20
133.878
 30
0.0
 11
317.585
 21
133.814
 31
0.0
  0
LINE
  8
0
 62
     0
 10
317.585
 20
133.814
 30
0.0
 11
317.806
 21
133.732
 31
0.0
  0
LINE
  8
0
 62
     0
 10
317.806
 20
133.732
 30
0.0
 11
318.021
 21
133.634
 31
0.0
  0
LINE
  8
0
 62
     0
 10
318.021
 20
133.634
 30
0.0
 11
318.225
 21
133.518
 31
0.0
  0
LINE
  8
0
 62
     0
 10
318.225
 20
133.518
 30
0.0
 11
318.422
 21
133.388
 31
0.0
  0
LINE
  8
0
 62
     0
 10
318.422
 20
133.388
 30
0.0
 11
318.607
 21
133.242
 31
0.0
  0
LINE
  8
0
 62
     0
 10
318.607
 20
133.242
 30
0.0
 11
318.779
 21
133.083
 31
0.0
  0
LINE
  8
0
 62
     0
 10
318.779
 20
133.083
 30
0.0
 11
318.94
 21
132.909
 31
0.0
  0
LINE
  8
0
 62
     0
 10
318.94
 20
132.909
 30
0.0
 11
319.086
 21
132.725
 31
0.0
  0
LINE
  8
0
 62
     0
 10
319.086
 20
132.725
 30
0.0
 11
319.217
 21
132.529
 31
0.0
  0
LINE
  8
0
 62
     0
 10
319.217
 20
132.529
 30
0.0
 11
319.331
 21
132.322
 31
0.0
  0
LINE
  8
0
 62
     0
 10
319.331
 20
132.322
 30
0.0
 11
319.431
 21
132.108
 31
0.0
  0
LINE
  8
0
 62
     0
 10
319.431
 20
132.108
 30
0.0
 11
319.512
 21
131.888
 31
0.0
  0
LINE
  8
0
 62
     0
 10
319.512
 20
131.888
 30
0.0
 11
319.575
 21
131.661
 31
0.0
  0
LINE
  8
0
 62
     0
 10
319.575
 20
131.661
 30
0.0
 11
319.621
 21
131.431
 31
0.0
  0
LINE
  8
0
 62
     0
 10
319.621
 20
131.431
 30
0.0
 11
319.65
 21
131.196
 31
0.0
  0
LINE
  8
0
 62
     0
 10
319.65
 20
131.196
 30
0.0
 11
319.658
 21
130.961
 31
0.0
  0
LINE
  8
0
 62
     0
 10
319.658
 20
130.961
 30
0.0
 11
319.658
 21
3.13366
 31
0.0
  0
LINE
  8
0
 62
     0
 10
319.658
 20
3.13366
 30
0.0
 11
319.65
 21
2.89939
 31
0.0
  0
LINE
  8
0
 62
     0
 10
319.65
 20
2.89939
 30
0.0
 11
319.621
 21
2.66513
 31
0.0
  0
LINE
  8
0
 62
     0
 10
319.621
 20
2.66513
 30
0.0
 11
319.575
 21
2.43362
 31
0.0
  0
LINE
  8
0
 62
     0
 10
319.575
 20
2.43362
 30
0.0
 11
319.512
 21
2.20762
 31
0.0
  0
LINE
  8
0
 62
     0
 10
319.512
 20
2.20762
 30
0.0
 11
319.431
 21
1.98575
 31
0.0
  0
LINE
  8
0
 62
     0
 10
319.431
 20
1.98575
 30
0.0
 11
319.331
 21
1.77353
 31
0.0
  0
LINE
  8
0
 62
     0
 10
319.331
 20
1.77353
 30
0.0
 11
319.217
 21
1.56683
 31
0.0
  0
LINE
  8
0
 62
     0
 10
319.217
 20
1.56683
 30
0.0
 11
319.086
 21
1.37115
 31
0.0
  0
LINE
  8
0
 62
     0
 10
319.086
 20
1.37115
 30
0.0
 11
318.94
 21
1.18649
 31
0.0
  0
LINE
  8
0
 62
     0
 10
318.94
 20
1.18649
 30
0.0
 11
318.779
 21
1.01286
 31
0.0
  0
LINE
  8
0
 62
     0
 10
318.779
 20
1.01286
 30
0.0
 11
318.607
 21
0.853006
 31
0.0
  0
LINE
  8
0
 62
     0
 10
318.607
 20
0.853006
 30
0.0
 11
318.422
 21
0.706935
 31
0.0
  0
LINE
  8
0
 62
     0
 10
318.422
 20
0.706935
 30
0.0
 11
318.225
 21
0.577398
 31
0.0
  0
LINE
  8
0
 62
     0
 10
318.225
 20
0.577398
 30
0.0
 11
318.021
 21
0.461641
 31
0.0
  0
LINE
  8
0
 62
     0
 10
318.021
 20
0.461641
 30
0.0
 11
317.806
 21
0.362423
 31
0.0
  0
LINE
  8
0
 62
     0
 10
317.806
 20
0.362423
 30
0.0
 11
317.585
 21
0.28112
 31
0.0
  0
LINE
  8
0
 62
     0
 10
317.585
 20
0.28112
 30
0.0
 11
317.358
 21
0.21773
 31
0.0
  0
LINE
  8
0
 62
     0
 10
317.358
 20
0.21773
 30
0.0
 11
317.128
 21
0.170877
 31
0.0
  0
LINE
  8
0
 62
     0
 10
317.128
 20
0.170877
 30
0.0
 11
316.894
 21
0.144694
 31
0.0
  0
LINE
  8
0
 62
     0
 10
316.894
 20
0.144694
 30
0.0
 11
316.658
 21
0.13367
 31
0.0
  0
LINE
  8
0
 62
     0
 10
316.658
 20
0.13367
 30
0.0
 11
3.09507
 21
0.13367
 31
0.0
  0
LINE
  8
0
 62
     0
 10
3.09507
 20
0.13367
 30
0.0
 11
2.85943
 21
0.144694
 31
0.0
  0
LINE
  8
0
 62
     0
 10
2.85943
 20
0.144694
 30
0.0
 11
2.62516
 21
0.170877
 31
0.0
  0
LINE
  8
0
 62
     0
 10
2.62516
 20
0.170877
 30
0.0
 11
2.39503
 21
0.21773
 31
0.0
  0
LINE
  8
0
 62
     0
 10
2.39503
 20
0.21773
 30
0.0
 11
2.16765
 21
0.28112
 31
0.0
  0
LINE
  8
0
 62
     0
 10
2.16765
 20
0.28112
 30
0.0
 11
1.94717
 21
0.362423
 31
0.0
  0
LINE
  8
0
 62
     0
 10
1.94717
 20
0.362423
 30
0.0
 11
1.73357
 21
0.461641
 31
0.0
  0
LINE
  8
0
 62
     0
 10
1.73357
 20
0.461641
 30
0.0
 11
1.52687
 21
0.577398
 31
0.0
  0
LINE
  8
0
 62
     0
 10
1.52687
 20
0.577398
 30
0.0
 11
1.33119
 21
0.706935
 31
0.0
  0
LINE
  8
0
 62
     0
 10
1.33119
 20
0.706935
 30
0.0
 11
1.14653
 21
0.853006
 31
0.0
  0
LINE
  8
0
 62
     0
 10
1.14653
 20
0.853006
 30
0.0
 11
0.972894
 21
1.01286
 31
0.0
  0
LINE
  8
0
 62
     0
 10
0.972894
 20
1.01286
 30
0.0
 11
0.813043
 21
1.18649
 31
0.0
  0
LINE
  8
0
 62
     0
 10
0.813043
 20
1.18649
 30
0.0
 11
0.666972
 21
1.37115
 31
0.0
  0
LINE
  8
0
 62
     0
 10
0.666972
 20
1.37115
 30
0.0
 11
0.537436
 21
1.56683
 31
0.0
  0
LINE
  8
0
 62
     0
 10
0.537436
 20
1.56683
 30
0.0
 11
0.421679
 21
1.77353
 31
0.0
  0
LINE
  8
0
 62
     0
 10
0.421679
 20
1.77353
 30
0.0
 11
0.323839
 21
1.98575
 31
0.0
  0
LINE
  8
0
 62
     0
 10
0.323839
 20
1.98575
 30
0.0
 11
0.241157
 21
2.20762
 31
0.0
  0
LINE
  8
0
 62
     0
 10
0.241157
 20
2.20762
 30
0.0
 11
0.177767
 21
2.43362
 31
0.0
  0
LINE
  8
0
 62
     0
 10
0.177767
 20
2.43362
 30
0.0
 11
0.130914
 21
2.66513
 31
0.0
  0
LINE
  8
0
 62
     0
 10
0.130914
 20
2.66513
 30
0.0
 11
0.104731
 21
2.89939
 31
0.0
  0
LINE
  8
0
 62
     0
 10
0.104731
 20
2.89939
 30
0.0
 11
0.0950846
 21
3.13504
 31
0.0
  0
LINE
  8
0
 62
     0
 10
0.0950846
 20
3.13504
 30
0.0
 11
0.0950846
 21
130.961
 31
0.0
  0
LINE
  8
0
 62
     0
 10
0.0950846
 20
130.961
 30
0.0
 11
0.104731
 21
131.196
 31
0.0
  0
LINE
  8
0
 62
     0
 10
0.104731
 20
131.196
 30
0.0
 11
0.130914
 21
131.431
 31
0.0
  0
LINE
  8
0
 62
     0
 10
0.130914
 20
131.431
 30
0.0
 11
0.177767
 21
131.661
 31
0.0
  0
LINE
  8
0
 62
     0
 10
0.177767
 20
131.661
 30
0.0
 11
0.241157
 21
131.888
 31
0.0
  0
LINE
  8
0
 62
     0
 10
0.241157
 20
131.888
 30
0.0
 11
0.323839
 21
132.108
 31
0.0
  0
LINE
  8
0
 62
     0
 10
0.323839
 20
132.108
 30
0.0
 11
0.421679
 21
132.322
 31
0.0
  0
LINE
  8
0
 62
     0
 10
0.421679
 20
132.322
 30
0.0
 11
0.537436
 21
132.529
 31
0.0
  0
LINE
  8
0
 62
     0
 10
0.537436
 20
132.529
 30
0.0
 11
0.666972
 21
132.725
 31
0.0
  0
LINE
  8
0
 62
     0
 10
0.666972
 20
132.725
 30
0.0
 11
0.813043
 21
132.909
 31
0.0
  0
LINE
  8
0
 62
     0
 10
0.813043
 20
132.909
 30
0.0
 11
0.972894
 21
133.083
 31
0.0
  0
LINE
  8
0
 62
     0
 10
0.972894
 20
133.083
 30
0.0
 11
1.14653
 21
133.242
 31
0.0
  0
LINE
  8
0
 62
     0
 10
1.14653
 20
133.242
 30
0.0
 11
1.33119
 21
133.388
 31
0.0
  0
LINE
  8
0
 62
     0
 10
1.33119
 20
133.388
 30
0.0
 11
1.52687
 21
133.518
 31
0.0
  0
LINE
  8
0
 62
     0
 10
1.52687
 20
133.518
 30
0.0
 11
1.73357
 21
133.634
 31
0.0
  0
LINE
  8
0
 62
     0
 10
1.73357
 20
133.634
 30
0.0
 11
1.94717
 21
133.732
 31
0.0
  0
LINE
  8
0
 62
     0
 10
1.94717
 20
133.732
 30
0.0
 11
2.16765
 21
133.814
 31
0.0
  0
LINE
  8
0
 62
     0
 10
2.16765
 20
133.814
 30
0.0
 11
2.39503
 21
133.878
 31
0.0
  0
LINE
  8
0
 62
     0
 10
2.39503
 20
133.878
 30
0.0
 11
2.62516
 21
133.925
 31
0.0
  0
LINE
  8
0
 62
     0
 10
2.62516
 20
133.925
 30
0.0
 11
2.85943
 21
133.951
 31
0.0
  0
LINE
  8
0
 62
     0
 10
2.85943
 20
133.951
 30
0.0
 11
3.09507
 21
133.96
 31
0.0
  0
LINE
  8
0
 62
     0
 10
3.09507
 20
133.96
 30
0.0
 11
316.658
 21
133.96
 31
0.0
  0
LINE
  8
0
 62
     0
 10
2.10013
 20
4.15618
 30
0.0
 11
1.65503
 21
3.92878
 31
0.0
  0
LINE
  8
0
 62
     0
 10
1.65503
 20
3.92878
 30
0.0
 11
1.30087
 21
3.57463
 31
0.0
  0
LINE
  8
0
 62
     0
 10
1.30087
 20
3.57463
 30
0.0
 11
1.07349
 21
3.12952
 31
0.0
  0
LINE
  8
0
 62
     0
 10
1.07349
 20
3.12952
 30
0.0
 11
0.994943
 21
2.63343
 31
0.0
  0
LINE
  8
0
 62
     0
 10
0.994943
 20
2.63343
 30
0.0
 11
1.07349
 21
2.14009
 31
0.0
  0
LINE
  8
0
 62
     0
 10
1.07349
 20
2.14009
 30
0.0
 11
1.30087
 21
1.69361
 31
0.0
  0
LINE
  8
0
 62
     0
 10
1.30087
 20
1.69361
 30
0.0
 11
1.65503
 21
1.33945
 31
0.0
  0
LINE
  8
0
 62
     0
 10
1.65503
 20
1.33945
 30
0.0
 11
2.10013
 21
1.11345
 31
0.0
  0
LINE
  8
0
 62
     0
 10
2.10013
 20
1.11345
 30
0.0
 11
2.59485
 21
1.03353
 31
0.0
  0
LINE
  8
0
 62
     0
 10
2.59485
 20
1.03353
 30
0.0
 11
3.08956
 21
1.11345
 31
0.0
  0
LINE
  8
0
 62
     0
 10
3.08956
 20
1.11345
 30
0.0
 11
3.53603
 21
1.33945
 31
0.0
  0
LINE
  8
0
 62
     0
 10
3.53603
 20
1.33945
 30
0.0
 11
3.88881
 21
1.69361
 31
0.0
  0
LINE
  8
0
 62
     0
 10
3.88881
 20
1.69361
 30
0.0
 11
4.11621
 21
2.14009
 31
0.0
  0
LINE
  8
0
 62
     0
 10
4.11621
 20
2.14009
 30
0.0
 11
4.19612
 21
2.63343
 31
0.0
  0
LINE
  8
0
 62
     0
 10
4.19612
 20
2.63343
 30
0.0
 11
4.11621
 21
3.12952
 31
0.0
  0
LINE
  8
0
 62
     0
 10
4.11621
 20
3.12952
 30
0.0
 11
3.88881
 21
3.57463
 31
0.0
  0
LINE
  8
0
 62
     0
 10
3.88881
 20
3.57463
 30
0.0
 11
3.53603
 21
3.92878
 31
0.0
  0
LINE
  8
0
 62
     0
 10
3.53603
 20
3.92878
 30
0.0
 11
3.08956
 21
4.15618
 31
0.0
  0
LINE
  8
0
 62
     0
 10
3.08956
 20
4.15618
 30
0.0
 11
2.59485
 21
4.23471
 31
0.0
  0
LINE
  8
0
 62
     0
 10
2.59485
 20
4.23471
 30
0.0
 11
2.10013
 21
4.15618
 31
0.0
  0
LINE
  8
0
 62
     0
 10
159.383
 20
4.15618
 30
0.0
 11
158.936
 21
3.92878
 31
0.0
  0
LINE
  8
0
 62
     0
 10
158.936
 20
3.92878
 30
0.0
 11
158.582
 21
3.57463
 31
0.0
  0
LINE
  8
0
 62
     0
 10
158.582
 20
3.57463
 30
0.0
 11
158.356
 21
3.12952
 31
0.0
  0
LINE
  8
0
 62
     0
 10
158.356
 20
3.12952
 30
0.0
 11
158.276
 21
2.63343
 31
0.0
  0
LINE
  8
0
 62
     0
 10
158.276
 20
2.63343
 30
0.0
 11
158.356
 21
2.14009
 31
0.0
  0
LINE
  8
0
 62
     0
 10
158.356
 20
2.14009
 30
0.0
 11
158.582
 21
1.69361
 31
0.0
  0
LINE
  8
0
 62
     0
 10
158.582
 20
1.69361
 30
0.0
 11
158.936
 21
1.33945
 31
0.0
  0
LINE
  8
0
 62
     0
 10
158.936
 20
1.33945
 30
0.0
 11
159.383
 21
1.11345
 31
0.0
  0
LINE
  8
0
 62
     0
 10
159.383
 20
1.11345
 30
0.0
 11
159.876
 21
1.03353
 31
0.0
  0
LINE
  8
0
 62
     0
 10
159.876
 20
1.03353
 30
0.0
 11
160.372
 21
1.11345
 31
0.0
  0
LINE
  8
0
 62
     0
 10
160.372
 20
1.11345
 30
0.0
 11
160.817
 21
1.33945
 31
0.0
  0
LINE
  8
0
 62
     0
 10
160.817
 20
1.33945
 30
0.0
 11
161.171
 21
1.69361
 31
0.0
  0
LINE
  8
0
 62
     0
 10
161.171
 20
1.69361
 30
0.0
 11
161.399
 21
2.14009
 31
0.0
  0
LINE
  8
0
 62
     0
 10
161.399
 20
2.14009
 30
0.0
 11
161.477
 21
2.63343
 31
0.0
  0
LINE
  8
0
 62
     0
 10
161.477
 20
2.63343
 30
0.0
 11
161.399
 21
3.12952
 31
0.0
  0
LINE
  8
0
 62
     0
 10
161.399
 20
3.12952
 30
0.0
 11
161.171
 21
3.57463
 31
0.0
  0
LINE
  8
0
 62
     0
 10
161.171
 20
3.57463
 30
0.0
 11
160.817
 21
3.92878
 31
0.0
  0
LINE
  8
0
 62
     0
 10
160.817
 20
3.92878
 30
0.0
 11
160.372
 21
4.15618
 31
0.0
  0
LINE
  8
0
 62
     0
 10
160.372
 20
4.15618
 30
0.0
 11
159.876
 21
4.23471
 31
0.0
  0
LINE
  8
0
 62
     0
 10
159.876
 20
4.23471
 30
0.0
 11
159.383
 21
4.15618
 31
0.0
  0
LINE
  8
0
 62
     0
 10
316.665
 20
4.15618
 30
0.0
 11
316.218
 21
3.92878
 31
0.0
  0
LINE
  8
0
 62
     0
 10
316.218
 20
3.92878
 30
0.0
 11
315.864
 21
3.57463
 31
0.0
  0
LINE
  8
0
 62
     0
 10
315.864
 20
3.57463
 30
0.0
 11
315.637
 21
3.12952
 31
0.0
  0
LINE
  8
0
 62
     0
 10
315.637
 20
3.12952
 30
0.0
 11
315.558
 21
2.63343
 31
0.0
  0
LINE
  8
0
 62
     0
 10
315.558
 20
2.63343
 30
0.0
 11
315.637
 21
2.14009
 31
0.0
  0
LINE
  8
0
 62
     0
 10
315.637
 20
2.14009
 30
0.0
 11
315.864
 21
1.69361
 31
0.0
  0
LINE
  8
0
 62
     0
 10
315.864
 20
1.69361
 30
0.0
 11
316.218
 21
1.33945
 31
0.0
  0
LINE
  8
0
 62
     0
 10
316.218
 20
1.33945
 30
0.0
 11
316.665
 21
1.11345
 31
0.0
  0
LINE
  8
0
 62
     0
 10
316.665
 20
1.11345
 30
0.0
 11
317.158
 21
1.03353
 31
0.0
  0
LINE
  8
0
 62
     0
 10
317.158
 20
1.03353
 30
0.0
 11
317.653
 21
1.11345
 31
0.0
  0
LINE
  8
0
 62
     0
 10
317.653
 20
1.11345
 30
0.0
 11
318.098
 21
1.33945
 31
0.0
  0
LINE
  8
0
 62
     0
 10
318.098
 20
1.33945
 30
0.0
 11
318.452
 21
1.69361
 31
0.0
  0
LINE
  8
0
 62
     0
 10
318.452
 20
1.69361
 30
0.0
 11
318.681
 21
2.14009
 31
0.0
  0
LINE
  8
0
 62
     0
 10
318.681
 20
2.14009
 30
0.0
 11
318.758
 21
2.63343
 31
0.0
  0
LINE
  8
0
 62
     0
 10
318.758
 20
2.63343
 30
0.0
 11
318.681
 21
3.12952
 31
0.0
  0
LINE
  8
0
 62
     0
 10
318.681
 20
3.12952
 30
0.0
 11
318.452
 21
3.57463
 31
0.0
  0
LINE
  8
0
 62
     0
 10
318.452
 20
3.57463
 30
0.0
 11
318.098
 21
3.92878
 31
0.0
  0
LINE
  8
0
 62
     0
 10
318.098
 20
3.92878
 30
0.0
 11
317.653
 21
4.15618
 31
0.0
  0
LINE
  8
0
 62
     0
 10
317.653
 20
4.15618
 30
0.0
 11
317.158
 21
4.23471
 31
0.0
  0
LINE
  8
0
 62
     0
 10
317.158
 20
4.23471
 30
0.0
 11
316.665
 21
4.15618
 31
0.0
  0
LINE
  8
0
 62
     0
 10
298.133
 20
21.66
 30
0.0
 11
298.133
 21
20.6595
 31
0.0
  0
LINE
  8
0
 62
     0
 10
298.133
 20
20.6595
 30
0.0
 11
297.332
 21
20.6595
 31
0.0
  0
LINE
  8
0
 62
     0
 10
297.332
 20
20.6595
 30
0.0
 11
297.332
 21
17.5617
 31
0.0
  0
LINE
  8
0
 62
     0
 10
297.332
 20
17.5617
 30
0.0
 11
298.133
 21
17.5617
 31
0.0
  0
LINE
  8
0
 62
     0
 10
298.133
 20
17.5617
 30
0.0
 11
298.133
 21
11.7602
 31
0.0
  0
LINE
  8
0
 62
     0
 10
298.133
 20
11.7602
 30
0.0
 11
297.332
 21
11.7602
 31
0.0
  0
LINE
  8
0
 62
     0
 10
297.332
 20
11.7602
 30
0.0
 11
297.332
 21
8.6596
 31
0.0
  0
LINE
  8
0
 62
     0
 10
297.332
 20
8.6596
 30
0.0
 11
298.133
 21
8.6596
 31
0.0
  0
LINE
  8
0
 62
     0
 10
298.133
 20
8.6596
 30
0.0
 11
298.133
 21
7.6605
 31
0.0
  0
LINE
  8
0
 62
     0
 10
298.133
 20
7.6605
 30
0.0
 11
312.132
 21
7.6605
 31
0.0
  0
LINE
  8
0
 62
     0
 10
312.132
 20
7.6605
 30
0.0
 11
312.132
 21
8.6596
 31
0.0
  0
LINE
  8
0
 62
     0
 10
312.132
 20
8.6596
 30
0.0
 11
312.932
 21
8.6596
 31
0.0
  0
LINE
  8
0
 62
     0
 10
312.932
 20
8.6596
 30
0.0
 11
312.932
 21
11.7602
 31
0.0
  0
LINE
  8
0
 62
     0
 10
312.932
 20
11.7602
 30
0.0
 11
312.132
 21
11.7602
 31
0.0
  0
LINE
  8
0
 62
     0
 10
312.132
 20
11.7602
 30
0.0
 11
312.132
 21
17.5617
 31
0.0
  0
LINE
  8
0
 62
     0
 10
312.132
 20
17.5617
 30
0.0
 11
312.932
 21
17.5617
 31
0.0
  0
LINE
  8
0
 62
     0
 10
312.932
 20
17.5617
 30
0.0
 11
312.932
 21
20.6595
 31
0.0
  0
LINE
  8
0
 62
     0
 10
312.932
 20
20.6595
 30
0.0
 11
312.132
 21
20.6595
 31
0.0
  0
LINE
  8
0
 62
     0
 10
312.132
 20
20.6595
 30
0.0
 11
312.132
 21
21.66
 31
0.0
  0
LINE
  8
0
 62
     0
 10
312.132
 20
21.66
 30
0.0
 11
298.133
 21
21.66
 31
0.0
  0
LINE
  8
0
 62
     0
 10
279.083
 20
21.66
 30
0.0
 11
279.083
 21
20.6595
 31
0.0
  0
LINE
  8
0
 62
     0
 10
279.083
 20
20.6595
 30
0.0
 11
278.282
 21
20.6595
 31
0.0
  0
LINE
  8
0
 62
     0
 10
278.282
 20
20.6595
 30
0.0
 11
278.282
 21
17.5617
 31
0.0
  0
LINE
  8
0
 62
     0
 10
278.282
 20
17.5617
 30
0.0
 11
279.083
 21
17.5617
 31
0.0
  0
LINE
  8
0
 62
     0
 10
279.083
 20
17.5617
 30
0.0
 11
279.083
 21
11.7602
 31
0.0
  0
LINE
  8
0
 62
     0
 10
279.083
 20
11.7602
 30
0.0
 11
278.282
 21
11.7602
 31
0.0
  0
LINE
  8
0
 62
     0
 10
278.282
 20
11.7602
 30
0.0
 11
278.282
 21
8.6596
 31
0.0
  0
LINE
  8
0
 62
     0
 10
278.282
 20
8.6596
 30
0.0
 11
279.083
 21
8.6596
 31
0.0
  0
LINE
  8
0
 62
     0
 10
279.083
 20
8.6596
 30
0.0
 11
279.083
 21
7.6605
 31
0.0
  0
LINE
  8
0
 62
     0
 10
279.083
 20
7.6605
 30
0.0
 11
293.082
 21
7.6605
 31
0.0
  0
LINE
  8
0
 62
     0
 10
293.082
 20
7.6605
 30
0.0
 11
293.082
 21
8.6596
 31
0.0
  0
LINE
  8
0
 62
     0
 10
293.082
 20
8.6596
 30
0.0
 11
293.882
 21
8.6596
 31
0.0
  0
LINE
  8
0
 62
     0
 10
293.882
 20
8.6596
 30
0.0
 11
293.882
 21
11.7602
 31
0.0
  0
LINE
  8
0
 62
     0
 10
293.882
 20
11.7602
 30
0.0
 11
293.082
 21
11.7602
 31
0.0
  0
LINE
  8
0
 62
     0
 10
293.082
 20
11.7602
 30
0.0
 11
293.082
 21
17.5617
 31
0.0
  0
LINE
  8
0
 62
     0
 10
293.082
 20
17.5617
 30
0.0
 11
293.882
 21
17.5617
 31
0.0
  0
LINE
  8
0
 62
     0
 10
293.882
 20
17.5617
 30
0.0
 11
293.882
 21
20.6595
 31
0.0
  0
LINE
  8
0
 62
     0
 10
293.882
 20
20.6595
 30
0.0
 11
293.082
 21
20.6595
 31
0.0
  0
LINE
  8
0
 62
     0
 10
293.082
 20
20.6595
 30
0.0
 11
293.082
 21
21.66
 31
0.0
  0
LINE
  8
0
 62
     0
 10
293.082
 20
21.66
 30
0.0
 11
279.083
 21
21.66
 31
0.0
  0
LINE
  8
0
 62
     0
 10
260.033
 20
21.66
 30
0.0
 11
260.033
 21
20.6595
 31
0.0
  0
LINE
  8
0
 62
     0
 10
260.033
 20
20.6595
 30
0.0
 11
259.232
 21
20.6595
 31
0.0
  0
LINE
  8
0
 62
     0
 10
259.232
 20
20.6595
 30
0.0
 11
259.232
 21
17.5617
 31
0.0
  0
LINE
  8
0
 62
     0
 10
259.232
 20
17.5617
 30
0.0
 11
260.033
 21
17.5617
 31
0.0
  0
LINE
  8
0
 62
     0
 10
260.033
 20
17.5617
 30
0.0
 11
260.033
 21
11.7602
 31
0.0
  0
LINE
  8
0
 62
     0
 10
260.033
 20
11.7602
 30
0.0
 11
259.232
 21
11.7602
 31
0.0
  0
LINE
  8
0
 62
     0
 10
259.232
 20
11.7602
 30
0.0
 11
259.232
 21
8.6596
 31
0.0
  0
LINE
  8
0
 62
     0
 10
259.232
 20
8.6596
 30
0.0
 11
260.033
 21
8.6596
 31
0.0
  0
LINE
  8
0
 62
     0
 10
260.033
 20
8.6596
 30
0.0
 11
260.033
 21
7.6605
 31
0.0
  0
LINE
  8
0
 62
     0
 10
260.033
 20
7.6605
 30
0.0
 11
274.032
 21
7.6605
 31
0.0
  0
LINE
  8
0
 62
     0
 10
274.032
 20
7.6605
 30
0.0
 11
274.032
 21
8.6596
 31
0.0
  0
LINE
  8
0
 62
     0
 10
274.032
 20
8.6596
 30
0.0
 11
274.832
 21
8.6596
 31
0.0
  0
LINE
  8
0
 62
     0
 10
274.832
 20
8.6596
 30
0.0
 11
274.832
 21
11.7602
 31
0.0
  0
LINE
  8
0
 62
     0
 10
274.832
 20
11.7602
 30
0.0
 11
274.032
 21
11.7602
 31
0.0
  0
LINE
  8
0
 62
     0
 10
274.032
 20
11.7602
 30
0.0
 11
274.032
 21
17.5617
 31
0.0
  0
LINE
  8
0
 62
     0
 10
274.032
 20
17.5617
 30
0.0
 11
274.832
 21
17.5617
 31
0.0
  0
LINE
  8
0
 62
     0
 10
274.832
 20
17.5617
 30
0.0
 11
274.832
 21
20.6595
 31
0.0
  0
LINE
  8
0
 62
     0
 10
274.832
 20
20.6595
 30
0.0
 11
274.032
 21
20.6595
 31
0.0
  0
LINE
  8
0
 62
     0
 10
274.032
 20
20.6595
 30
0.0
 11
274.032
 21
21.66
 31
0.0
  0
LINE
  8
0
 62
     0
 10
274.032
 20
21.66
 30
0.0
 11
260.033
 21
21.66
 31
0.0
  0
LINE
  8
0
 62
     0
 10
129.063
 20
26.4225
 30
0.0
 11
129.063
 21
25.4234
 31
0.0
  0
LINE
  8
0
 62
     0
 10
129.063
 20
25.4234
 30
0.0
 11
128.264
 21
25.4234
 31
0.0
  0
LINE
  8
0
 62
     0
 10
128.264
 20
25.4234
 30
0.0
 11
128.264
 21
22.3228
 31
0.0
  0
LINE
  8
0
 62
     0
 10
128.264
 20
22.3228
 30
0.0
 11
129.063
 21
22.3228
 31
0.0
  0
LINE
  8
0
 62
     0
 10
129.063
 20
22.3228
 30
0.0
 11
129.063
 21
21.7234
 31
0.0
  0
LINE
  8
0
 62
     0
 10
129.063
 20
21.7234
 30
0.0
 11
89.4387
 21
21.7234
 31
0.0
  0
LINE
  8
0
 62
     0
 10
89.4387
 20
21.7234
 30
0.0
 11
89.4387
 21
24.9535
 31
0.0
  0
LINE
  8
0
 62
     0
 10
89.4387
 20
24.9535
 30
0.0
 11
87.7136
 21
24.9535
 31
0.0
  0
LINE
  8
0
 62
     0
 10
87.7136
 20
24.9535
 30
0.0
 11
87.7136
 21
25.8727
 31
0.0
  0
LINE
  8
0
 62
     0
 10
87.7136
 20
25.8727
 30
0.0
 11
84.413
 21
25.8727
 31
0.0
  0
LINE
  8
0
 62
     0
 10
84.413
 20
25.8727
 30
0.0
 11
84.413
 21
24.9535
 31
0.0
  0
LINE
  8
0
 62
     0
 10
84.413
 20
24.9535
 30
0.0
 11
82.6879
 21
24.9535
 31
0.0
  0
LINE
  8
0
 62
     0
 10
82.6879
 20
24.9535
 30
0.0
 11
82.6879
 21
21.7234
 31
0.0
  0
LINE
  8
0
 62
     0
 10
82.6879
 20
21.7234
 30
0.0
 11
81.8638
 21
21.7234
 31
0.0
  0
LINE
  8
0
 62
     0
 10
81.8638
 20
21.7234
 30
0.0
 11
81.8638
 21
18.9232
 31
0.0
  0
LINE
  8
0
 62
     0
 10
81.8638
 20
18.9232
 30
0.0
 11
82.6879
 21
18.9232
 31
0.0
  0
LINE
  8
0
 62
     0
 10
82.6879
 20
18.9232
 30
0.0
 11
82.6879
 21
12.6532
 31
0.0
  0
LINE
  8
0
 62
     0
 10
82.6879
 20
12.6532
 30
0.0
 11
84.413
 21
12.6532
 31
0.0
  0
LINE
  8
0
 62
     0
 10
84.413
 20
12.6532
 30
0.0
 11
84.413
 21
11.6733
 31
0.0
  0
LINE
  8
0
 62
     0
 10
84.413
 20
11.6733
 30
0.0
 11
87.7136
 21
11.6733
 31
0.0
  0
LINE
  8
0
 62
     0
 10
87.7136
 20
11.6733
 30
0.0
 11
87.7136
 21
12.6532
 31
0.0
  0
LINE
  8
0
 62
     0
 10
87.7136
 20
12.6532
 30
0.0
 11
89.4387
 21
12.6532
 31
0.0
  0
LINE
  8
0
 62
     0
 10
89.4387
 20
12.6532
 30
0.0
 11
89.4387
 21
17.1235
 31
0.0
  0
LINE
  8
0
 62
     0
 10
89.4387
 20
17.1235
 30
0.0
 11
129.063
 21
17.1235
 31
0.0
  0
LINE
  8
0
 62
     0
 10
129.063
 20
17.1235
 30
0.0
 11
129.063
 21
16.5227
 31
0.0
  0
LINE
  8
0
 62
     0
 10
129.063
 20
16.5227
 30
0.0
 11
128.264
 21
16.5227
 31
0.0
  0
LINE
  8
0
 62
     0
 10
128.264
 20
16.5227
 30
0.0
 11
128.264
 21
13.4235
 31
0.0
  0
LINE
  8
0
 62
     0
 10
128.264
 20
13.4235
 30
0.0
 11
129.063
 21
13.4235
 31
0.0
  0
LINE
  8
0
 62
     0
 10
129.063
 20
13.4235
 30
0.0
 11
129.063
 21
12.423
 31
0.0
  0
LINE
  8
0
 62
     0
 10
129.063
 20
12.423
 30
0.0
 11
143.064
 21
12.423
 31
0.0
  0
LINE
  8
0
 62
     0
 10
143.064
 20
12.423
 30
0.0
 11
143.064
 21
13.4235
 31
0.0
  0
LINE
  8
0
 62
     0
 10
143.064
 20
13.4235
 30
0.0
 11
143.863
 21
13.4235
 31
0.0
  0
LINE
  8
0
 62
     0
 10
143.863
 20
13.4235
 30
0.0
 11
143.863
 21
16.5227
 31
0.0
  0
LINE
  8
0
 62
     0
 10
143.863
 20
16.5227
 30
0.0
 11
143.064
 21
16.5227
 31
0.0
  0
LINE
  8
0
 62
     0
 10
143.064
 20
16.5227
 30
0.0
 11
143.064
 21
17.1235
 31
0.0
  0
LINE
  8
0
 62
     0
 10
143.064
 20
17.1235
 30
0.0
 11
182.688
 21
17.1235
 31
0.0
  0
LINE
  8
0
 62
     0
 10
182.688
 20
17.1235
 30
0.0
 11
182.688
 21
12.6532
 31
0.0
  0
LINE
  8
0
 62
     0
 10
182.688
 20
12.6532
 30
0.0
 11
184.413
 21
12.6532
 31
0.0
  0
LINE
  8
0
 62
     0
 10
184.413
 20
12.6532
 30
0.0
 11
184.413
 21
11.6733
 31
0.0
  0
LINE
  8
0
 62
     0
 10
184.413
 20
11.6733
 30
0.0
 11
187.714
 21
11.6733
 31
0.0
  0
LINE
  8
0
 62
     0
 10
187.714
 20
11.6733
 30
0.0
 11
187.714
 21
12.6532
 31
0.0
  0
LINE
  8
0
 62
     0
 10
187.714
 20
12.6532
 30
0.0
 11
189.439
 21
12.6532
 31
0.0
  0
LINE
  8
0
 62
     0
 10
189.439
 20
12.6532
 30
0.0
 11
189.439
 21
18.9232
 31
0.0
  0
LINE
  8
0
 62
     0
 10
189.439
 20
18.9232
 30
0.0
 11
190.263
 21
18.9232
 31
0.0
  0
LINE
  8
0
 62
     0
 10
190.263
 20
18.9232
 30
0.0
 11
190.263
 21
21.7234
 31
0.0
  0
LINE
  8
0
 62
     0
 10
190.263
 20
21.7234
 30
0.0
 11
189.439
 21
21.7234
 31
0.0
  0
LINE
  8
0
 62
     0
 10
189.439
 20
21.7234
 30
0.0
 11
189.439
 21
24.9535
 31
0.0
  0
LINE
  8
0
 62
     0
 10
189.439
 20
24.9535
 30
0.0
 11
187.714
 21
24.9535
 31
0.0
  0
LINE
  8
0
 62
     0
 10
187.714
 20
24.9535
 30
0.0
 11
187.714
 21
25.8727
 31
0.0
  0
LINE
  8
0
 62
     0
 10
187.714
 20
25.8727
 30
0.0
 11
184.413
 21
25.8727
 31
0.0
  0
LINE
  8
0
 62
     0
 10
184.413
 20
25.8727
 30
0.0
 11
184.413
 21
24.9535
 31
0.0
  0
LINE
  8
0
 62
     0
 10
184.413
 20
24.9535
 30
0.0
 11
182.688
 21
24.9535
 31
0.0
  0
LINE
  8
0
 62
     0
 10
182.688
 20
24.9535
 30
0.0
 11
182.688
 21
21.7234
 31
0.0
  0
LINE
  8
0
 62
     0
 10
182.688
 20
21.7234
 30
0.0
 11
143.064
 21
21.7234
 31
0.0
  0
LINE
  8
0
 62
     0
 10
143.064
 20
21.7234
 30
0.0
 11
143.064
 21
22.3228
 31
0.0
  0
LINE
  8
0
 62
     0
 10
143.064
 20
22.3228
 30
0.0
 11
143.863
 21
22.3228
 31
0.0
  0
LINE
  8
0
 62
     0
 10
143.863
 20
22.3228
 30
0.0
 11
143.863
 21
25.4234
 31
0.0
  0
LINE
  8
0
 62
     0
 10
143.863
 20
25.4234
 30
0.0
 11
143.064
 21
25.4234
 31
0.0
  0
LINE
  8
0
 62
     0
 10
143.064
 20
25.4234
 30
0.0
 11
143.064
 21
26.4225
 31
0.0
  0
LINE
  8
0
 62
     0
 10
143.064
 20
26.4225
 30
0.0
 11
129.063
 21
26.4225
 31
0.0
  0
LINE
  8
0
 62
     0
 10
231.458
 20
26.4225
 30
0.0
 11
231.458
 21
25.4234
 31
0.0
  0
LINE
  8
0
 62
     0
 10
231.458
 20
25.4234
 30
0.0
 11
230.657
 21
25.4234
 31
0.0
  0
LINE
  8
0
 62
     0
 10
230.657
 20
25.4234
 30
0.0
 11
230.657
 21
22.3228
 31
0.0
  0
LINE
  8
0
 62
     0
 10
230.657
 20
22.3228
 30
0.0
 11
231.458
 21
22.3228
 31
0.0
  0
LINE
  8
0
 62
     0
 10
231.458
 20
22.3228
 30
0.0
 11
231.458
 21
16.5227
 31
0.0
  0
LINE
  8
0
 62
     0
 10
231.458
 20
16.5227
 30
0.0
 11
230.657
 21
16.5227
 31
0.0
  0
LINE
  8
0
 62
     0
 10
230.657
 20
16.5227
 30
0.0
 11
230.657
 21
13.4235
 31
0.0
  0
LINE
  8
0
 62
     0
 10
230.657
 20
13.4235
 30
0.0
 11
231.458
 21
13.4235
 31
0.0
  0
LINE
  8
0
 62
     0
 10
231.458
 20
13.4235
 30
0.0
 11
231.458
 21
12.423
 31
0.0
  0
LINE
  8
0
 62
     0
 10
231.458
 20
12.423
 30
0.0
 11
245.457
 21
12.423
 31
0.0
  0
LINE
  8
0
 62
     0
 10
245.457
 20
12.423
 30
0.0
 11
245.457
 21
13.4235
 31
0.0
  0
LINE
  8
0
 62
     0
 10
245.457
 20
13.4235
 30
0.0
 11
246.257
 21
13.4235
 31
0.0
  0
LINE
  8
0
 62
     0
 10
246.257
 20
13.4235
 30
0.0
 11
246.257
 21
16.5227
 31
0.0
  0
LINE
  8
0
 62
     0
 10
246.257
 20
16.5227
 30
0.0
 11
245.457
 21
16.5227
 31
0.0
  0
LINE
  8
0
 62
     0
 10
245.457
 20
16.5227
 30
0.0
 11
245.457
 21
22.3228
 31
0.0
  0
LINE
  8
0
 62
     0
 10
245.457
 20
22.3228
 30
0.0
 11
246.257
 21
22.3228
 31
0.0
  0
LINE
  8
0
 62
     0
 10
246.257
 20
22.3228
 30
0.0
 11
246.257
 21
25.4234
 31
0.0
  0
LINE
  8
0
 62
     0
 10
246.257
 20
25.4234
 30
0.0
 11
245.457
 21
25.4234
 31
0.0
  0
LINE
  8
0
 62
     0
 10
245.457
 20
25.4234
 30
0.0
 11
245.457
 21
26.4225
 31
0.0
  0
LINE
  8
0
 62
     0
 10
245.457
 20
26.4225
 30
0.0
 11
231.458
 21
26.4225
 31
0.0
  0
LINE
  8
0
 62
     0
 10
202.883
 20
26.4225
 30
0.0
 11
202.883
 21
25.4234
 31
0.0
  0
LINE
  8
0
 62
     0
 10
202.883
 20
25.4234
 30
0.0
 11
202.082
 21
25.4234
 31
0.0
  0
LINE
  8
0
 62
     0
 10
202.082
 20
25.4234
 30
0.0
 11
202.082
 21
22.3228
 31
0.0
  0
LINE
  8
0
 62
     0
 10
202.082
 20
22.3228
 30
0.0
 11
202.883
 21
22.3228
 31
0.0
  0
LINE
  8
0
 62
     0
 10
202.883
 20
22.3228
 30
0.0
 11
202.883
 21
16.5227
 31
0.0
  0
LINE
  8
0
 62
     0
 10
202.883
 20
16.5227
 30
0.0
 11
202.082
 21
16.5227
 31
0.0
  0
LINE
  8
0
 62
     0
 10
202.082
 20
16.5227
 30
0.0
 11
202.082
 21
13.4235
 31
0.0
  0
LINE
  8
0
 62
     0
 10
202.082
 20
13.4235
 30
0.0
 11
202.883
 21
13.4235
 31
0.0
  0
LINE
  8
0
 62
     0
 10
202.883
 20
13.4235
 30
0.0
 11
202.883
 21
12.423
 31
0.0
  0
LINE
  8
0
 62
     0
 10
202.883
 20
12.423
 30
0.0
 11
216.882
 21
12.423
 31
0.0
  0
LINE
  8
0
 62
     0
 10
216.882
 20
12.423
 30
0.0
 11
216.882
 21
13.4235
 31
0.0
  0
LINE
  8
0
 62
     0
 10
216.882
 20
13.4235
 30
0.0
 11
217.682
 21
13.4235
 31
0.0
  0
LINE
  8
0
 62
     0
 10
217.682
 20
13.4235
 30
0.0
 11
217.682
 21
16.5227
 31
0.0
  0
LINE
  8
0
 62
     0
 10
217.682
 20
16.5227
 30
0.0
 11
216.882
 21
16.5227
 31
0.0
  0
LINE
  8
0
 62
     0
 10
216.882
 20
16.5227
 30
0.0
 11
216.882
 21
22.3228
 31
0.0
  0
LINE
  8
0
 62
     0
 10
216.882
 20
22.3228
 30
0.0
 11
217.682
 21
22.3228
 31
0.0
  0
LINE
  8
0
 62
     0
 10
217.682
 20
22.3228
 30
0.0
 11
217.682
 21
25.4234
 31
0.0
  0
LINE
  8
0
 62
     0
 10
217.682
 20
25.4234
 30
0.0
 11
216.882
 21
25.4234
 31
0.0
  0
LINE
  8
0
 62
     0
 10
216.882
 20
25.4234
 30
0.0
 11
216.882
 21
26.4225
 31
0.0
  0
LINE
  8
0
 62
     0
 10
216.882
 20
26.4225
 30
0.0
 11
202.883
 21
26.4225
 31
0.0
  0
LINE
  8
0
 62
     0
 10
57.627
 20
26.4225
 30
0.0
 11
57.627
 21
25.4234
 31
0.0
  0
LINE
  8
0
 62
     0
 10
57.627
 20
25.4234
 30
0.0
 11
56.8262
 21
25.4234
 31
0.0
  0
LINE
  8
0
 62
     0
 10
56.8262
 20
25.4234
 30
0.0
 11
56.8262
 21
22.3228
 31
0.0
  0
LINE
  8
0
 62
     0
 10
56.8262
 20
22.3228
 30
0.0
 11
57.627
 21
22.3228
 31
0.0
  0
LINE
  8
0
 62
     0
 10
57.627
 20
22.3228
 30
0.0
 11
57.627
 21
16.5227
 31
0.0
  0
LINE
  8
0
 62
     0
 10
57.627
 20
16.5227
 30
0.0
 11
56.8262
 21
16.5227
 31
0.0
  0
LINE
  8
0
 62
     0
 10
56.8262
 20
16.5227
 30
0.0
 11
56.8262
 21
13.4235
 31
0.0
  0
LINE
  8
0
 62
     0
 10
56.8262
 20
13.4235
 30
0.0
 11
57.627
 21
13.4235
 31
0.0
  0
LINE
  8
0
 62
     0
 10
57.627
 20
13.4235
 30
0.0
 11
57.627
 21
12.423
 31
0.0
  0
LINE
  8
0
 62
     0
 10
57.627
 20
12.423
 30
0.0
 11
71.6262
 21
12.423
 31
0.0
  0
LINE
  8
0
 62
     0
 10
71.6262
 20
12.423
 30
0.0
 11
71.6262
 21
13.4235
 31
0.0
  0
LINE
  8
0
 62
     0
 10
71.6262
 20
13.4235
 30
0.0
 11
72.427
 21
13.4235
 31
0.0
  0
LINE
  8
0
 62
     0
 10
72.427
 20
13.4235
 30
0.0
 11
72.427
 21
16.5227
 31
0.0
  0
LINE
  8
0
 62
     0
 10
72.427
 20
16.5227
 30
0.0
 11
71.6262
 21
16.5227
 31
0.0
  0
LINE
  8
0
 62
     0
 10
71.6262
 20
16.5227
 30
0.0
 11
71.6262
 21
22.3228
 31
0.0
  0
LINE
  8
0
 62
     0
 10
71.6262
 20
22.3228
 30
0.0
 11
72.427
 21
22.3228
 31
0.0
  0
LINE
  8
0
 62
     0
 10
72.427
 20
22.3228
 30
0.0
 11
72.427
 21
25.4234
 31
0.0
  0
LINE
  8
0
 62
     0
 10
72.427
 20
25.4234
 30
0.0
 11
71.6262
 21
25.4234
 31
0.0
  0
LINE
  8
0
 62
     0
 10
71.6262
 20
25.4234
 30
0.0
 11
71.6262
 21
26.4225
 31
0.0
  0
LINE
  8
0
 62
     0
 10
71.6262
 20
26.4225
 30
0.0
 11
57.627
 21
26.4225
 31
0.0
  0
LINE
  8
0
 62
     0
 10
33.8129
 20
26.4225
 30
0.0
 11
33.8129
 21
25.4234
 31
0.0
  0
LINE
  8
0
 62
     0
 10
33.8129
 20
25.4234
 30
0.0
 11
33.0137
 21
25.4234
 31
0.0
  0
LINE
  8
0
 62
     0
 10
33.0137
 20
25.4234
 30
0.0
 11
33.0137
 21
22.3228
 31
0.0
  0
LINE
  8
0
 62
     0
 10
33.0137
 20
22.3228
 30
0.0
 11
33.8129
 21
22.3228
 31
0.0
  0
LINE
  8
0
 62
     0
 10
33.8129
 20
22.3228
 30
0.0
 11
33.8129
 21
16.5227
 31
0.0
  0
LINE
  8
0
 62
     0
 10
33.8129
 20
16.5227
 30
0.0
 11
33.0137
 21
16.5227
 31
0.0
  0
LINE
  8
0
 62
     0
 10
33.0137
 20
16.5227
 30
0.0
 11
33.0137
 21
13.4235
 31
0.0
  0
LINE
  8
0
 62
     0
 10
33.0137
 20
13.4235
 30
0.0
 11
33.8129
 21
13.4235
 31
0.0
  0
LINE
  8
0
 62
     0
 10
33.8129
 20
13.4235
 30
0.0
 11
33.8129
 21
12.423
 31
0.0
  0
LINE
  8
0
 62
     0
 10
33.8129
 20
12.423
 30
0.0
 11
47.8137
 21
12.423
 31
0.0
  0
LINE
  8
0
 62
     0
 10
47.8137
 20
12.423
 30
0.0
 11
47.8137
 21
13.4235
 31
0.0
  0
LINE
  8
0
 62
     0
 10
47.8137
 20
13.4235
 30
0.0
 11
48.6131
 21
13.4235
 31
0.0
  0
LINE
  8
0
 62
     0
 10
48.6131
 20
13.4235
 30
0.0
 11
48.6131
 21
16.5227
 31
0.0
  0
LINE
  8
0
 62
     0
 10
48.6131
 20
16.5227
 30
0.0
 11
47.8137
 21
16.5227
 31
0.0
  0
LINE
  8
0
 62
     0
 10
47.8137
 20
16.5227
 30
0.0
 11
47.8137
 21
22.3228
 31
0.0
  0
LINE
  8
0
 62
     0
 10
47.8137
 20
22.3228
 30
0.0
 11
48.6131
 21
22.3228
 31
0.0
  0
LINE
  8
0
 62
     0
 10
48.6131
 20
22.3228
 30
0.0
 11
48.6131
 21
25.4234
 31
0.0
  0
LINE
  8
0
 62
     0
 10
48.6131
 20
25.4234
 30
0.0
 11
47.8137
 21
25.4234
 31
0.0
  0
LINE
  8
0
 62
     0
 10
47.8137
 20
25.4234
 30
0.0
 11
47.8137
 21
26.4225
 31
0.0
  0
LINE
  8
0
 62
     0
 10
47.8137
 20
26.4225
 30
0.0
 11
33.8129
 21
26.4225
 31
0.0
  0
LINE
  8
0
 62
     0
 10
10.0018
 20
26.4225
 30
0.0
 11
10.0018
 21
25.4234
 31
0.0
  0
LINE
  8
0
 62
     0
 10
10.0018
 20
25.4234
 30
0.0
 11
9.20115
 21
25.4234
 31
0.0
  0
LINE
  8
0
 62
     0
 10
9.20115
 20
25.4234
 30
0.0
 11
9.20115
 21
22.3228
 31
0.0
  0
LINE
  8
0
 62
     0
 10
9.20115
 20
22.3228
 30
0.0
 11
10.0018
 21
22.3228
 31
0.0
  0
LINE
  8
0
 62
     0
 10
10.0018
 20
22.3228
 30
0.0
 11
10.0018
 21
16.5227
 31
0.0
  0
LINE
  8
0
 62
     0
 10
10.0018
 20
16.5227
 30
0.0
 11
9.20115
 21
16.5227
 31
0.0
  0
LINE
  8
0
 62
     0
 10
9.20115
 20
16.5227
 30
0.0
 11
9.20115
 21
13.4235
 31
0.0
  0
LINE
  8
0
 62
     0
 10
9.20115
 20
13.4235
 30
0.0
 11
10.0018
 21
13.4235
 31
0.0
  0
LINE
  8
0
 62
     0
 10
10.0018
 20
13.4235
 30
0.0
 11
10.0018
 21
12.423
 31
0.0
  0
LINE
  8
0
 62
     0
 10
10.0018
 20
12.423
 30
0.0
 11
24.0013
 21
12.423
 31
0.0
  0
LINE
  8
0
 62
     0
 10
24.0013
 20
12.423
 30
0.0
 11
24.0013
 21
13.4235
 31
0.0
  0
LINE
  8
0
 62
     0
 10
24.0013
 20
13.4235
 30
0.0
 11
24.8019
 21
13.4235
 31
0.0
  0
LINE
  8
0
 62
     0
 10
24.8019
 20
13.4235
 30
0.0
 11
24.8019
 21
16.5227
 31
0.0
  0
LINE
  8
0
 62
     0
 10
24.8019
 20
16.5227
 30
0.0
 11
24.0013
 21
16.5227
 31
0.0
  0
LINE
  8
0
 62
     0
 10
24.0013
 20
16.5227
 30
0.0
 11
24.0013
 21
22.3228
 31
0.0
  0
LINE
  8
0
 62
     0
 10
24.0013
 20
22.3228
 30
0.0
 11
24.8019
 21
22.3228
 31
0.0
  0
LINE
  8
0
 62
     0
 10
24.8019
 20
22.3228
 30
0.0
 11
24.8019
 21
25.4234
 31
0.0
  0
LINE
  8
0
 62
     0
 10
24.8019
 20
25.4234
 30
0.0
 11
24.0013
 21
25.4234
 31
0.0
  0
LINE
  8
0
 62
     0
 10
24.0013
 20
25.4234
 30
0.0
 11
24.0013
 21
26.4225
 31
0.0
  0
LINE
  8
0
 62
     0
 10
24.0013
 20
26.4225
 30
0.0
 11
10.0018
 21
26.4225
 31
0.0
  0
LINE
  8
0
 62
     0
 10
279.083
 20
40.7099
 30
0.0
 11
279.083
 21
39.7097
 31
0.0
  0
LINE
  8
0
 62
     0
 10
279.083
 20
39.7097
 30
0.0
 11
278.282
 21
39.7097
 31
0.0
  0
LINE
  8
0
 62
     0
 10
278.282
 20
39.7097
 30
0.0
 11
278.282
 21
36.6102
 31
0.0
  0
LINE
  8
0
 62
     0
 10
278.282
 20
36.6102
 30
0.0
 11
279.083
 21
36.6102
 31
0.0
  0
LINE
  8
0
 62
     0
 10
279.083
 20
36.6102
 30
0.0
 11
279.083
 21
30.8102
 31
0.0
  0
LINE
  8
0
 62
     0
 10
279.083
 20
30.8102
 30
0.0
 11
278.282
 21
30.8102
 31
0.0
  0
LINE
  8
0
 62
     0
 10
278.282
 20
30.8102
 30
0.0
 11
278.282
 21
27.7096
 31
0.0
  0
LINE
  8
0
 62
     0
 10
278.282
 20
27.7096
 30
0.0
 11
279.083
 21
27.7096
 31
0.0
  0
LINE
  8
0
 62
     0
 10
279.083
 20
27.7096
 30
0.0
 11
279.083
 21
26.7105
 31
0.0
  0
LINE
  8
0
 62
     0
 10
279.083
 20
26.7105
 30
0.0
 11
293.082
 21
26.7105
 31
0.0
  0
LINE
  8
0
 62
     0
 10
293.082
 20
26.7105
 30
0.0
 11
293.082
 21
27.7096
 31
0.0
  0
LINE
  8
0
 62
     0
 10
293.082
 20
27.7096
 30
0.0
 11
293.882
 21
27.7096
 31
0.0
  0
LINE
  8
0
 62
     0
 10
293.882
 20
27.7096
 30
0.0
 11
293.882
 21
30.8102
 31
0.0
  0
LINE
  8
0
 62
     0
 10
293.882
 20
30.8102
 30
0.0
 11
293.082
 21
30.8102
 31
0.0
  0
LINE
  8
0
 62
     0
 10
293.082
 20
30.8102
 30
0.0
 11
293.082
 21
36.6102
 31
0.0
  0
LINE
  8
0
 62
     0
 10
293.082
 20
36.6102
 30
0.0
 11
293.882
 21
36.6102
 31
0.0
  0
LINE
  8
0
 62
     0
 10
293.882
 20
36.6102
 30
0.0
 11
293.882
 21
39.7097
 31
0.0
  0
LINE
  8
0
 62
     0
 10
293.882
 20
39.7097
 30
0.0
 11
293.082
 21
39.7097
 31
0.0
  0
LINE
  8
0
 62
     0
 10
293.082
 20
39.7097
 30
0.0
 11
293.082
 21
40.7099
 31
0.0
  0
LINE
  8
0
 62
     0
 10
293.082
 20
40.7099
 30
0.0
 11
279.083
 21
40.7099
 31
0.0
  0
LINE
  8
0
 62
     0
 10
19.5268
 20
45.4723
 30
0.0
 11
19.5268
 21
44.4733
 31
0.0
  0
LINE
  8
0
 62
     0
 10
19.5268
 20
44.4733
 30
0.0
 11
18.7262
 21
44.4733
 31
0.0
  0
LINE
  8
0
 62
     0
 10
18.7262
 20
44.4733
 30
0.0
 11
18.7262
 21
41.3727
 31
0.0
  0
LINE
  8
0
 62
     0
 10
18.7262
 20
41.3727
 30
0.0
 11
19.5268
 21
41.3727
 31
0.0
  0
LINE
  8
0
 62
     0
 10
19.5268
 20
41.3727
 30
0.0
 11
19.5268
 21
40.7734
 31
0.0
  0
LINE
  8
0
 62
     0
 10
19.5268
 20
40.7734
 30
0.0
 11
18.0013
 21
40.7734
 31
0.0
  0
LINE
  8
0
 62
     0
 10
18.0013
 20
40.7734
 30
0.0
 11
18.0013
 21
44.0034
 31
0.0
  0
LINE
  8
0
 62
     0
 10
18.0013
 20
44.0034
 30
0.0
 11
16.276
 21
44.0034
 31
0.0
  0
LINE
  8
0
 62
     0
 10
16.276
 20
44.0034
 30
0.0
 11
16.276
 21
44.9227
 31
0.0
  0
LINE
  8
0
 62
     0
 10
16.276
 20
44.9227
 30
0.0
 11
12.977
 21
44.9227
 31
0.0
  0
LINE
  8
0
 62
     0
 10
12.977
 20
44.9227
 30
0.0
 11
12.977
 21
44.0034
 31
0.0
  0
LINE
  8
0
 62
     0
 10
12.977
 20
44.0034
 30
0.0
 11
11.2503
 21
44.0034
 31
0.0
  0
LINE
  8
0
 62
     0
 10
11.2503
 20
44.0034
 30
0.0
 11
11.2503
 21
40.7734
 31
0.0
  0
LINE
  8
0
 62
     0
 10
11.2503
 20
40.7734
 30
0.0
 11
10.4262
 21
40.7734
 31
0.0
  0
LINE
  8
0
 62
     0
 10
10.4262
 20
40.7734
 30
0.0
 11
10.4262
 21
37.9734
 31
0.0
  0
LINE
  8
0
 62
     0
 10
10.4262
 20
37.9734
 30
0.0
 11
11.2503
 21
37.9734
 31
0.0
  0
LINE
  8
0
 62
     0
 10
11.2503
 20
37.9734
 30
0.0
 11
11.2503
 21
31.7032
 31
0.0
  0
LINE
  8
0
 62
     0
 10
11.2503
 20
31.7032
 30
0.0
 11
12.977
 21
31.7032
 31
0.0
  0
LINE
  8
0
 62
     0
 10
12.977
 20
31.7032
 30
0.0
 11
12.977
 21
30.7233
 31
0.0
  0
LINE
  8
0
 62
     0
 10
12.977
 20
30.7233
 30
0.0
 11
16.276
 21
30.7233
 31
0.0
  0
LINE
  8
0
 62
     0
 10
16.276
 20
30.7233
 30
0.0
 11
16.276
 21
31.7032
 31
0.0
  0
LINE
  8
0
 62
     0
 10
16.276
 20
31.7032
 30
0.0
 11
18.0013
 21
31.7032
 31
0.0
  0
LINE
  8
0
 62
     0
 10
18.0013
 20
31.7032
 30
0.0
 11
18.0013
 21
36.1735
 31
0.0
  0
LINE
  8
0
 62
     0
 10
18.0013
 20
36.1735
 30
0.0
 11
19.5268
 21
36.1735
 31
0.0
  0
LINE
  8
0
 62
     0
 10
19.5268
 20
36.1735
 30
0.0
 11
19.5268
 21
35.5727
 31
0.0
  0
LINE
  8
0
 62
     0
 10
19.5268
 20
35.5727
 30
0.0
 11
18.7262
 21
35.5727
 31
0.0
  0
LINE
  8
0
 62
     0
 10
18.7262
 20
35.5727
 30
0.0
 11
18.7262
 21
32.4735
 31
0.0
  0
LINE
  8
0
 62
     0
 10
18.7262
 20
32.4735
 30
0.0
 11
19.5268
 21
32.4735
 31
0.0
  0
LINE
  8
0
 62
     0
 10
19.5268
 20
32.4735
 30
0.0
 11
19.5268
 21
31.473
 31
0.0
  0
LINE
  8
0
 62
     0
 10
19.5268
 20
31.473
 30
0.0
 11
33.5263
 21
31.473
 31
0.0
  0
LINE
  8
0
 62
     0
 10
33.5263
 20
31.473
 30
0.0
 11
33.5263
 21
32.4735
 31
0.0
  0
LINE
  8
0
 62
     0
 10
33.5263
 20
32.4735
 30
0.0
 11
34.3269
 21
32.4735
 31
0.0
  0
LINE
  8
0
 62
     0
 10
34.3269
 20
32.4735
 30
0.0
 11
34.3269
 21
35.5727
 31
0.0
  0
LINE
  8
0
 62
     0
 10
34.3269
 20
35.5727
 30
0.0
 11
33.5263
 21
35.5727
 31
0.0
  0
LINE
  8
0
 62
     0
 10
33.5263
 20
35.5727
 30
0.0
 11
33.5263
 21
36.1735
 31
0.0
  0
LINE
  8
0
 62
     0
 10
33.5263
 20
36.1735
 30
0.0
 11
35.0518
 21
36.1735
 31
0.0
  0
LINE
  8
0
 62
     0
 10
35.0518
 20
36.1735
 30
0.0
 11
35.0518
 21
31.7032
 31
0.0
  0
LINE
  8
0
 62
     0
 10
35.0518
 20
31.7032
 30
0.0
 11
36.7771
 21
31.7032
 31
0.0
  0
LINE
  8
0
 62
     0
 10
36.7771
 20
31.7032
 30
0.0
 11
36.7771
 21
30.7233
 31
0.0
  0
LINE
  8
0
 62
     0
 10
36.7771
 20
30.7233
 30
0.0
 11
40.0763
 21
30.7233
 31
0.0
  0
LINE
  8
0
 62
     0
 10
40.0763
 20
30.7233
 30
0.0
 11
40.0763
 21
31.7032
 31
0.0
  0
LINE
  8
0
 62
     0
 10
40.0763
 20
31.7032
 30
0.0
 11
41.8013
 21
31.7032
 31
0.0
  0
LINE
  8
0
 62
     0
 10
41.8013
 20
31.7032
 30
0.0
 11
41.8013
 21
37.9734
 31
0.0
  0
LINE
  8
0
 62
     0
 10
41.8013
 20
37.9734
 30
0.0
 11
42.6268
 21
37.9734
 31
0.0
  0
LINE
  8
0
 62
     0
 10
42.6268
 20
37.9734
 30
0.0
 11
42.6268
 21
40.7734
 31
0.0
  0
LINE
  8
0
 62
     0
 10
42.6268
 20
40.7734
 30
0.0
 11
41.8013
 21
40.7734
 31
0.0
  0
LINE
  8
0
 62
     0
 10
41.8013
 20
40.7734
 30
0.0
 11
41.8013
 21
44.0034
 31
0.0
  0
LINE
  8
0
 62
     0
 10
41.8013
 20
44.0034
 30
0.0
 11
40.0763
 21
44.0034
 31
0.0
  0
LINE
  8
0
 62
     0
 10
40.0763
 20
44.0034
 30
0.0
 11
40.0763
 21
44.9227
 31
0.0
  0
LINE
  8
0
 62
     0
 10
40.0763
 20
44.9227
 30
0.0
 11
36.7771
 21
44.9227
 31
0.0
  0
LINE
  8
0
 62
     0
 10
36.7771
 20
44.9227
 30
0.0
 11
36.7771
 21
44.0034
 31
0.0
  0
LINE
  8
0
 62
     0
 10
36.7771
 20
44.0034
 30
0.0
 11
35.0518
 21
44.0034
 31
0.0
  0
LINE
  8
0
 62
     0
 10
35.0518
 20
44.0034
 30
0.0
 11
35.0518
 21
40.7734
 31
0.0
  0
LINE
  8
0
 62
     0
 10
35.0518
 20
40.7734
 30
0.0
 11
33.5263
 21
40.7734
 31
0.0
  0
LINE
  8
0
 62
     0
 10
33.5263
 20
40.7734
 30
0.0
 11
33.5263
 21
41.3727
 31
0.0
  0
LINE
  8
0
 62
     0
 10
33.5263
 20
41.3727
 30
0.0
 11
34.3269
 21
41.3727
 31
0.0
  0
LINE
  8
0
 62
     0
 10
34.3269
 20
41.3727
 30
0.0
 11
34.3269
 21
44.4733
 31
0.0
  0
LINE
  8
0
 62
     0
 10
34.3269
 20
44.4733
 30
0.0
 11
33.5263
 21
44.4733
 31
0.0
  0
LINE
  8
0
 62
     0
 10
33.5263
 20
44.4733
 30
0.0
 11
33.5263
 21
45.4723
 31
0.0
  0
LINE
  8
0
 62
     0
 10
33.5263
 20
45.4723
 30
0.0
 11
19.5268
 21
45.4723
 31
0.0
  0
LINE
  8
0
 62
     0
 10
248.127
 20
45.4723
 30
0.0
 11
248.127
 21
44.4733
 31
0.0
  0
LINE
  8
0
 62
     0
 10
248.127
 20
44.4733
 30
0.0
 11
247.326
 21
44.4733
 31
0.0
  0
LINE
  8
0
 62
     0
 10
247.326
 20
44.4733
 30
0.0
 11
247.326
 21
41.3727
 31
0.0
  0
LINE
  8
0
 62
     0
 10
247.326
 20
41.3727
 30
0.0
 11
248.127
 21
41.3727
 31
0.0
  0
LINE
  8
0
 62
     0
 10
248.127
 20
41.3727
 30
0.0
 11
248.127
 21
35.5727
 31
0.0
  0
LINE
  8
0
 62
     0
 10
248.127
 20
35.5727
 30
0.0
 11
247.326
 21
35.5727
 31
0.0
  0
LINE
  8
0
 62
     0
 10
247.326
 20
35.5727
 30
0.0
 11
247.326
 21
32.4735
 31
0.0
  0
LINE
  8
0
 62
     0
 10
247.326
 20
32.4735
 30
0.0
 11
248.127
 21
32.4735
 31
0.0
  0
LINE
  8
0
 62
     0
 10
248.127
 20
32.4735
 30
0.0
 11
248.127
 21
31.473
 31
0.0
  0
LINE
  8
0
 62
     0
 10
248.127
 20
31.473
 30
0.0
 11
262.126
 21
31.473
 31
0.0
  0
LINE
  8
0
 62
     0
 10
262.126
 20
31.473
 30
0.0
 11
262.126
 21
32.4735
 31
0.0
  0
LINE
  8
0
 62
     0
 10
262.126
 20
32.4735
 30
0.0
 11
262.927
 21
32.4735
 31
0.0
  0
LINE
  8
0
 62
     0
 10
262.927
 20
32.4735
 30
0.0
 11
262.927
 21
35.5727
 31
0.0
  0
LINE
  8
0
 62
     0
 10
262.927
 20
35.5727
 30
0.0
 11
262.126
 21
35.5727
 31
0.0
  0
LINE
  8
0
 62
     0
 10
262.126
 20
35.5727
 30
0.0
 11
262.126
 21
41.3727
 31
0.0
  0
LINE
  8
0
 62
     0
 10
262.126
 20
41.3727
 30
0.0
 11
262.927
 21
41.3727
 31
0.0
  0
LINE
  8
0
 62
     0
 10
262.927
 20
41.3727
 30
0.0
 11
262.927
 21
44.4733
 31
0.0
  0
LINE
  8
0
 62
     0
 10
262.927
 20
44.4733
 30
0.0
 11
262.126
 21
44.4733
 31
0.0
  0
LINE
  8
0
 62
     0
 10
262.126
 20
44.4733
 30
0.0
 11
262.126
 21
45.4723
 31
0.0
  0
LINE
  8
0
 62
     0
 10
262.126
 20
45.4723
 30
0.0
 11
248.127
 21
45.4723
 31
0.0
  0
LINE
  8
0
 62
     0
 10
221.933
 20
45.4723
 30
0.0
 11
221.933
 21
44.4733
 31
0.0
  0
LINE
  8
0
 62
     0
 10
221.933
 20
44.4733
 30
0.0
 11
221.132
 21
44.4733
 31
0.0
  0
LINE
  8
0
 62
     0
 10
221.132
 20
44.4733
 30
0.0
 11
221.132
 21
41.3727
 31
0.0
  0
LINE
  8
0
 62
     0
 10
221.132
 20
41.3727
 30
0.0
 11
221.933
 21
41.3727
 31
0.0
  0
LINE
  8
0
 62
     0
 10
221.933
 20
41.3727
 30
0.0
 11
221.933
 21
35.5727
 31
0.0
  0
LINE
  8
0
 62
     0
 10
221.933
 20
35.5727
 30
0.0
 11
221.132
 21
35.5727
 31
0.0
  0
LINE
  8
0
 62
     0
 10
221.132
 20
35.5727
 30
0.0
 11
221.132
 21
32.4735
 31
0.0
  0
LINE
  8
0
 62
     0
 10
221.132
 20
32.4735
 30
0.0
 11
221.933
 21
32.4735
 31
0.0
  0
LINE
  8
0
 62
     0
 10
221.933
 20
32.4735
 30
0.0
 11
221.933
 21
31.473
 31
0.0
  0
LINE
  8
0
 62
     0
 10
221.933
 20
31.473
 30
0.0
 11
235.932
 21
31.473
 31
0.0
  0
LINE
  8
0
 62
     0
 10
235.932
 20
31.473
 30
0.0
 11
235.932
 21
32.4735
 31
0.0
  0
LINE
  8
0
 62
     0
 10
235.932
 20
32.4735
 30
0.0
 11
236.732
 21
32.4735
 31
0.0
  0
LINE
  8
0
 62
     0
 10
236.732
 20
32.4735
 30
0.0
 11
236.732
 21
35.5727
 31
0.0
  0
LINE
  8
0
 62
     0
 10
236.732
 20
35.5727
 30
0.0
 11
235.932
 21
35.5727
 31
0.0
  0
LINE
  8
0
 62
     0
 10
235.932
 20
35.5727
 30
0.0
 11
235.932
 21
41.3727
 31
0.0
  0
LINE
  8
0
 62
     0
 10
235.932
 20
41.3727
 30
0.0
 11
236.732
 21
41.3727
 31
0.0
  0
LINE
  8
0
 62
     0
 10
236.732
 20
41.3727
 30
0.0
 11
236.732
 21
44.4733
 31
0.0
  0
LINE
  8
0
 62
     0
 10
236.732
 20
44.4733
 30
0.0
 11
235.932
 21
44.4733
 31
0.0
  0
LINE
  8
0
 62
     0
 10
235.932
 20
44.4733
 30
0.0
 11
235.932
 21
45.4723
 31
0.0
  0
LINE
  8
0
 62
     0
 10
235.932
 20
45.4723
 30
0.0
 11
221.933
 21
45.4723
 31
0.0
  0
LINE
  8
0
 62
     0
 10
202.883
 20
45.4723
 30
0.0
 11
202.883
 21
44.4733
 31
0.0
  0
LINE
  8
0
 62
     0
 10
202.883
 20
44.4733
 30
0.0
 11
202.082
 21
44.4733
 31
0.0
  0
LINE
  8
0
 62
     0
 10
202.082
 20
44.4733
 30
0.0
 11
202.082
 21
41.3727
 31
0.0
  0
LINE
  8
0
 62
     0
 10
202.082
 20
41.3727
 30
0.0
 11
202.883
 21
41.3727
 31
0.0
  0
LINE
  8
0
 62
     0
 10
202.883
 20
41.3727
 30
0.0
 11
202.883
 21
35.5727
 31
0.0
  0
LINE
  8
0
 62
     0
 10
202.883
 20
35.5727
 30
0.0
 11
202.082
 21
35.5727
 31
0.0
  0
LINE
  8
0
 62
     0
 10
202.082
 20
35.5727
 30
0.0
 11
202.082
 21
32.4735
 31
0.0
  0
LINE
  8
0
 62
     0
 10
202.082
 20
32.4735
 30
0.0
 11
202.883
 21
32.4735
 31
0.0
  0
LINE
  8
0
 62
     0
 10
202.883
 20
32.4735
 30
0.0
 11
202.883
 21
31.473
 31
0.0
  0
LINE
  8
0
 62
     0
 10
202.883
 20
31.473
 30
0.0
 11
216.882
 21
31.473
 31
0.0
  0
LINE
  8
0
 62
     0
 10
216.882
 20
31.473
 30
0.0
 11
216.882
 21
32.4735
 31
0.0
  0
LINE
  8
0
 62
     0
 10
216.882
 20
32.4735
 30
0.0
 11
217.682
 21
32.4735
 31
0.0
  0
LINE
  8
0
 62
     0
 10
217.682
 20
32.4735
 30
0.0
 11
217.682
 21
35.5727
 31
0.0
  0
LINE
  8
0
 62
     0
 10
217.682
 20
35.5727
 30
0.0
 11
216.882
 21
35.5727
 31
0.0
  0
LINE
  8
0
 62
     0
 10
216.882
 20
35.5727
 30
0.0
 11
216.882
 21
41.3727
 31
0.0
  0
LINE
  8
0
 62
     0
 10
216.882
 20
41.3727
 30
0.0
 11
217.682
 21
41.3727
 31
0.0
  0
LINE
  8
0
 62
     0
 10
217.682
 20
41.3727
 30
0.0
 11
217.682
 21
44.4733
 31
0.0
  0
LINE
  8
0
 62
     0
 10
217.682
 20
44.4733
 30
0.0
 11
216.882
 21
44.4733
 31
0.0
  0
LINE
  8
0
 62
     0
 10
216.882
 20
44.4733
 30
0.0
 11
216.882
 21
45.4723
 31
0.0
  0
LINE
  8
0
 62
     0
 10
216.882
 20
45.4723
 30
0.0
 11
202.883
 21
45.4723
 31
0.0
  0
LINE
  8
0
 62
     0
 10
183.833
 20
45.4723
 30
0.0
 11
183.833
 21
44.4733
 31
0.0
  0
LINE
  8
0
 62
     0
 10
183.833
 20
44.4733
 30
0.0
 11
183.032
 21
44.4733
 31
0.0
  0
LINE
  8
0
 62
     0
 10
183.032
 20
44.4733
 30
0.0
 11
183.032
 21
41.3727
 31
0.0
  0
LINE
  8
0
 62
     0
 10
183.032
 20
41.3727
 30
0.0
 11
183.833
 21
41.3727
 31
0.0
  0
LINE
  8
0
 62
     0
 10
183.833
 20
41.3727
 30
0.0
 11
183.833
 21
35.5727
 31
0.0
  0
LINE
  8
0
 62
     0
 10
183.833
 20
35.5727
 30
0.0
 11
183.032
 21
35.5727
 31
0.0
  0
LINE
  8
0
 62
     0
 10
183.032
 20
35.5727
 30
0.0
 11
183.032
 21
32.4735
 31
0.0
  0
LINE
  8
0
 62
     0
 10
183.032
 20
32.4735
 30
0.0
 11
183.833
 21
32.4735
 31
0.0
  0
LINE
  8
0
 62
     0
 10
183.833
 20
32.4735
 30
0.0
 11
183.833
 21
31.473
 31
0.0
  0
LINE
  8
0
 62
     0
 10
183.833
 20
31.473
 30
0.0
 11
197.832
 21
31.473
 31
0.0
  0
LINE
  8
0
 62
     0
 10
197.832
 20
31.473
 30
0.0
 11
197.832
 21
32.4735
 31
0.0
  0
LINE
  8
0
 62
     0
 10
197.832
 20
32.4735
 30
0.0
 11
198.632
 21
32.4735
 31
0.0
  0
LINE
  8
0
 62
     0
 10
198.632
 20
32.4735
 30
0.0
 11
198.632
 21
35.5727
 31
0.0
  0
LINE
  8
0
 62
     0
 10
198.632
 20
35.5727
 30
0.0
 11
197.832
 21
35.5727
 31
0.0
  0
LINE
  8
0
 62
     0
 10
197.832
 20
35.5727
 30
0.0
 11
197.832
 21
41.3727
 31
0.0
  0
LINE
  8
0
 62
     0
 10
197.832
 20
41.3727
 30
0.0
 11
198.632
 21
41.3727
 31
0.0
  0
LINE
  8
0
 62
     0
 10
198.632
 20
41.3727
 30
0.0
 11
198.632
 21
44.4733
 31
0.0
  0
LINE
  8
0
 62
     0
 10
198.632
 20
44.4733
 30
0.0
 11
197.832
 21
44.4733
 31
0.0
  0
LINE
  8
0
 62
     0
 10
197.832
 20
44.4733
 30
0.0
 11
197.832
 21
45.4723
 31
0.0
  0
LINE
  8
0
 62
     0
 10
197.832
 20
45.4723
 30
0.0
 11
183.833
 21
45.4723
 31
0.0
  0
LINE
  8
0
 62
     0
 10
164.783
 20
45.4723
 30
0.0
 11
164.783
 21
44.4733
 31
0.0
  0
LINE
  8
0
 62
     0
 10
164.783
 20
44.4733
 30
0.0
 11
163.982
 21
44.4733
 31
0.0
  0
LINE
  8
0
 62
     0
 10
163.982
 20
44.4733
 30
0.0
 11
163.982
 21
41.3727
 31
0.0
  0
LINE
  8
0
 62
     0
 10
163.982
 20
41.3727
 30
0.0
 11
164.783
 21
41.3727
 31
0.0
  0
LINE
  8
0
 62
     0
 10
164.783
 20
41.3727
 30
0.0
 11
164.783
 21
35.5727
 31
0.0
  0
LINE
  8
0
 62
     0
 10
164.783
 20
35.5727
 30
0.0
 11
163.982
 21
35.5727
 31
0.0
  0
LINE
  8
0
 62
     0
 10
163.982
 20
35.5727
 30
0.0
 11
163.982
 21
32.4735
 31
0.0
  0
LINE
  8
0
 62
     0
 10
163.982
 20
32.4735
 30
0.0
 11
164.783
 21
32.4735
 31
0.0
  0
LINE
  8
0
 62
     0
 10
164.783
 20
32.4735
 30
0.0
 11
164.783
 21
31.473
 31
0.0
  0
LINE
  8
0
 62
     0
 10
164.783
 20
31.473
 30
0.0
 11
178.782
 21
31.473
 31
0.0
  0
LINE
  8
0
 62
     0
 10
178.782
 20
31.473
 30
0.0
 11
178.782
 21
32.4735
 31
0.0
  0
LINE
  8
0
 62
     0
 10
178.782
 20
32.4735
 30
0.0
 11
179.582
 21
32.4735
 31
0.0
  0
LINE
  8
0
 62
     0
 10
179.582
 20
32.4735
 30
0.0
 11
179.582
 21
35.5727
 31
0.0
  0
LINE
  8
0
 62
     0
 10
179.582
 20
35.5727
 30
0.0
 11
178.782
 21
35.5727
 31
0.0
  0
LINE
  8
0
 62
     0
 10
178.782
 20
35.5727
 30
0.0
 11
178.782
 21
41.3727
 31
0.0
  0
LINE
  8
0
 62
     0
 10
178.782
 20
41.3727
 30
0.0
 11
179.582
 21
41.3727
 31
0.0
  0
LINE
  8
0
 62
     0
 10
179.582
 20
41.3727
 30
0.0
 11
179.582
 21
44.4733
 31
0.0
  0
LINE
  8
0
 62
     0
 10
179.582
 20
44.4733
 30
0.0
 11
178.782
 21
44.4733
 31
0.0
  0
LINE
  8
0
 62
     0
 10
178.782
 20
44.4733
 30
0.0
 11
178.782
 21
45.4723
 31
0.0
  0
LINE
  8
0
 62
     0
 10
178.782
 20
45.4723
 30
0.0
 11
164.783
 21
45.4723
 31
0.0
  0
LINE
  8
0
 62
     0
 10
145.733
 20
45.4723
 30
0.0
 11
145.733
 21
44.4733
 31
0.0
  0
LINE
  8
0
 62
     0
 10
145.733
 20
44.4733
 30
0.0
 11
144.932
 21
44.4733
 31
0.0
  0
LINE
  8
0
 62
     0
 10
144.932
 20
44.4733
 30
0.0
 11
144.932
 21
41.3727
 31
0.0
  0
LINE
  8
0
 62
     0
 10
144.932
 20
41.3727
 30
0.0
 11
145.733
 21
41.3727
 31
0.0
  0
LINE
  8
0
 62
     0
 10
145.733
 20
41.3727
 30
0.0
 11
145.733
 21
35.5727
 31
0.0
  0
LINE
  8
0
 62
     0
 10
145.733
 20
35.5727
 30
0.0
 11
144.932
 21
35.5727
 31
0.0
  0
LINE
  8
0
 62
     0
 10
144.932
 20
35.5727
 30
0.0
 11
144.932
 21
32.4735
 31
0.0
  0
LINE
  8
0
 62
     0
 10
144.932
 20
32.4735
 30
0.0
 11
145.733
 21
32.4735
 31
0.0
  0
LINE
  8
0
 62
     0
 10
145.733
 20
32.4735
 30
0.0
 11
145.733
 21
31.473
 31
0.0
  0
LINE
  8
0
 62
     0
 10
145.733
 20
31.473
 30
0.0
 11
159.732
 21
31.473
 31
0.0
  0
LINE
  8
0
 62
     0
 10
159.732
 20
31.473
 30
0.0
 11
159.732
 21
32.4735
 31
0.0
  0
LINE
  8
0
 62
     0
 10
159.732
 20
32.4735
 30
0.0
 11
160.532
 21
32.4735
 31
0.0
  0
LINE
  8
0
 62
     0
 10
160.532
 20
32.4735
 30
0.0
 11
160.532
 21
35.5727
 31
0.0
  0
LINE
  8
0
 62
     0
 10
160.532
 20
35.5727
 30
0.0
 11
159.732
 21
35.5727
 31
0.0
  0
LINE
  8
0
 62
     0
 10
159.732
 20
35.5727
 30
0.0
 11
159.732
 21
41.3727
 31
0.0
  0
LINE
  8
0
 62
     0
 10
159.732
 20
41.3727
 30
0.0
 11
160.532
 21
41.3727
 31
0.0
  0
LINE
  8
0
 62
     0
 10
160.532
 20
41.3727
 30
0.0
 11
160.532
 21
44.4733
 31
0.0
  0
LINE
  8
0
 62
     0
 10
160.532
 20
44.4733
 30
0.0
 11
159.732
 21
44.4733
 31
0.0
  0
LINE
  8
0
 62
     0
 10
159.732
 20
44.4733
 30
0.0
 11
159.732
 21
45.4723
 31
0.0
  0
LINE
  8
0
 62
     0
 10
159.732
 20
45.4723
 30
0.0
 11
145.733
 21
45.4723
 31
0.0
  0
LINE
  8
0
 62
     0
 10
126.683
 20
45.4723
 30
0.0
 11
126.683
 21
44.4733
 31
0.0
  0
LINE
  8
0
 62
     0
 10
126.683
 20
44.4733
 30
0.0
 11
125.882
 21
44.4733
 31
0.0
  0
LINE
  8
0
 62
     0
 10
125.882
 20
44.4733
 30
0.0
 11
125.882
 21
41.3727
 31
0.0
  0
LINE
  8
0
 62
     0
 10
125.882
 20
41.3727
 30
0.0
 11
126.683
 21
41.3727
 31
0.0
  0
LINE
  8
0
 62
     0
 10
126.683
 20
41.3727
 30
0.0
 11
126.683
 21
35.5727
 31
0.0
  0
LINE
  8
0
 62
     0
 10
126.683
 20
35.5727
 30
0.0
 11
125.882
 21
35.5727
 31
0.0
  0
LINE
  8
0
 62
     0
 10
125.882
 20
35.5727
 30
0.0
 11
125.882
 21
32.4735
 31
0.0
  0
LINE
  8
0
 62
     0
 10
125.882
 20
32.4735
 30
0.0
 11
126.683
 21
32.4735
 31
0.0
  0
LINE
  8
0
 62
     0
 10
126.683
 20
32.4735
 30
0.0
 11
126.683
 21
31.473
 31
0.0
  0
LINE
  8
0
 62
     0
 10
126.683
 20
31.473
 30
0.0
 11
140.682
 21
31.473
 31
0.0
  0
LINE
  8
0
 62
     0
 10
140.682
 20
31.473
 30
0.0
 11
140.682
 21
32.4735
 31
0.0
  0
LINE
  8
0
 62
     0
 10
140.682
 20
32.4735
 30
0.0
 11
141.482
 21
32.4735
 31
0.0
  0
LINE
  8
0
 62
     0
 10
141.482
 20
32.4735
 30
0.0
 11
141.482
 21
35.5727
 31
0.0
  0
LINE
  8
0
 62
     0
 10
141.482
 20
35.5727
 30
0.0
 11
140.682
 21
35.5727
 31
0.0
  0
LINE
  8
0
 62
     0
 10
140.682
 20
35.5727
 30
0.0
 11
140.682
 21
41.3727
 31
0.0
  0
LINE
  8
0
 62
     0
 10
140.682
 20
41.3727
 30
0.0
 11
141.482
 21
41.3727
 31
0.0
  0
LINE
  8
0
 62
     0
 10
141.482
 20
41.3727
 30
0.0
 11
141.482
 21
44.4733
 31
0.0
  0
LINE
  8
0
 62
     0
 10
141.482
 20
44.4733
 30
0.0
 11
140.682
 21
44.4733
 31
0.0
  0
LINE
  8
0
 62
     0
 10
140.682
 20
44.4733
 30
0.0
 11
140.682
 21
45.4723
 31
0.0
  0
LINE
  8
0
 62
     0
 10
140.682
 20
45.4723
 30
0.0
 11
126.683
 21
45.4723
 31
0.0
  0
LINE
  8
0
 62
     0
 10
107.633
 20
45.4723
 30
0.0
 11
107.633
 21
44.4733
 31
0.0
  0
LINE
  8
0
 62
     0
 10
107.633
 20
44.4733
 30
0.0
 11
106.832
 21
44.4733
 31
0.0
  0
LINE
  8
0
 62
     0
 10
106.832
 20
44.4733
 30
0.0
 11
106.832
 21
41.3727
 31
0.0
  0
LINE
  8
0
 62
     0
 10
106.832
 20
41.3727
 30
0.0
 11
107.633
 21
41.3727
 31
0.0
  0
LINE
  8
0
 62
     0
 10
107.633
 20
41.3727
 30
0.0
 11
107.633
 21
35.5727
 31
0.0
  0
LINE
  8
0
 62
     0
 10
107.633
 20
35.5727
 30
0.0
 11
106.832
 21
35.5727
 31
0.0
  0
LINE
  8
0
 62
     0
 10
106.832
 20
35.5727
 30
0.0
 11
106.832
 21
32.4735
 31
0.0
  0
LINE
  8
0
 62
     0
 10
106.832
 20
32.4735
 30
0.0
 11
107.633
 21
32.4735
 31
0.0
  0
LINE
  8
0
 62
     0
 10
107.633
 20
32.4735
 30
0.0
 11
107.633
 21
31.473
 31
0.0
  0
LINE
  8
0
 62
     0
 10
107.633
 20
31.473
 30
0.0
 11
121.632
 21
31.473
 31
0.0
  0
LINE
  8
0
 62
     0
 10
121.632
 20
31.473
 30
0.0
 11
121.632
 21
32.4735
 31
0.0
  0
LINE
  8
0
 62
     0
 10
121.632
 20
32.4735
 30
0.0
 11
122.432
 21
32.4735
 31
0.0
  0
LINE
  8
0
 62
     0
 10
122.432
 20
32.4735
 30
0.0
 11
122.432
 21
35.5727
 31
0.0
  0
LINE
  8
0
 62
     0
 10
122.432
 20
35.5727
 30
0.0
 11
121.632
 21
35.5727
 31
0.0
  0
LINE
  8
0
 62
     0
 10
121.632
 20
35.5727
 30
0.0
 11
121.632
 21
41.3727
 31
0.0
  0
LINE
  8
0
 62
     0
 10
121.632
 20
41.3727
 30
0.0
 11
122.432
 21
41.3727
 31
0.0
  0
LINE
  8
0
 62
     0
 10
122.432
 20
41.3727
 30
0.0
 11
122.432
 21
44.4733
 31
0.0
  0
LINE
  8
0
 62
     0
 10
122.432
 20
44.4733
 30
0.0
 11
121.632
 21
44.4733
 31
0.0
  0
LINE
  8
0
 62
     0
 10
121.632
 20
44.4733
 30
0.0
 11
121.632
 21
45.4723
 31
0.0
  0
LINE
  8
0
 62
     0
 10
121.632
 20
45.4723
 30
0.0
 11
107.633
 21
45.4723
 31
0.0
  0
LINE
  8
0
 62
     0
 10
88.5832
 20
45.4723
 30
0.0
 11
88.5832
 21
44.4733
 31
0.0
  0
LINE
  8
0
 62
     0
 10
88.5832
 20
44.4733
 30
0.0
 11
87.7824
 21
44.4733
 31
0.0
  0
LINE
  8
0
 62
     0
 10
87.7824
 20
44.4733
 30
0.0
 11
87.7824
 21
41.3727
 31
0.0
  0
LINE
  8
0
 62
     0
 10
87.7824
 20
41.3727
 30
0.0
 11
88.5832
 21
41.3727
 31
0.0
  0
LINE
  8
0
 62
     0
 10
88.5832
 20
41.3727
 30
0.0
 11
88.5832
 21
35.5727
 31
0.0
  0
LINE
  8
0
 62
     0
 10
88.5832
 20
35.5727
 30
0.0
 11
87.7824
 21
35.5727
 31
0.0
  0
LINE
  8
0
 62
     0
 10
87.7824
 20
35.5727
 30
0.0
 11
87.7824
 21
32.4735
 31
0.0
  0
LINE
  8
0
 62
     0
 10
87.7824
 20
32.4735
 30
0.0
 11
88.5832
 21
32.4735
 31
0.0
  0
LINE
  8
0
 62
     0
 10
88.5832
 20
32.4735
 30
0.0
 11
88.5832
 21
31.473
 31
0.0
  0
LINE
  8
0
 62
     0
 10
88.5832
 20
31.473
 30
0.0
 11
102.582
 21
31.473
 31
0.0
  0
LINE
  8
0
 62
     0
 10
102.582
 20
31.473
 30
0.0
 11
102.582
 21
32.4735
 31
0.0
  0
LINE
  8
0
 62
     0
 10
102.582
 20
32.4735
 30
0.0
 11
103.382
 21
32.4735
 31
0.0
  0
LINE
  8
0
 62
     0
 10
103.382
 20
32.4735
 30
0.0
 11
103.382
 21
35.5727
 31
0.0
  0
LINE
  8
0
 62
     0
 10
103.382
 20
35.5727
 30
0.0
 11
102.582
 21
35.5727
 31
0.0
  0
LINE
  8
0
 62
     0
 10
102.582
 20
35.5727
 30
0.0
 11
102.582
 21
41.3727
 31
0.0
  0
LINE
  8
0
 62
     0
 10
102.582
 20
41.3727
 30
0.0
 11
103.382
 21
41.3727
 31
0.0
  0
LINE
  8
0
 62
     0
 10
103.382
 20
41.3727
 30
0.0
 11
103.382
 21
44.4733
 31
0.0
  0
LINE
  8
0
 62
     0
 10
103.382
 20
44.4733
 30
0.0
 11
102.582
 21
44.4733
 31
0.0
  0
LINE
  8
0
 62
     0
 10
102.582
 20
44.4733
 30
0.0
 11
102.582
 21
45.4723
 31
0.0
  0
LINE
  8
0
 62
     0
 10
102.582
 20
45.4723
 30
0.0
 11
88.5832
 21
45.4723
 31
0.0
  0
LINE
  8
0
 62
     0
 10
69.5332
 20
45.4723
 30
0.0
 11
69.5332
 21
44.4733
 31
0.0
  0
LINE
  8
0
 62
     0
 10
69.5332
 20
44.4733
 30
0.0
 11
68.7324
 21
44.4733
 31
0.0
  0
LINE
  8
0
 62
     0
 10
68.7324
 20
44.4733
 30
0.0
 11
68.7324
 21
41.3727
 31
0.0
  0
LINE
  8
0
 62
     0
 10
68.7324
 20
41.3727
 30
0.0
 11
69.5332
 21
41.3727
 31
0.0
  0
LINE
  8
0
 62
     0
 10
69.5332
 20
41.3727
 30
0.0
 11
69.5332
 21
35.5727
 31
0.0
  0
LINE
  8
0
 62
     0
 10
69.5332
 20
35.5727
 30
0.0
 11
68.7324
 21
35.5727
 31
0.0
  0
LINE
  8
0
 62
     0
 10
68.7324
 20
35.5727
 30
0.0
 11
68.7324
 21
32.4735
 31
0.0
  0
LINE
  8
0
 62
     0
 10
68.7324
 20
32.4735
 30
0.0
 11
69.5332
 21
32.4735
 31
0.0
  0
LINE
  8
0
 62
     0
 10
69.5332
 20
32.4735
 30
0.0
 11
69.5332
 21
31.473
 31
0.0
  0
LINE
  8
0
 62
     0
 10
69.5332
 20
31.473
 30
0.0
 11
83.5325
 21
31.473
 31
0.0
  0
LINE
  8
0
 62
     0
 10
83.5325
 20
31.473
 30
0.0
 11
83.5325
 21
32.4735
 31
0.0
  0
LINE
  8
0
 62
     0
 10
83.5325
 20
32.4735
 30
0.0
 11
84.3319
 21
32.4735
 31
0.0
  0
LINE
  8
0
 62
     0
 10
84.3319
 20
32.4735
 30
0.0
 11
84.3319
 21
35.5727
 31
0.0
  0
LINE
  8
0
 62
     0
 10
84.3319
 20
35.5727
 30
0.0
 11
83.5325
 21
35.5727
 31
0.0
  0
LINE
  8
0
 62
     0
 10
83.5325
 20
35.5727
 30
0.0
 11
83.5325
 21
41.3727
 31
0.0
  0
LINE
  8
0
 62
     0
 10
83.5325
 20
41.3727
 30
0.0
 11
84.3319
 21
41.3727
 31
0.0
  0
LINE
  8
0
 62
     0
 10
84.3319
 20
41.3727
 30
0.0
 11
84.3319
 21
44.4733
 31
0.0
  0
LINE
  8
0
 62
     0
 10
84.3319
 20
44.4733
 30
0.0
 11
83.5325
 21
44.4733
 31
0.0
  0
LINE
  8
0
 62
     0
 10
83.5325
 20
44.4733
 30
0.0
 11
83.5325
 21
45.4723
 31
0.0
  0
LINE
  8
0
 62
     0
 10
83.5325
 20
45.4723
 30
0.0
 11
69.5332
 21
45.4723
 31
0.0
  0
LINE
  8
0
 62
     0
 10
50.4832
 20
45.4723
 30
0.0
 11
50.4832
 21
44.4733
 31
0.0
  0
LINE
  8
0
 62
     0
 10
50.4832
 20
44.4733
 30
0.0
 11
49.6824
 21
44.4733
 31
0.0
  0
LINE
  8
0
 62
     0
 10
49.6824
 20
44.4733
 30
0.0
 11
49.6824
 21
41.3727
 31
0.0
  0
LINE
  8
0
 62
     0
 10
49.6824
 20
41.3727
 30
0.0
 11
50.4832
 21
41.3727
 31
0.0
  0
LINE
  8
0
 62
     0
 10
50.4832
 20
41.3727
 30
0.0
 11
50.4832
 21
35.5727
 31
0.0
  0
LINE
  8
0
 62
     0
 10
50.4832
 20
35.5727
 30
0.0
 11
49.6824
 21
35.5727
 31
0.0
  0
LINE
  8
0
 62
     0
 10
49.6824
 20
35.5727
 30
0.0
 11
49.6824
 21
32.4735
 31
0.0
  0
LINE
  8
0
 62
     0
 10
49.6824
 20
32.4735
 30
0.0
 11
50.4832
 21
32.4735
 31
0.0
  0
LINE
  8
0
 62
     0
 10
50.4832
 20
32.4735
 30
0.0
 11
50.4832
 21
31.473
 31
0.0
  0
LINE
  8
0
 62
     0
 10
50.4832
 20
31.473
 30
0.0
 11
64.4825
 21
31.473
 31
0.0
  0
LINE
  8
0
 62
     0
 10
64.4825
 20
31.473
 30
0.0
 11
64.4825
 21
32.4735
 31
0.0
  0
LINE
  8
0
 62
     0
 10
64.4825
 20
32.4735
 30
0.0
 11
65.2819
 21
32.4735
 31
0.0
  0
LINE
  8
0
 62
     0
 10
65.2819
 20
32.4735
 30
0.0
 11
65.2819
 21
35.5727
 31
0.0
  0
LINE
  8
0
 62
     0
 10
65.2819
 20
35.5727
 30
0.0
 11
64.4825
 21
35.5727
 31
0.0
  0
LINE
  8
0
 62
     0
 10
64.4825
 20
35.5727
 30
0.0
 11
64.4825
 21
41.3727
 31
0.0
  0
LINE
  8
0
 62
     0
 10
64.4825
 20
41.3727
 30
0.0
 11
65.2819
 21
41.3727
 31
0.0
  0
LINE
  8
0
 62
     0
 10
65.2819
 20
41.3727
 30
0.0
 11
65.2819
 21
44.4733
 31
0.0
  0
LINE
  8
0
 62
     0
 10
65.2819
 20
44.4733
 30
0.0
 11
64.4825
 21
44.4733
 31
0.0
  0
LINE
  8
0
 62
     0
 10
64.4825
 20
44.4733
 30
0.0
 11
64.4825
 21
45.4723
 31
0.0
  0
LINE
  8
0
 62
     0
 10
64.4825
 20
45.4723
 30
0.0
 11
50.4832
 21
45.4723
 31
0.0
  0
LINE
  8
0
 62
     0
 10
262.413
 20
64.5223
 30
0.0
 11
262.413
 21
63.5233
 31
0.0
  0
LINE
  8
0
 62
     0
 10
262.413
 20
63.5233
 30
0.0
 11
261.614
 21
63.5233
 31
0.0
  0
LINE
  8
0
 62
     0
 10
261.614
 20
63.5233
 30
0.0
 11
261.614
 21
60.4227
 31
0.0
  0
LINE
  8
0
 62
     0
 10
261.614
 20
60.4227
 30
0.0
 11
262.413
 21
60.4227
 31
0.0
  0
LINE
  8
0
 62
     0
 10
262.413
 20
60.4227
 30
0.0
 11
262.413
 21
59.8234
 31
0.0
  0
LINE
  8
0
 62
     0
 10
262.413
 20
59.8234
 30
0.0
 11
260.889
 21
59.8234
 31
0.0
  0
LINE
  8
0
 62
     0
 10
260.889
 20
59.8234
 30
0.0
 11
260.889
 21
63.0534
 31
0.0
  0
LINE
  8
0
 62
     0
 10
260.889
 20
63.0534
 30
0.0
 11
259.164
 21
63.0534
 31
0.0
  0
LINE
  8
0
 62
     0
 10
259.164
 20
63.0534
 30
0.0
 11
259.164
 21
63.9727
 31
0.0
  0
LINE
  8
0
 62
     0
 10
259.164
 20
63.9727
 30
0.0
 11
255.863
 21
63.9727
 31
0.0
  0
LINE
  8
0
 62
     0
 10
255.863
 20
63.9727
 30
0.0
 11
255.863
 21
63.0534
 31
0.0
  0
LINE
  8
0
 62
     0
 10
255.863
 20
63.0534
 30
0.0
 11
254.138
 21
63.0534
 31
0.0
  0
LINE
  8
0
 62
     0
 10
254.138
 20
63.0534
 30
0.0
 11
254.138
 21
59.8234
 31
0.0
  0
LINE
  8
0
 62
     0
 10
254.138
 20
59.8234
 30
0.0
 11
253.314
 21
59.8234
 31
0.0
  0
LINE
  8
0
 62
     0
 10
253.314
 20
59.8234
 30
0.0
 11
253.314
 21
57.0234
 31
0.0
  0
LINE
  8
0
 62
     0
 10
253.314
 20
57.0234
 30
0.0
 11
254.138
 21
57.0234
 31
0.0
  0
LINE
  8
0
 62
     0
 10
254.138
 20
57.0234
 30
0.0
 11
254.138
 21
50.7531
 31
0.0
  0
LINE
  8
0
 62
     0
 10
254.138
 20
50.7531
 30
0.0
 11
255.863
 21
50.7531
 31
0.0
  0
LINE
  8
0
 62
     0
 10
255.863
 20
50.7531
 30
0.0
 11
255.863
 21
49.7734
 31
0.0
  0
LINE
  8
0
 62
     0
 10
255.863
 20
49.7734
 30
0.0
 11
259.164
 21
49.7734
 31
0.0
  0
LINE
  8
0
 62
     0
 10
259.164
 20
49.7734
 30
0.0
 11
259.164
 21
50.7531
 31
0.0
  0
LINE
  8
0
 62
     0
 10
259.164
 20
50.7531
 30
0.0
 11
260.889
 21
50.7531
 31
0.0
  0
LINE
  8
0
 62
     0
 10
260.889
 20
50.7531
 30
0.0
 11
260.889
 21
55.2235
 31
0.0
  0
LINE
  8
0
 62
     0
 10
260.889
 20
55.2235
 30
0.0
 11
262.413
 21
55.2235
 31
0.0
  0
LINE
  8
0
 62
     0
 10
262.413
 20
55.2235
 30
0.0
 11
262.413
 21
54.6227
 31
0.0
  0
LINE
  8
0
 62
     0
 10
262.413
 20
54.6227
 30
0.0
 11
261.614
 21
54.6227
 31
0.0
  0
LINE
  8
0
 62
     0
 10
261.614
 20
54.6227
 30
0.0
 11
261.614
 21
51.5235
 31
0.0
  0
LINE
  8
0
 62
     0
 10
261.614
 20
51.5235
 30
0.0
 11
262.413
 21
51.5235
 31
0.0
  0
LINE
  8
0
 62
     0
 10
262.413
 20
51.5235
 30
0.0
 11
262.413
 21
50.5231
 31
0.0
  0
LINE
  8
0
 62
     0
 10
262.413
 20
50.5231
 30
0.0
 11
276.414
 21
50.5231
 31
0.0
  0
LINE
  8
0
 62
     0
 10
276.414
 20
50.5231
 30
0.0
 11
276.414
 21
51.5235
 31
0.0
  0
LINE
  8
0
 62
     0
 10
276.414
 20
51.5235
 30
0.0
 11
277.213
 21
51.5235
 31
0.0
  0
LINE
  8
0
 62
     0
 10
277.213
 20
51.5235
 30
0.0
 11
277.213
 21
54.6227
 31
0.0
  0
LINE
  8
0
 62
     0
 10
277.213
 20
54.6227
 30
0.0
 11
276.414
 21
54.6227
 31
0.0
  0
LINE
  8
0
 62
     0
 10
276.414
 20
54.6227
 30
0.0
 11
276.414
 21
55.2235
 31
0.0
  0
LINE
  8
0
 62
     0
 10
276.414
 20
55.2235
 30
0.0
 11
277.938
 21
55.2235
 31
0.0
  0
LINE
  8
0
 62
     0
 10
277.938
 20
55.2235
 30
0.0
 11
277.938
 21
50.7531
 31
0.0
  0
LINE
  8
0
 62
     0
 10
277.938
 20
50.7531
 30
0.0
 11
279.663
 21
50.7531
 31
0.0
  0
LINE
  8
0
 62
     0
 10
279.663
 20
50.7531
 30
0.0
 11
279.663
 21
49.7734
 31
0.0
  0
LINE
  8
0
 62
     0
 10
279.663
 20
49.7734
 30
0.0
 11
282.964
 21
49.7734
 31
0.0
  0
LINE
  8
0
 62
     0
 10
282.964
 20
49.7734
 30
0.0
 11
282.964
 21
50.7531
 31
0.0
  0
LINE
  8
0
 62
     0
 10
282.964
 20
50.7531
 30
0.0
 11
284.689
 21
50.7531
 31
0.0
  0
LINE
  8
0
 62
     0
 10
284.689
 20
50.7531
 30
0.0
 11
284.689
 21
57.0234
 31
0.0
  0
LINE
  8
0
 62
     0
 10
284.689
 20
57.0234
 30
0.0
 11
285.513
 21
57.0234
 31
0.0
  0
LINE
  8
0
 62
     0
 10
285.513
 20
57.0234
 30
0.0
 11
285.513
 21
59.8234
 31
0.0
  0
LINE
  8
0
 62
     0
 10
285.513
 20
59.8234
 30
0.0
 11
284.689
 21
59.8234
 31
0.0
  0
LINE
  8
0
 62
     0
 10
284.689
 20
59.8234
 30
0.0
 11
284.689
 21
63.0534
 31
0.0
  0
LINE
  8
0
 62
     0
 10
284.689
 20
63.0534
 30
0.0
 11
282.964
 21
63.0534
 31
0.0
  0
LINE
  8
0
 62
     0
 10
282.964
 20
63.0534
 30
0.0
 11
282.964
 21
63.9727
 31
0.0
  0
LINE
  8
0
 62
     0
 10
282.964
 20
63.9727
 30
0.0
 11
279.663
 21
63.9727
 31
0.0
  0
LINE
  8
0
 62
     0
 10
279.663
 20
63.9727
 30
0.0
 11
279.663
 21
63.0534
 31
0.0
  0
LINE
  8
0
 62
     0
 10
279.663
 20
63.0534
 30
0.0
 11
277.938
 21
63.0534
 31
0.0
  0
LINE
  8
0
 62
     0
 10
277.938
 20
63.0534
 30
0.0
 11
277.938
 21
59.8234
 31
0.0
  0
LINE
  8
0
 62
     0
 10
277.938
 20
59.8234
 30
0.0
 11
276.414
 21
59.8234
 31
0.0
  0
LINE
  8
0
 62
     0
 10
276.414
 20
59.8234
 30
0.0
 11
276.414
 21
60.4227
 31
0.0
  0
LINE
  8
0
 62
     0
 10
276.414
 20
60.4227
 30
0.0
 11
277.213
 21
60.4227
 31
0.0
  0
LINE
  8
0
 62
     0
 10
277.213
 20
60.4227
 30
0.0
 11
277.213
 21
63.5233
 31
0.0
  0
LINE
  8
0
 62
     0
 10
277.213
 20
63.5233
 30
0.0
 11
276.414
 21
63.5233
 31
0.0
  0
LINE
  8
0
 62
     0
 10
276.414
 20
63.5233
 30
0.0
 11
276.414
 21
64.5223
 31
0.0
  0
LINE
  8
0
 62
     0
 10
276.414
 20
64.5223
 30
0.0
 11
262.413
 21
64.5223
 31
0.0
  0
LINE
  8
0
 62
     0
 10
298.133
 20
64.5223
 30
0.0
 11
298.133
 21
63.5233
 31
0.0
  0
LINE
  8
0
 62
     0
 10
298.133
 20
63.5233
 30
0.0
 11
297.332
 21
63.5233
 31
0.0
  0
LINE
  8
0
 62
     0
 10
297.332
 20
63.5233
 30
0.0
 11
297.332
 21
60.4227
 31
0.0
  0
LINE
  8
0
 62
     0
 10
297.332
 20
60.4227
 30
0.0
 11
298.133
 21
60.4227
 31
0.0
  0
LINE
  8
0
 62
     0
 10
298.133
 20
60.4227
 30
0.0
 11
298.133
 21
54.6227
 31
0.0
  0
LINE
  8
0
 62
     0
 10
298.133
 20
54.6227
 30
0.0
 11
297.332
 21
54.6227
 31
0.0
  0
LINE
  8
0
 62
     0
 10
297.332
 20
54.6227
 30
0.0
 11
297.332
 21
51.5235
 31
0.0
  0
LINE
  8
0
 62
     0
 10
297.332
 20
51.5235
 30
0.0
 11
298.133
 21
51.5235
 31
0.0
  0
LINE
  8
0
 62
     0
 10
298.133
 20
51.5235
 30
0.0
 11
298.133
 21
50.5231
 31
0.0
  0
LINE
  8
0
 62
     0
 10
298.133
 20
50.5231
 30
0.0
 11
312.132
 21
50.5231
 31
0.0
  0
LINE
  8
0
 62
     0
 10
312.132
 20
50.5231
 30
0.0
 11
312.132
 21
51.5235
 31
0.0
  0
LINE
  8
0
 62
     0
 10
312.132
 20
51.5235
 30
0.0
 11
312.932
 21
51.5235
 31
0.0
  0
LINE
  8
0
 62
     0
 10
312.932
 20
51.5235
 30
0.0
 11
312.932
 21
54.6227
 31
0.0
  0
LINE
  8
0
 62
     0
 10
312.932
 20
54.6227
 30
0.0
 11
312.132
 21
54.6227
 31
0.0
  0
LINE
  8
0
 62
     0
 10
312.132
 20
54.6227
 30
0.0
 11
312.132
 21
60.4227
 31
0.0
  0
LINE
  8
0
 62
     0
 10
312.132
 20
60.4227
 30
0.0
 11
312.932
 21
60.4227
 31
0.0
  0
LINE
  8
0
 62
     0
 10
312.932
 20
60.4227
 30
0.0
 11
312.932
 21
63.5233
 31
0.0
  0
LINE
  8
0
 62
     0
 10
312.932
 20
63.5233
 30
0.0
 11
312.132
 21
63.5233
 31
0.0
  0
LINE
  8
0
 62
     0
 10
312.132
 20
63.5233
 30
0.0
 11
312.132
 21
64.5223
 31
0.0
  0
LINE
  8
0
 62
     0
 10
312.132
 20
64.5223
 30
0.0
 11
298.133
 21
64.5223
 31
0.0
  0
LINE
  8
0
 62
     0
 10
231.458
 20
64.5223
 30
0.0
 11
231.458
 21
63.5233
 31
0.0
  0
LINE
  8
0
 62
     0
 10
231.458
 20
63.5233
 30
0.0
 11
230.657
 21
63.5233
 31
0.0
  0
LINE
  8
0
 62
     0
 10
230.657
 20
63.5233
 30
0.0
 11
230.657
 21
60.4227
 31
0.0
  0
LINE
  8
0
 62
     0
 10
230.657
 20
60.4227
 30
0.0
 11
231.458
 21
60.4227
 31
0.0
  0
LINE
  8
0
 62
     0
 10
231.458
 20
60.4227
 30
0.0
 11
231.458
 21
54.6227
 31
0.0
  0
LINE
  8
0
 62
     0
 10
231.458
 20
54.6227
 30
0.0
 11
230.657
 21
54.6227
 31
0.0
  0
LINE
  8
0
 62
     0
 10
230.657
 20
54.6227
 30
0.0
 11
230.657
 21
51.5235
 31
0.0
  0
LINE
  8
0
 62
     0
 10
230.657
 20
51.5235
 30
0.0
 11
231.458
 21
51.5235
 31
0.0
  0
LINE
  8
0
 62
     0
 10
231.458
 20
51.5235
 30
0.0
 11
231.458
 21
50.5231
 31
0.0
  0
LINE
  8
0
 62
     0
 10
231.458
 20
50.5231
 30
0.0
 11
245.457
 21
50.5231
 31
0.0
  0
LINE
  8
0
 62
     0
 10
245.457
 20
50.5231
 30
0.0
 11
245.457
 21
51.5235
 31
0.0
  0
LINE
  8
0
 62
     0
 10
245.457
 20
51.5235
 30
0.0
 11
246.257
 21
51.5235
 31
0.0
  0
LINE
  8
0
 62
     0
 10
246.257
 20
51.5235
 30
0.0
 11
246.257
 21
54.6227
 31
0.0
  0
LINE
  8
0
 62
     0
 10
246.257
 20
54.6227
 30
0.0
 11
245.457
 21
54.6227
 31
0.0
  0
LINE
  8
0
 62
     0
 10
245.457
 20
54.6227
 30
0.0
 11
245.457
 21
60.4227
 31
0.0
  0
LINE
  8
0
 62
     0
 10
245.457
 20
60.4227
 30
0.0
 11
246.257
 21
60.4227
 31
0.0
  0
LINE
  8
0
 62
     0
 10
246.257
 20
60.4227
 30
0.0
 11
246.257
 21
63.5233
 31
0.0
  0
LINE
  8
0
 62
     0
 10
246.257
 20
63.5233
 30
0.0
 11
245.457
 21
63.5233
 31
0.0
  0
LINE
  8
0
 62
     0
 10
245.457
 20
63.5233
 30
0.0
 11
245.457
 21
64.5223
 31
0.0
  0
LINE
  8
0
 62
     0
 10
245.457
 20
64.5223
 30
0.0
 11
231.458
 21
64.5223
 31
0.0
  0
LINE
  8
0
 62
     0
 10
212.408
 20
64.5223
 30
0.0
 11
212.408
 21
63.5233
 31
0.0
  0
LINE
  8
0
 62
     0
 10
212.408
 20
63.5233
 30
0.0
 11
211.607
 21
63.5233
 31
0.0
  0
LINE
  8
0
 62
     0
 10
211.607
 20
63.5233
 30
0.0
 11
211.607
 21
60.4227
 31
0.0
  0
LINE
  8
0
 62
     0
 10
211.607
 20
60.4227
 30
0.0
 11
212.408
 21
60.4227
 31
0.0
  0
LINE
  8
0
 62
     0
 10
212.408
 20
60.4227
 30
0.0
 11
212.408
 21
54.6227
 31
0.0
  0
LINE
  8
0
 62
     0
 10
212.408
 20
54.6227
 30
0.0
 11
211.607
 21
54.6227
 31
0.0
  0
LINE
  8
0
 62
     0
 10
211.607
 20
54.6227
 30
0.0
 11
211.607
 21
51.5235
 31
0.0
  0
LINE
  8
0
 62
     0
 10
211.607
 20
51.5235
 30
0.0
 11
212.408
 21
51.5235
 31
0.0
  0
LINE
  8
0
 62
     0
 10
212.408
 20
51.5235
 30
0.0
 11
212.408
 21
50.5231
 31
0.0
  0
LINE
  8
0
 62
     0
 10
212.408
 20
50.5231
 30
0.0
 11
226.407
 21
50.5231
 31
0.0
  0
LINE
  8
0
 62
     0
 10
226.407
 20
50.5231
 30
0.0
 11
226.407
 21
51.5235
 31
0.0
  0
LINE
  8
0
 62
     0
 10
226.407
 20
51.5235
 30
0.0
 11
227.207
 21
51.5235
 31
0.0
  0
LINE
  8
0
 62
     0
 10
227.207
 20
51.5235
 30
0.0
 11
227.207
 21
54.6227
 31
0.0
  0
LINE
  8
0
 62
     0
 10
227.207
 20
54.6227
 30
0.0
 11
226.407
 21
54.6227
 31
0.0
  0
LINE
  8
0
 62
     0
 10
226.407
 20
54.6227
 30
0.0
 11
226.407
 21
60.4227
 31
0.0
  0
LINE
  8
0
 62
     0
 10
226.407
 20
60.4227
 30
0.0
 11
227.207
 21
60.4227
 31
0.0
  0
LINE
  8
0
 62
     0
 10
227.207
 20
60.4227
 30
0.0
 11
227.207
 21
63.5233
 31
0.0
  0
LINE
  8
0
 62
     0
 10
227.207
 20
63.5233
 30
0.0
 11
226.407
 21
63.5233
 31
0.0
  0
LINE
  8
0
 62
     0
 10
226.407
 20
63.5233
 30
0.0
 11
226.407
 21
64.5223
 31
0.0
  0
LINE
  8
0
 62
     0
 10
226.407
 20
64.5223
 30
0.0
 11
212.408
 21
64.5223
 31
0.0
  0
LINE
  8
0
 62
     0
 10
193.358
 20
64.5223
 30
0.0
 11
193.358
 21
63.5233
 31
0.0
  0
LINE
  8
0
 62
     0
 10
193.358
 20
63.5233
 30
0.0
 11
192.557
 21
63.5233
 31
0.0
  0
LINE
  8
0
 62
     0
 10
192.557
 20
63.5233
 30
0.0
 11
192.557
 21
60.4227
 31
0.0
  0
LINE
  8
0
 62
     0
 10
192.557
 20
60.4227
 30
0.0
 11
193.358
 21
60.4227
 31
0.0
  0
LINE
  8
0
 62
     0
 10
193.358
 20
60.4227
 30
0.0
 11
193.358
 21
54.6227
 31
0.0
  0
LINE
  8
0
 62
     0
 10
193.358
 20
54.6227
 30
0.0
 11
192.557
 21
54.6227
 31
0.0
  0
LINE
  8
0
 62
     0
 10
192.557
 20
54.6227
 30
0.0
 11
192.557
 21
51.5235
 31
0.0
  0
LINE
  8
0
 62
     0
 10
192.557
 20
51.5235
 30
0.0
 11
193.358
 21
51.5235
 31
0.0
  0
LINE
  8
0
 62
     0
 10
193.358
 20
51.5235
 30
0.0
 11
193.358
 21
50.5231
 31
0.0
  0
LINE
  8
0
 62
     0
 10
193.358
 20
50.5231
 30
0.0
 11
207.357
 21
50.5231
 31
0.0
  0
LINE
  8
0
 62
     0
 10
207.357
 20
50.5231
 30
0.0
 11
207.357
 21
51.5235
 31
0.0
  0
LINE
  8
0
 62
     0
 10
207.357
 20
51.5235
 30
0.0
 11
208.157
 21
51.5235
 31
0.0
  0
LINE
  8
0
 62
     0
 10
208.157
 20
51.5235
 30
0.0
 11
208.157
 21
54.6227
 31
0.0
  0
LINE
  8
0
 62
     0
 10
208.157
 20
54.6227
 30
0.0
 11
207.357
 21
54.6227
 31
0.0
  0
LINE
  8
0
 62
     0
 10
207.357
 20
54.6227
 30
0.0
 11
207.357
 21
60.4227
 31
0.0
  0
LINE
  8
0
 62
     0
 10
207.357
 20
60.4227
 30
0.0
 11
208.157
 21
60.4227
 31
0.0
  0
LINE
  8
0
 62
     0
 10
208.157
 20
60.4227
 30
0.0
 11
208.157
 21
63.5233
 31
0.0
  0
LINE
  8
0
 62
     0
 10
208.157
 20
63.5233
 30
0.0
 11
207.357
 21
63.5233
 31
0.0
  0
LINE
  8
0
 62
     0
 10
207.357
 20
63.5233
 30
0.0
 11
207.357
 21
64.5223
 31
0.0
  0
LINE
  8
0
 62
     0
 10
207.357
 20
64.5223
 30
0.0
 11
193.358
 21
64.5223
 31
0.0
  0
LINE
  8
0
 62
     0
 10
174.308
 20
64.5223
 30
0.0
 11
174.308
 21
63.5233
 31
0.0
  0
LINE
  8
0
 62
     0
 10
174.308
 20
63.5233
 30
0.0
 11
173.507
 21
63.5233
 31
0.0
  0
LINE
  8
0
 62
     0
 10
173.507
 20
63.5233
 30
0.0
 11
173.507
 21
60.4227
 31
0.0
  0
LINE
  8
0
 62
     0
 10
173.507
 20
60.4227
 30
0.0
 11
174.308
 21
60.4227
 31
0.0
  0
LINE
  8
0
 62
     0
 10
174.308
 20
60.4227
 30
0.0
 11
174.308
 21
54.6227
 31
0.0
  0
LINE
  8
0
 62
     0
 10
174.308
 20
54.6227
 30
0.0
 11
173.507
 21
54.6227
 31
0.0
  0
LINE
  8
0
 62
     0
 10
173.507
 20
54.6227
 30
0.0
 11
173.507
 21
51.5235
 31
0.0
  0
LINE
  8
0
 62
     0
 10
173.507
 20
51.5235
 30
0.0
 11
174.308
 21
51.5235
 31
0.0
  0
LINE
  8
0
 62
     0
 10
174.308
 20
51.5235
 30
0.0
 11
174.308
 21
50.5231
 31
0.0
  0
LINE
  8
0
 62
     0
 10
174.308
 20
50.5231
 30
0.0
 11
188.307
 21
50.5231
 31
0.0
  0
LINE
  8
0
 62
     0
 10
188.307
 20
50.5231
 30
0.0
 11
188.307
 21
51.5235
 31
0.0
  0
LINE
  8
0
 62
     0
 10
188.307
 20
51.5235
 30
0.0
 11
189.107
 21
51.5235
 31
0.0
  0
LINE
  8
0
 62
     0
 10
189.107
 20
51.5235
 30
0.0
 11
189.107
 21
54.6227
 31
0.0
  0
LINE
  8
0
 62
     0
 10
189.107
 20
54.6227
 30
0.0
 11
188.307
 21
54.6227
 31
0.0
  0
LINE
  8
0
 62
     0
 10
188.307
 20
54.6227
 30
0.0
 11
188.307
 21
60.4227
 31
0.0
  0
LINE
  8
0
 62
     0
 10
188.307
 20
60.4227
 30
0.0
 11
189.107
 21
60.4227
 31
0.0
  0
LINE
  8
0
 62
     0
 10
189.107
 20
60.4227
 30
0.0
 11
189.107
 21
63.5233
 31
0.0
  0
LINE
  8
0
 62
     0
 10
189.107
 20
63.5233
 30
0.0
 11
188.307
 21
63.5233
 31
0.0
  0
LINE
  8
0
 62
     0
 10
188.307
 20
63.5233
 30
0.0
 11
188.307
 21
64.5223
 31
0.0
  0
LINE
  8
0
 62
     0
 10
188.307
 20
64.5223
 30
0.0
 11
174.308
 21
64.5223
 31
0.0
  0
LINE
  8
0
 62
     0
 10
155.258
 20
64.5223
 30
0.0
 11
155.258
 21
63.5233
 31
0.0
  0
LINE
  8
0
 62
     0
 10
155.258
 20
63.5233
 30
0.0
 11
154.457
 21
63.5233
 31
0.0
  0
LINE
  8
0
 62
     0
 10
154.457
 20
63.5233
 30
0.0
 11
154.457
 21
60.4227
 31
0.0
  0
LINE
  8
0
 62
     0
 10
154.457
 20
60.4227
 30
0.0
 11
155.258
 21
60.4227
 31
0.0
  0
LINE
  8
0
 62
     0
 10
155.258
 20
60.4227
 30
0.0
 11
155.258
 21
54.6227
 31
0.0
  0
LINE
  8
0
 62
     0
 10
155.258
 20
54.6227
 30
0.0
 11
154.457
 21
54.6227
 31
0.0
  0
LINE
  8
0
 62
     0
 10
154.457
 20
54.6227
 30
0.0
 11
154.457
 21
51.5235
 31
0.0
  0
LINE
  8
0
 62
     0
 10
154.457
 20
51.5235
 30
0.0
 11
155.258
 21
51.5235
 31
0.0
  0
LINE
  8
0
 62
     0
 10
155.258
 20
51.5235
 30
0.0
 11
155.258
 21
50.5231
 31
0.0
  0
LINE
  8
0
 62
     0
 10
155.258
 20
50.5231
 30
0.0
 11
169.257
 21
50.5231
 31
0.0
  0
LINE
  8
0
 62
     0
 10
169.257
 20
50.5231
 30
0.0
 11
169.257
 21
51.5235
 31
0.0
  0
LINE
  8
0
 62
     0
 10
169.257
 20
51.5235
 30
0.0
 11
170.057
 21
51.5235
 31
0.0
  0
LINE
  8
0
 62
     0
 10
170.057
 20
51.5235
 30
0.0
 11
170.057
 21
54.6227
 31
0.0
  0
LINE
  8
0
 62
     0
 10
170.057
 20
54.6227
 30
0.0
 11
169.257
 21
54.6227
 31
0.0
  0
LINE
  8
0
 62
     0
 10
169.257
 20
54.6227
 30
0.0
 11
169.257
 21
60.4227
 31
0.0
  0
LINE
  8
0
 62
     0
 10
169.257
 20
60.4227
 30
0.0
 11
170.057
 21
60.4227
 31
0.0
  0
LINE
  8
0
 62
     0
 10
170.057
 20
60.4227
 30
0.0
 11
170.057
 21
63.5233
 31
0.0
  0
LINE
  8
0
 62
     0
 10
170.057
 20
63.5233
 30
0.0
 11
169.257
 21
63.5233
 31
0.0
  0
LINE
  8
0
 62
     0
 10
169.257
 20
63.5233
 30
0.0
 11
169.257
 21
64.5223
 31
0.0
  0
LINE
  8
0
 62
     0
 10
169.257
 20
64.5223
 30
0.0
 11
155.258
 21
64.5223
 31
0.0
  0
LINE
  8
0
 62
     0
 10
136.208
 20
64.5223
 30
0.0
 11
136.208
 21
63.5233
 31
0.0
  0
LINE
  8
0
 62
     0
 10
136.208
 20
63.5233
 30
0.0
 11
135.407
 21
63.5233
 31
0.0
  0
LINE
  8
0
 62
     0
 10
135.407
 20
63.5233
 30
0.0
 11
135.407
 21
60.4227
 31
0.0
  0
LINE
  8
0
 62
     0
 10
135.407
 20
60.4227
 30
0.0
 11
136.208
 21
60.4227
 31
0.0
  0
LINE
  8
0
 62
     0
 10
136.208
 20
60.4227
 30
0.0
 11
136.208
 21
54.6227
 31
0.0
  0
LINE
  8
0
 62
     0
 10
136.208
 20
54.6227
 30
0.0
 11
135.407
 21
54.6227
 31
0.0
  0
LINE
  8
0
 62
     0
 10
135.407
 20
54.6227
 30
0.0
 11
135.407
 21
51.5235
 31
0.0
  0
LINE
  8
0
 62
     0
 10
135.407
 20
51.5235
 30
0.0
 11
136.208
 21
51.5235
 31
0.0
  0
LINE
  8
0
 62
     0
 10
136.208
 20
51.5235
 30
0.0
 11
136.208
 21
50.5231
 31
0.0
  0
LINE
  8
0
 62
     0
 10
136.208
 20
50.5231
 30
0.0
 11
150.207
 21
50.5231
 31
0.0
  0
LINE
  8
0
 62
     0
 10
150.207
 20
50.5231
 30
0.0
 11
150.207
 21
51.5235
 31
0.0
  0
LINE
  8
0
 62
     0
 10
150.207
 20
51.5235
 30
0.0
 11
151.007
 21
51.5235
 31
0.0
  0
LINE
  8
0
 62
     0
 10
151.007
 20
51.5235
 30
0.0
 11
151.007
 21
54.6227
 31
0.0
  0
LINE
  8
0
 62
     0
 10
151.007
 20
54.6227
 30
0.0
 11
150.207
 21
54.6227
 31
0.0
  0
LINE
  8
0
 62
     0
 10
150.207
 20
54.6227
 30
0.0
 11
150.207
 21
60.4227
 31
0.0
  0
LINE
  8
0
 62
     0
 10
150.207
 20
60.4227
 30
0.0
 11
151.007
 21
60.4227
 31
0.0
  0
LINE
  8
0
 62
     0
 10
151.007
 20
60.4227
 30
0.0
 11
151.007
 21
63.5233
 31
0.0
  0
LINE
  8
0
 62
     0
 10
151.007
 20
63.5233
 30
0.0
 11
150.207
 21
63.5233
 31
0.0
  0
LINE
  8
0
 62
     0
 10
150.207
 20
63.5233
 30
0.0
 11
150.207
 21
64.5223
 31
0.0
  0
LINE
  8
0
 62
     0
 10
150.207
 20
64.5223
 30
0.0
 11
136.208
 21
64.5223
 31
0.0
  0
LINE
  8
0
 62
     0
 10
117.158
 20
64.5223
 30
0.0
 11
117.158
 21
63.5233
 31
0.0
  0
LINE
  8
0
 62
     0
 10
117.158
 20
63.5233
 30
0.0
 11
116.357
 21
63.5233
 31
0.0
  0
LINE
  8
0
 62
     0
 10
116.357
 20
63.5233
 30
0.0
 11
116.357
 21
60.4227
 31
0.0
  0
LINE
  8
0
 62
     0
 10
116.357
 20
60.4227
 30
0.0
 11
117.158
 21
60.4227
 31
0.0
  0
LINE
  8
0
 62
     0
 10
117.158
 20
60.4227
 30
0.0
 11
117.158
 21
54.6227
 31
0.0
  0
LINE
  8
0
 62
     0
 10
117.158
 20
54.6227
 30
0.0
 11
116.357
 21
54.6227
 31
0.0
  0
LINE
  8
0
 62
     0
 10
116.357
 20
54.6227
 30
0.0
 11
116.357
 21
51.5235
 31
0.0
  0
LINE
  8
0
 62
     0
 10
116.357
 20
51.5235
 30
0.0
 11
117.158
 21
51.5235
 31
0.0
  0
LINE
  8
0
 62
     0
 10
117.158
 20
51.5235
 30
0.0
 11
117.158
 21
50.5231
 31
0.0
  0
LINE
  8
0
 62
     0
 10
117.158
 20
50.5231
 30
0.0
 11
131.157
 21
50.5231
 31
0.0
  0
LINE
  8
0
 62
     0
 10
131.157
 20
50.5231
 30
0.0
 11
131.157
 21
51.5235
 31
0.0
  0
LINE
  8
0
 62
     0
 10
131.157
 20
51.5235
 30
0.0
 11
131.957
 21
51.5235
 31
0.0
  0
LINE
  8
0
 62
     0
 10
131.957
 20
51.5235
 30
0.0
 11
131.957
 21
54.6227
 31
0.0
  0
LINE
  8
0
 62
     0
 10
131.957
 20
54.6227
 30
0.0
 11
131.157
 21
54.6227
 31
0.0
  0
LINE
  8
0
 62
     0
 10
131.157
 20
54.6227
 30
0.0
 11
131.157
 21
60.4227
 31
0.0
  0
LINE
  8
0
 62
     0
 10
131.157
 20
60.4227
 30
0.0
 11
131.957
 21
60.4227
 31
0.0
  0
LINE
  8
0
 62
     0
 10
131.957
 20
60.4227
 30
0.0
 11
131.957
 21
63.5233
 31
0.0
  0
LINE
  8
0
 62
     0
 10
131.957
 20
63.5233
 30
0.0
 11
131.157
 21
63.5233
 31
0.0
  0
LINE
  8
0
 62
     0
 10
131.157
 20
63.5233
 30
0.0
 11
131.157
 21
64.5223
 31
0.0
  0
LINE
  8
0
 62
     0
 10
131.157
 20
64.5223
 30
0.0
 11
117.158
 21
64.5223
 31
0.0
  0
LINE
  8
0
 62
     0
 10
98.1082
 20
64.5223
 30
0.0
 11
98.1082
 21
63.5233
 31
0.0
  0
LINE
  8
0
 62
     0
 10
98.1082
 20
63.5233
 30
0.0
 11
97.3074
 21
63.5233
 31
0.0
  0
LINE
  8
0
 62
     0
 10
97.3074
 20
63.5233
 30
0.0
 11
97.3074
 21
60.4227
 31
0.0
  0
LINE
  8
0
 62
     0
 10
97.3074
 20
60.4227
 30
0.0
 11
98.1082
 21
60.4227
 31
0.0
  0
LINE
  8
0
 62
     0
 10
98.1082
 20
60.4227
 30
0.0
 11
98.1082
 21
54.6227
 31
0.0
  0
LINE
  8
0
 62
     0
 10
98.1082
 20
54.6227
 30
0.0
 11
97.3074
 21
54.6227
 31
0.0
  0
LINE
  8
0
 62
     0
 10
97.3074
 20
54.6227
 30
0.0
 11
97.3074
 21
51.5235
 31
0.0
  0
LINE
  8
0
 62
     0
 10
97.3074
 20
51.5235
 30
0.0
 11
98.1082
 21
51.5235
 31
0.0
  0
LINE
  8
0
 62
     0
 10
98.1082
 20
51.5235
 30
0.0
 11
98.1082
 21
50.5231
 31
0.0
  0
LINE
  8
0
 62
     0
 10
98.1082
 20
50.5231
 30
0.0
 11
112.107
 21
50.5231
 31
0.0
  0
LINE
  8
0
 62
     0
 10
112.107
 20
50.5231
 30
0.0
 11
112.107
 21
51.5235
 31
0.0
  0
LINE
  8
0
 62
     0
 10
112.107
 20
51.5235
 30
0.0
 11
112.907
 21
51.5235
 31
0.0
  0
LINE
  8
0
 62
     0
 10
112.907
 20
51.5235
 30
0.0
 11
112.907
 21
54.6227
 31
0.0
  0
LINE
  8
0
 62
     0
 10
112.907
 20
54.6227
 30
0.0
 11
112.107
 21
54.6227
 31
0.0
  0
LINE
  8
0
 62
     0
 10
112.107
 20
54.6227
 30
0.0
 11
112.107
 21
60.4227
 31
0.0
  0
LINE
  8
0
 62
     0
 10
112.107
 20
60.4227
 30
0.0
 11
112.907
 21
60.4227
 31
0.0
  0
LINE
  8
0
 62
     0
 10
112.907
 20
60.4227
 30
0.0
 11
112.907
 21
63.5233
 31
0.0
  0
LINE
  8
0
 62
     0
 10
112.907
 20
63.5233
 30
0.0
 11
112.107
 21
63.5233
 31
0.0
  0
LINE
  8
0
 62
     0
 10
112.107
 20
63.5233
 30
0.0
 11
112.107
 21
64.5223
 31
0.0
  0
LINE
  8
0
 62
     0
 10
112.107
 20
64.5223
 30
0.0
 11
98.1082
 21
64.5223
 31
0.0
  0
LINE
  8
0
 62
     0
 10
79.0582
 20
64.5223
 30
0.0
 11
79.0582
 21
63.5233
 31
0.0
  0
LINE
  8
0
 62
     0
 10
79.0582
 20
63.5233
 30
0.0
 11
78.2574
 21
63.5233
 31
0.0
  0
LINE
  8
0
 62
     0
 10
78.2574
 20
63.5233
 30
0.0
 11
78.2574
 21
60.4227
 31
0.0
  0
LINE
  8
0
 62
     0
 10
78.2574
 20
60.4227
 30
0.0
 11
79.0582
 21
60.4227
 31
0.0
  0
LINE
  8
0
 62
     0
 10
79.0582
 20
60.4227
 30
0.0
 11
79.0582
 21
54.6227
 31
0.0
  0
LINE
  8
0
 62
     0
 10
79.0582
 20
54.6227
 30
0.0
 11
78.2574
 21
54.6227
 31
0.0
  0
LINE
  8
0
 62
     0
 10
78.2574
 20
54.6227
 30
0.0
 11
78.2574
 21
51.5235
 31
0.0
  0
LINE
  8
0
 62
     0
 10
78.2574
 20
51.5235
 30
0.0
 11
79.0582
 21
51.5235
 31
0.0
  0
LINE
  8
0
 62
     0
 10
79.0582
 20
51.5235
 30
0.0
 11
79.0582
 21
50.5231
 31
0.0
  0
LINE
  8
0
 62
     0
 10
79.0582
 20
50.5231
 30
0.0
 11
93.0575
 21
50.5231
 31
0.0
  0
LINE
  8
0
 62
     0
 10
93.0575
 20
50.5231
 30
0.0
 11
93.0575
 21
51.5235
 31
0.0
  0
LINE
  8
0
 62
     0
 10
93.0575
 20
51.5235
 30
0.0
 11
93.8569
 21
51.5235
 31
0.0
  0
LINE
  8
0
 62
     0
 10
93.8569
 20
51.5235
 30
0.0
 11
93.8569
 21
54.6227
 31
0.0
  0
LINE
  8
0
 62
     0
 10
93.8569
 20
54.6227
 30
0.0
 11
93.0575
 21
54.6227
 31
0.0
  0
LINE
  8
0
 62
     0
 10
93.0575
 20
54.6227
 30
0.0
 11
93.0575
 21
60.4227
 31
0.0
  0
LINE
  8
0
 62
     0
 10
93.0575
 20
60.4227
 30
0.0
 11
93.8569
 21
60.4227
 31
0.0
  0
LINE
  8
0
 62
     0
 10
93.8569
 20
60.4227
 30
0.0
 11
93.8569
 21
63.5233
 31
0.0
  0
LINE
  8
0
 62
     0
 10
93.8569
 20
63.5233
 30
0.0
 11
93.0575
 21
63.5233
 31
0.0
  0
LINE
  8
0
 62
     0
 10
93.0575
 20
63.5233
 30
0.0
 11
93.0575
 21
64.5223
 31
0.0
  0
LINE
  8
0
 62
     0
 10
93.0575
 20
64.5223
 30
0.0
 11
79.0582
 21
64.5223
 31
0.0
  0
LINE
  8
0
 62
     0
 10
60.0082
 20
64.5223
 30
0.0
 11
60.0082
 21
63.5233
 31
0.0
  0
LINE
  8
0
 62
     0
 10
60.0082
 20
63.5233
 30
0.0
 11
59.206
 21
63.5233
 31
0.0
  0
LINE
  8
0
 62
     0
 10
59.206
 20
63.5233
 30
0.0
 11
59.206
 21
60.4227
 31
0.0
  0
LINE
  8
0
 62
     0
 10
59.206
 20
60.4227
 30
0.0
 11
60.0082
 21
60.4227
 31
0.0
  0
LINE
  8
0
 62
     0
 10
60.0082
 20
60.4227
 30
0.0
 11
60.0082
 21
54.6227
 31
0.0
  0
LINE
  8
0
 62
     0
 10
60.0082
 20
54.6227
 30
0.0
 11
59.206
 21
54.6227
 31
0.0
  0
LINE
  8
0
 62
     0
 10
59.206
 20
54.6227
 30
0.0
 11
59.206
 21
51.5235
 31
0.0
  0
LINE
  8
0
 62
     0
 10
59.206
 20
51.5235
 30
0.0
 11
60.0082
 21
51.5235
 31
0.0
  0
LINE
  8
0
 62
     0
 10
60.0082
 20
51.5235
 30
0.0
 11
60.0082
 21
50.5231
 31
0.0
  0
LINE
  8
0
 62
     0
 10
60.0082
 20
50.5231
 30
0.0
 11
74.0075
 21
50.5231
 31
0.0
  0
LINE
  8
0
 62
     0
 10
74.0075
 20
50.5231
 30
0.0
 11
74.0075
 21
51.5235
 31
0.0
  0
LINE
  8
0
 62
     0
 10
74.0075
 20
51.5235
 30
0.0
 11
74.8069
 21
51.5235
 31
0.0
  0
LINE
  8
0
 62
     0
 10
74.8069
 20
51.5235
 30
0.0
 11
74.8069
 21
54.6227
 31
0.0
  0
LINE
  8
0
 62
     0
 10
74.8069
 20
54.6227
 30
0.0
 11
74.0075
 21
54.6227
 31
0.0
  0
LINE
  8
0
 62
     0
 10
74.0075
 20
54.6227
 30
0.0
 11
74.0075
 21
60.4227
 31
0.0
  0
LINE
  8
0
 62
     0
 10
74.0075
 20
60.4227
 30
0.0
 11
74.8069
 21
60.4227
 31
0.0
  0
LINE
  8
0
 62
     0
 10
74.8069
 20
60.4227
 30
0.0
 11
74.8069
 21
63.5233
 31
0.0
  0
LINE
  8
0
 62
     0
 10
74.8069
 20
63.5233
 30
0.0
 11
74.0075
 21
63.5233
 31
0.0
  0
LINE
  8
0
 62
     0
 10
74.0075
 20
63.5233
 30
0.0
 11
74.0075
 21
64.5223
 31
0.0
  0
LINE
  8
0
 62
     0
 10
74.0075
 20
64.5223
 30
0.0
 11
60.0082
 21
64.5223
 31
0.0
  0
LINE
  8
0
 62
     0
 10
40.9582
 20
64.5223
 30
0.0
 11
40.9582
 21
63.5233
 31
0.0
  0
LINE
  8
0
 62
     0
 10
40.9582
 20
63.5233
 30
0.0
 11
40.1574
 21
63.5233
 31
0.0
  0
LINE
  8
0
 62
     0
 10
40.1574
 20
63.5233
 30
0.0
 11
40.1574
 21
60.4227
 31
0.0
  0
LINE
  8
0
 62
     0
 10
40.1574
 20
60.4227
 30
0.0
 11
40.9582
 21
60.4227
 31
0.0
  0
LINE
  8
0
 62
     0
 10
40.9582
 20
60.4227
 30
0.0
 11
40.9582
 21
54.6227
 31
0.0
  0
LINE
  8
0
 62
     0
 10
40.9582
 20
54.6227
 30
0.0
 11
40.1574
 21
54.6227
 31
0.0
  0
LINE
  8
0
 62
     0
 10
40.1574
 20
54.6227
 30
0.0
 11
40.1574
 21
51.5235
 31
0.0
  0
LINE
  8
0
 62
     0
 10
40.1574
 20
51.5235
 30
0.0
 11
40.9582
 21
51.5235
 31
0.0
  0
LINE
  8
0
 62
     0
 10
40.9582
 20
51.5235
 30
0.0
 11
40.9582
 21
50.5231
 31
0.0
  0
LINE
  8
0
 62
     0
 10
40.9582
 20
50.5231
 30
0.0
 11
54.9575
 21
50.5231
 31
0.0
  0
LINE
  8
0
 62
     0
 10
54.9575
 20
50.5231
 30
0.0
 11
54.9575
 21
51.5235
 31
0.0
  0
LINE
  8
0
 62
     0
 10
54.9575
 20
51.5235
 30
0.0
 11
55.7569
 21
51.5235
 31
0.0
  0
LINE
  8
0
 62
     0
 10
55.7569
 20
51.5235
 30
0.0
 11
55.7569
 21
54.6227
 31
0.0
  0
LINE
  8
0
 62
     0
 10
55.7569
 20
54.6227
 30
0.0
 11
54.9575
 21
54.6227
 31
0.0
  0
LINE
  8
0
 62
     0
 10
54.9575
 20
54.6227
 30
0.0
 11
54.9575
 21
60.4227
 31
0.0
  0
LINE
  8
0
 62
     0
 10
54.9575
 20
60.4227
 30
0.0
 11
55.7569
 21
60.4227
 31
0.0
  0
LINE
  8
0
 62
     0
 10
55.7569
 20
60.4227
 30
0.0
 11
55.7569
 21
63.5233
 31
0.0
  0
LINE
  8
0
 62
     0
 10
55.7569
 20
63.5233
 30
0.0
 11
54.9575
 21
63.5233
 31
0.0
  0
LINE
  8
0
 62
     0
 10
54.9575
 20
63.5233
 30
0.0
 11
54.9575
 21
64.5223
 31
0.0
  0
LINE
  8
0
 62
     0
 10
54.9575
 20
64.5223
 30
0.0
 11
40.9582
 21
64.5223
 31
0.0
  0
LINE
  8
0
 62
     0
 10
14.7629
 20
64.5223
 30
0.0
 11
14.7629
 21
63.5233
 31
0.0
  0
LINE
  8
0
 62
     0
 10
14.7629
 20
63.5233
 30
0.0
 11
13.9637
 21
63.5233
 31
0.0
  0
LINE
  8
0
 62
     0
 10
13.9637
 20
63.5233
 30
0.0
 11
13.9637
 21
60.4227
 31
0.0
  0
LINE
  8
0
 62
     0
 10
13.9637
 20
60.4227
 30
0.0
 11
14.7629
 21
60.4227
 31
0.0
  0
LINE
  8
0
 62
     0
 10
14.7629
 20
60.4227
 30
0.0
 11
14.7629
 21
54.6227
 31
0.0
  0
LINE
  8
0
 62
     0
 10
14.7629
 20
54.6227
 30
0.0
 11
13.9637
 21
54.6227
 31
0.0
  0
LINE
  8
0
 62
     0
 10
13.9637
 20
54.6227
 30
0.0
 11
13.9637
 21
51.5235
 31
0.0
  0
LINE
  8
0
 62
     0
 10
13.9637
 20
51.5235
 30
0.0
 11
14.7629
 21
51.5235
 31
0.0
  0
LINE
  8
0
 62
     0
 10
14.7629
 20
51.5235
 30
0.0
 11
14.7629
 21
50.5231
 31
0.0
  0
LINE
  8
0
 62
     0
 10
14.7629
 20
50.5231
 30
0.0
 11
28.7638
 21
50.5231
 31
0.0
  0
LINE
  8
0
 62
     0
 10
28.7638
 20
50.5231
 30
0.0
 11
28.7638
 21
51.5235
 31
0.0
  0
LINE
  8
0
 62
     0
 10
28.7638
 20
51.5235
 30
0.0
 11
29.5631
 21
51.5235
 31
0.0
  0
LINE
  8
0
 62
     0
 10
29.5631
 20
51.5235
 30
0.0
 11
29.5631
 21
54.6227
 31
0.0
  0
LINE
  8
0
 62
     0
 10
29.5631
 20
54.6227
 30
0.0
 11
28.7638
 21
54.6227
 31
0.0
  0
LINE
  8
0
 62
     0
 10
28.7638
 20
54.6227
 30
0.0
 11
28.7638
 21
60.4227
 31
0.0
  0
LINE
  8
0
 62
     0
 10
28.7638
 20
60.4227
 30
0.0
 11
29.5631
 21
60.4227
 31
0.0
  0
LINE
  8
0
 62
     0
 10
29.5631
 20
60.4227
 30
0.0
 11
29.5631
 21
63.5233
 31
0.0
  0
LINE
  8
0
 62
     0
 10
29.5631
 20
63.5233
 30
0.0
 11
28.7638
 21
63.5233
 31
0.0
  0
LINE
  8
0
 62
     0
 10
28.7638
 20
63.5233
 30
0.0
 11
28.7638
 21
64.5223
 31
0.0
  0
LINE
  8
0
 62
     0
 10
28.7638
 20
64.5223
 30
0.0
 11
14.7629
 21
64.5223
 31
0.0
  0
LINE
  8
0
 62
     0
 10
298.133
 20
83.5723
 30
0.0
 11
298.133
 21
82.5733
 31
0.0
  0
LINE
  8
0
 62
     0
 10
298.133
 20
82.5733
 30
0.0
 11
297.332
 21
82.5733
 31
0.0
  0
LINE
  8
0
 62
     0
 10
297.332
 20
82.5733
 30
0.0
 11
297.332
 21
79.4727
 31
0.0
  0
LINE
  8
0
 62
     0
 10
297.332
 20
79.4727
 30
0.0
 11
298.133
 21
79.4727
 31
0.0
  0
LINE
  8
0
 62
     0
 10
298.133
 20
79.4727
 30
0.0
 11
298.133
 21
73.6727
 31
0.0
  0
LINE
  8
0
 62
     0
 10
298.133
 20
73.6727
 30
0.0
 11
297.332
 21
73.6727
 31
0.0
  0
LINE
  8
0
 62
     0
 10
297.332
 20
73.6727
 30
0.0
 11
297.332
 21
70.5735
 31
0.0
  0
LINE
  8
0
 62
     0
 10
297.332
 20
70.5735
 30
0.0
 11
298.133
 21
70.5735
 31
0.0
  0
LINE
  8
0
 62
     0
 10
298.133
 20
70.5735
 30
0.0
 11
298.133
 21
69.5731
 31
0.0
  0
LINE
  8
0
 62
     0
 10
298.133
 20
69.5731
 30
0.0
 11
312.132
 21
69.5731
 31
0.0
  0
LINE
  8
0
 62
     0
 10
312.132
 20
69.5731
 30
0.0
 11
312.132
 21
70.5735
 31
0.0
  0
LINE
  8
0
 62
     0
 10
312.132
 20
70.5735
 30
0.0
 11
312.932
 21
70.5735
 31
0.0
  0
LINE
  8
0
 62
     0
 10
312.932
 20
70.5735
 30
0.0
 11
312.932
 21
73.6727
 31
0.0
  0
LINE
  8
0
 62
     0
 10
312.932
 20
73.6727
 30
0.0
 11
312.132
 21
73.6727
 31
0.0
  0
LINE
  8
0
 62
     0
 10
312.132
 20
73.6727
 30
0.0
 11
312.132
 21
79.4727
 31
0.0
  0
LINE
  8
0
 62
     0
 10
312.132
 20
79.4727
 30
0.0
 11
312.932
 21
79.4727
 31
0.0
  0
LINE
  8
0
 62
     0
 10
312.932
 20
79.4727
 30
0.0
 11
312.932
 21
82.5733
 31
0.0
  0
LINE
  8
0
 62
     0
 10
312.932
 20
82.5733
 30
0.0
 11
312.132
 21
82.5733
 31
0.0
  0
LINE
  8
0
 62
     0
 10
312.132
 20
82.5733
 30
0.0
 11
312.132
 21
83.5723
 31
0.0
  0
LINE
  8
0
 62
     0
 10
312.132
 20
83.5723
 30
0.0
 11
298.133
 21
83.5723
 31
0.0
  0
LINE
  8
0
 62
     0
 10
269.558
 20
83.5723
 30
0.0
 11
269.558
 21
82.5733
 31
0.0
  0
LINE
  8
0
 62
     0
 10
269.558
 20
82.5733
 30
0.0
 11
268.757
 21
82.5733
 31
0.0
  0
LINE
  8
0
 62
     0
 10
268.757
 20
82.5733
 30
0.0
 11
268.757
 21
79.4727
 31
0.0
  0
LINE
  8
0
 62
     0
 10
268.757
 20
79.4727
 30
0.0
 11
269.558
 21
79.4727
 31
0.0
  0
LINE
  8
0
 62
     0
 10
269.558
 20
79.4727
 30
0.0
 11
269.558
 21
73.6727
 31
0.0
  0
LINE
  8
0
 62
     0
 10
269.558
 20
73.6727
 30
0.0
 11
268.757
 21
73.6727
 31
0.0
  0
LINE
  8
0
 62
     0
 10
268.757
 20
73.6727
 30
0.0
 11
268.757
 21
70.5735
 31
0.0
  0
LINE
  8
0
 62
     0
 10
268.757
 20
70.5735
 30
0.0
 11
269.558
 21
70.5735
 31
0.0
  0
LINE
  8
0
 62
     0
 10
269.558
 20
70.5735
 30
0.0
 11
269.558
 21
69.5731
 31
0.0
  0
LINE
  8
0
 62
     0
 10
269.558
 20
69.5731
 30
0.0
 11
283.557
 21
69.5731
 31
0.0
  0
LINE
  8
0
 62
     0
 10
283.557
 20
69.5731
 30
0.0
 11
283.557
 21
70.5735
 31
0.0
  0
LINE
  8
0
 62
     0
 10
283.557
 20
70.5735
 30
0.0
 11
284.357
 21
70.5735
 31
0.0
  0
LINE
  8
0
 62
     0
 10
284.357
 20
70.5735
 30
0.0
 11
284.357
 21
73.6727
 31
0.0
  0
LINE
  8
0
 62
     0
 10
284.357
 20
73.6727
 30
0.0
 11
283.557
 21
73.6727
 31
0.0
  0
LINE
  8
0
 62
     0
 10
283.557
 20
73.6727
 30
0.0
 11
283.557
 21
79.4727
 31
0.0
  0
LINE
  8
0
 62
     0
 10
283.557
 20
79.4727
 30
0.0
 11
284.357
 21
79.4727
 31
0.0
  0
LINE
  8
0
 62
     0
 10
284.357
 20
79.4727
 30
0.0
 11
284.357
 21
82.5733
 31
0.0
  0
LINE
  8
0
 62
     0
 10
284.357
 20
82.5733
 30
0.0
 11
283.557
 21
82.5733
 31
0.0
  0
LINE
  8
0
 62
     0
 10
283.557
 20
82.5733
 30
0.0
 11
283.557
 21
83.5723
 31
0.0
  0
LINE
  8
0
 62
     0
 10
283.557
 20
83.5723
 30
0.0
 11
269.558
 21
83.5723
 31
0.0
  0
LINE
  8
0
 62
     0
 10
245.746
 20
83.5723
 30
0.0
 11
245.746
 21
82.5733
 31
0.0
  0
LINE
  8
0
 62
     0
 10
245.746
 20
82.5733
 30
0.0
 11
244.945
 21
82.5733
 31
0.0
  0
LINE
  8
0
 62
     0
 10
244.945
 20
82.5733
 30
0.0
 11
244.945
 21
79.4727
 31
0.0
  0
LINE
  8
0
 62
     0
 10
244.945
 20
79.4727
 30
0.0
 11
245.746
 21
79.4727
 31
0.0
  0
LINE
  8
0
 62
     0
 10
245.746
 20
79.4727
 30
0.0
 11
245.746
 21
73.6727
 31
0.0
  0
LINE
  8
0
 62
     0
 10
245.746
 20
73.6727
 30
0.0
 11
244.945
 21
73.6727
 31
0.0
  0
LINE
  8
0
 62
     0
 10
244.945
 20
73.6727
 30
0.0
 11
244.945
 21
70.5735
 31
0.0
  0
LINE
  8
0
 62
     0
 10
244.945
 20
70.5735
 30
0.0
 11
245.746
 21
70.5735
 31
0.0
  0
LINE
  8
0
 62
     0
 10
245.746
 20
70.5735
 30
0.0
 11
245.746
 21
69.5731
 31
0.0
  0
LINE
  8
0
 62
     0
 10
245.746
 20
69.5731
 30
0.0
 11
259.745
 21
69.5731
 31
0.0
  0
LINE
  8
0
 62
     0
 10
259.745
 20
69.5731
 30
0.0
 11
259.745
 21
70.5735
 31
0.0
  0
LINE
  8
0
 62
     0
 10
259.745
 20
70.5735
 30
0.0
 11
260.546
 21
70.5735
 31
0.0
  0
LINE
  8
0
 62
     0
 10
260.546
 20
70.5735
 30
0.0
 11
260.546
 21
73.6727
 31
0.0
  0
LINE
  8
0
 62
     0
 10
260.546
 20
73.6727
 30
0.0
 11
259.745
 21
73.6727
 31
0.0
  0
LINE
  8
0
 62
     0
 10
259.745
 20
73.6727
 30
0.0
 11
259.745
 21
79.4727
 31
0.0
  0
LINE
  8
0
 62
     0
 10
259.745
 20
79.4727
 30
0.0
 11
260.546
 21
79.4727
 31
0.0
  0
LINE
  8
0
 62
     0
 10
260.546
 20
79.4727
 30
0.0
 11
260.546
 21
82.5733
 31
0.0
  0
LINE
  8
0
 62
     0
 10
260.546
 20
82.5733
 30
0.0
 11
259.745
 21
82.5733
 31
0.0
  0
LINE
  8
0
 62
     0
 10
259.745
 20
82.5733
 30
0.0
 11
259.745
 21
83.5723
 31
0.0
  0
LINE
  8
0
 62
     0
 10
259.745
 20
83.5723
 30
0.0
 11
245.746
 21
83.5723
 31
0.0
  0
LINE
  8
0
 62
     0
 10
226.696
 20
83.5723
 30
0.0
 11
226.696
 21
82.5733
 31
0.0
  0
LINE
  8
0
 62
     0
 10
226.696
 20
82.5733
 30
0.0
 11
225.895
 21
82.5733
 31
0.0
  0
LINE
  8
0
 62
     0
 10
225.895
 20
82.5733
 30
0.0
 11
225.895
 21
79.4727
 31
0.0
  0
LINE
  8
0
 62
     0
 10
225.895
 20
79.4727
 30
0.0
 11
226.696
 21
79.4727
 31
0.0
  0
LINE
  8
0
 62
     0
 10
226.696
 20
79.4727
 30
0.0
 11
226.696
 21
73.6727
 31
0.0
  0
LINE
  8
0
 62
     0
 10
226.696
 20
73.6727
 30
0.0
 11
225.895
 21
73.6727
 31
0.0
  0
LINE
  8
0
 62
     0
 10
225.895
 20
73.6727
 30
0.0
 11
225.895
 21
70.5735
 31
0.0
  0
LINE
  8
0
 62
     0
 10
225.895
 20
70.5735
 30
0.0
 11
226.696
 21
70.5735
 31
0.0
  0
LINE
  8
0
 62
     0
 10
226.696
 20
70.5735
 30
0.0
 11
226.696
 21
69.5731
 31
0.0
  0
LINE
  8
0
 62
     0
 10
226.696
 20
69.5731
 30
0.0
 11
240.695
 21
69.5731
 31
0.0
  0
LINE
  8
0
 62
     0
 10
240.695
 20
69.5731
 30
0.0
 11
240.695
 21
70.5735
 31
0.0
  0
LINE
  8
0
 62
     0
 10
240.695
 20
70.5735
 30
0.0
 11
241.496
 21
70.5735
 31
0.0
  0
LINE
  8
0
 62
     0
 10
241.496
 20
70.5735
 30
0.0
 11
241.496
 21
73.6727
 31
0.0
  0
LINE
  8
0
 62
     0
 10
241.496
 20
73.6727
 30
0.0
 11
240.695
 21
73.6727
 31
0.0
  0
LINE
  8
0
 62
     0
 10
240.695
 20
73.6727
 30
0.0
 11
240.695
 21
79.4727
 31
0.0
  0
LINE
  8
0
 62
     0
 10
240.695
 20
79.4727
 30
0.0
 11
241.496
 21
79.4727
 31
0.0
  0
LINE
  8
0
 62
     0
 10
241.496
 20
79.4727
 30
0.0
 11
241.496
 21
82.5733
 31
0.0
  0
LINE
  8
0
 62
     0
 10
241.496
 20
82.5733
 30
0.0
 11
240.695
 21
82.5733
 31
0.0
  0
LINE
  8
0
 62
     0
 10
240.695
 20
82.5733
 30
0.0
 11
240.695
 21
83.5723
 31
0.0
  0
LINE
  8
0
 62
     0
 10
240.695
 20
83.5723
 30
0.0
 11
226.696
 21
83.5723
 31
0.0
  0
LINE
  8
0
 62
     0
 10
207.646
 20
83.5723
 30
0.0
 11
207.646
 21
82.5733
 31
0.0
  0
LINE
  8
0
 62
     0
 10
207.646
 20
82.5733
 30
0.0
 11
206.845
 21
82.5733
 31
0.0
  0
LINE
  8
0
 62
     0
 10
206.845
 20
82.5733
 30
0.0
 11
206.845
 21
79.4727
 31
0.0
  0
LINE
  8
0
 62
     0
 10
206.845
 20
79.4727
 30
0.0
 11
207.646
 21
79.4727
 31
0.0
  0
LINE
  8
0
 62
     0
 10
207.646
 20
79.4727
 30
0.0
 11
207.646
 21
73.6727
 31
0.0
  0
LINE
  8
0
 62
     0
 10
207.646
 20
73.6727
 30
0.0
 11
206.845
 21
73.6727
 31
0.0
  0
LINE
  8
0
 62
     0
 10
206.845
 20
73.6727
 30
0.0
 11
206.845
 21
70.5735
 31
0.0
  0
LINE
  8
0
 62
     0
 10
206.845
 20
70.5735
 30
0.0
 11
207.646
 21
70.5735
 31
0.0
  0
LINE
  8
0
 62
     0
 10
207.646
 20
70.5735
 30
0.0
 11
207.646
 21
69.5731
 31
0.0
  0
LINE
  8
0
 62
     0
 10
207.646
 20
69.5731
 30
0.0
 11
221.645
 21
69.5731
 31
0.0
  0
LINE
  8
0
 62
     0
 10
221.645
 20
69.5731
 30
0.0
 11
221.645
 21
70.5735
 31
0.0
  0
LINE
  8
0
 62
     0
 10
221.645
 20
70.5735
 30
0.0
 11
222.446
 21
70.5735
 31
0.0
  0
LINE
  8
0
 62
     0
 10
222.446
 20
70.5735
 30
0.0
 11
222.446
 21
73.6727
 31
0.0
  0
LINE
  8
0
 62
     0
 10
222.446
 20
73.6727
 30
0.0
 11
221.645
 21
73.6727
 31
0.0
  0
LINE
  8
0
 62
     0
 10
221.645
 20
73.6727
 30
0.0
 11
221.645
 21
79.4727
 31
0.0
  0
LINE
  8
0
 62
     0
 10
221.645
 20
79.4727
 30
0.0
 11
222.446
 21
79.4727
 31
0.0
  0
LINE
  8
0
 62
     0
 10
222.446
 20
79.4727
 30
0.0
 11
222.446
 21
82.5733
 31
0.0
  0
LINE
  8
0
 62
     0
 10
222.446
 20
82.5733
 30
0.0
 11
221.645
 21
82.5733
 31
0.0
  0
LINE
  8
0
 62
     0
 10
221.645
 20
82.5733
 30
0.0
 11
221.645
 21
83.5723
 31
0.0
  0
LINE
  8
0
 62
     0
 10
221.645
 20
83.5723
 30
0.0
 11
207.646
 21
83.5723
 31
0.0
  0
LINE
  8
0
 62
     0
 10
188.596
 20
83.5723
 30
0.0
 11
188.596
 21
82.5733
 31
0.0
  0
LINE
  8
0
 62
     0
 10
188.596
 20
82.5733
 30
0.0
 11
187.795
 21
82.5733
 31
0.0
  0
LINE
  8
0
 62
     0
 10
187.795
 20
82.5733
 30
0.0
 11
187.795
 21
79.4727
 31
0.0
  0
LINE
  8
0
 62
     0
 10
187.795
 20
79.4727
 30
0.0
 11
188.596
 21
79.4727
 31
0.0
  0
LINE
  8
0
 62
     0
 10
188.596
 20
79.4727
 30
0.0
 11
188.596
 21
73.6727
 31
0.0
  0
LINE
  8
0
 62
     0
 10
188.596
 20
73.6727
 30
0.0
 11
187.795
 21
73.6727
 31
0.0
  0
LINE
  8
0
 62
     0
 10
187.795
 20
73.6727
 30
0.0
 11
187.795
 21
70.5735
 31
0.0
  0
LINE
  8
0
 62
     0
 10
187.795
 20
70.5735
 30
0.0
 11
188.596
 21
70.5735
 31
0.0
  0
LINE
  8
0
 62
     0
 10
188.596
 20
70.5735
 30
0.0
 11
188.596
 21
69.5731
 31
0.0
  0
LINE
  8
0
 62
     0
 10
188.596
 20
69.5731
 30
0.0
 11
202.595
 21
69.5731
 31
0.0
  0
LINE
  8
0
 62
     0
 10
202.595
 20
69.5731
 30
0.0
 11
202.595
 21
70.5735
 31
0.0
  0
LINE
  8
0
 62
     0
 10
202.595
 20
70.5735
 30
0.0
 11
203.396
 21
70.5735
 31
0.0
  0
LINE
  8
0
 62
     0
 10
203.396
 20
70.5735
 30
0.0
 11
203.396
 21
73.6727
 31
0.0
  0
LINE
  8
0
 62
     0
 10
203.396
 20
73.6727
 30
0.0
 11
202.595
 21
73.6727
 31
0.0
  0
LINE
  8
0
 62
     0
 10
202.595
 20
73.6727
 30
0.0
 11
202.595
 21
79.4727
 31
0.0
  0
LINE
  8
0
 62
     0
 10
202.595
 20
79.4727
 30
0.0
 11
203.396
 21
79.4727
 31
0.0
  0
LINE
  8
0
 62
     0
 10
203.396
 20
79.4727
 30
0.0
 11
203.396
 21
82.5733
 31
0.0
  0
LINE
  8
0
 62
     0
 10
203.396
 20
82.5733
 30
0.0
 11
202.595
 21
82.5733
 31
0.0
  0
LINE
  8
0
 62
     0
 10
202.595
 20
82.5733
 30
0.0
 11
202.595
 21
83.5723
 31
0.0
  0
LINE
  8
0
 62
     0
 10
202.595
 20
83.5723
 30
0.0
 11
188.596
 21
83.5723
 31
0.0
  0
LINE
  8
0
 62
     0
 10
169.546
 20
83.5723
 30
0.0
 11
169.546
 21
82.5733
 31
0.0
  0
LINE
  8
0
 62
     0
 10
169.546
 20
82.5733
 30
0.0
 11
168.745
 21
82.5733
 31
0.0
  0
LINE
  8
0
 62
     0
 10
168.745
 20
82.5733
 30
0.0
 11
168.745
 21
79.4727
 31
0.0
  0
LINE
  8
0
 62
     0
 10
168.745
 20
79.4727
 30
0.0
 11
169.546
 21
79.4727
 31
0.0
  0
LINE
  8
0
 62
     0
 10
169.546
 20
79.4727
 30
0.0
 11
169.546
 21
73.6727
 31
0.0
  0
LINE
  8
0
 62
     0
 10
169.546
 20
73.6727
 30
0.0
 11
168.745
 21
73.6727
 31
0.0
  0
LINE
  8
0
 62
     0
 10
168.745
 20
73.6727
 30
0.0
 11
168.745
 21
70.5735
 31
0.0
  0
LINE
  8
0
 62
     0
 10
168.745
 20
70.5735
 30
0.0
 11
169.546
 21
70.5735
 31
0.0
  0
LINE
  8
0
 62
     0
 10
169.546
 20
70.5735
 30
0.0
 11
169.546
 21
69.5731
 31
0.0
  0
LINE
  8
0
 62
     0
 10
169.546
 20
69.5731
 30
0.0
 11
183.545
 21
69.5731
 31
0.0
  0
LINE
  8
0
 62
     0
 10
183.545
 20
69.5731
 30
0.0
 11
183.545
 21
70.5735
 31
0.0
  0
LINE
  8
0
 62
     0
 10
183.545
 20
70.5735
 30
0.0
 11
184.346
 21
70.5735
 31
0.0
  0
LINE
  8
0
 62
     0
 10
184.346
 20
70.5735
 30
0.0
 11
184.346
 21
73.6727
 31
0.0
  0
LINE
  8
0
 62
     0
 10
184.346
 20
73.6727
 30
0.0
 11
183.545
 21
73.6727
 31
0.0
  0
LINE
  8
0
 62
     0
 10
183.545
 20
73.6727
 30
0.0
 11
183.545
 21
79.4727
 31
0.0
  0
LINE
  8
0
 62
     0
 10
183.545
 20
79.4727
 30
0.0
 11
184.346
 21
79.4727
 31
0.0
  0
LINE
  8
0
 62
     0
 10
184.346
 20
79.4727
 30
0.0
 11
184.346
 21
82.5733
 31
0.0
  0
LINE
  8
0
 62
     0
 10
184.346
 20
82.5733
 30
0.0
 11
183.545
 21
82.5733
 31
0.0
  0
LINE
  8
0
 62
     0
 10
183.545
 20
82.5733
 30
0.0
 11
183.545
 21
83.5723
 31
0.0
  0
LINE
  8
0
 62
     0
 10
183.545
 20
83.5723
 30
0.0
 11
169.546
 21
83.5723
 31
0.0
  0
LINE
  8
0
 62
     0
 10
150.496
 20
83.5723
 30
0.0
 11
150.496
 21
82.5733
 31
0.0
  0
LINE
  8
0
 62
     0
 10
150.496
 20
82.5733
 30
0.0
 11
149.695
 21
82.5733
 31
0.0
  0
LINE
  8
0
 62
     0
 10
149.695
 20
82.5733
 30
0.0
 11
149.695
 21
79.4727
 31
0.0
  0
LINE
  8
0
 62
     0
 10
149.695
 20
79.4727
 30
0.0
 11
150.496
 21
79.4727
 31
0.0
  0
LINE
  8
0
 62
     0
 10
150.496
 20
79.4727
 30
0.0
 11
150.496
 21
73.6727
 31
0.0
  0
LINE
  8
0
 62
     0
 10
150.496
 20
73.6727
 30
0.0
 11
149.695
 21
73.6727
 31
0.0
  0
LINE
  8
0
 62
     0
 10
149.695
 20
73.6727
 30
0.0
 11
149.695
 21
70.5735
 31
0.0
  0
LINE
  8
0
 62
     0
 10
149.695
 20
70.5735
 30
0.0
 11
150.496
 21
70.5735
 31
0.0
  0
LINE
  8
0
 62
     0
 10
150.496
 20
70.5735
 30
0.0
 11
150.496
 21
69.5731
 31
0.0
  0
LINE
  8
0
 62
     0
 10
150.496
 20
69.5731
 30
0.0
 11
164.495
 21
69.5731
 31
0.0
  0
LINE
  8
0
 62
     0
 10
164.495
 20
69.5731
 30
0.0
 11
164.495
 21
70.5735
 31
0.0
  0
LINE
  8
0
 62
     0
 10
164.495
 20
70.5735
 30
0.0
 11
165.296
 21
70.5735
 31
0.0
  0
LINE
  8
0
 62
     0
 10
165.296
 20
70.5735
 30
0.0
 11
165.296
 21
73.6727
 31
0.0
  0
LINE
  8
0
 62
     0
 10
165.296
 20
73.6727
 30
0.0
 11
164.495
 21
73.6727
 31
0.0
  0
LINE
  8
0
 62
     0
 10
164.495
 20
73.6727
 30
0.0
 11
164.495
 21
79.4727
 31
0.0
  0
LINE
  8
0
 62
     0
 10
164.495
 20
79.4727
 30
0.0
 11
165.296
 21
79.4727
 31
0.0
  0
LINE
  8
0
 62
     0
 10
165.296
 20
79.4727
 30
0.0
 11
165.296
 21
82.5733
 31
0.0
  0
LINE
  8
0
 62
     0
 10
165.296
 20
82.5733
 30
0.0
 11
164.495
 21
82.5733
 31
0.0
  0
LINE
  8
0
 62
     0
 10
164.495
 20
82.5733
 30
0.0
 11
164.495
 21
83.5723
 31
0.0
  0
LINE
  8
0
 62
     0
 10
164.495
 20
83.5723
 30
0.0
 11
150.496
 21
83.5723
 31
0.0
  0
LINE
  8
0
 62
     0
 10
131.446
 20
83.5723
 30
0.0
 11
131.446
 21
82.5733
 31
0.0
  0
LINE
  8
0
 62
     0
 10
131.446
 20
82.5733
 30
0.0
 11
130.645
 21
82.5733
 31
0.0
  0
LINE
  8
0
 62
     0
 10
130.645
 20
82.5733
 30
0.0
 11
130.645
 21
79.4727
 31
0.0
  0
LINE
  8
0
 62
     0
 10
130.645
 20
79.4727
 30
0.0
 11
131.446
 21
79.4727
 31
0.0
  0
LINE
  8
0
 62
     0
 10
131.446
 20
79.4727
 30
0.0
 11
131.446
 21
73.6727
 31
0.0
  0
LINE
  8
0
 62
     0
 10
131.446
 20
73.6727
 30
0.0
 11
130.645
 21
73.6727
 31
0.0
  0
LINE
  8
0
 62
     0
 10
130.645
 20
73.6727
 30
0.0
 11
130.645
 21
70.5735
 31
0.0
  0
LINE
  8
0
 62
     0
 10
130.645
 20
70.5735
 30
0.0
 11
131.446
 21
70.5735
 31
0.0
  0
LINE
  8
0
 62
     0
 10
131.446
 20
70.5735
 30
0.0
 11
131.446
 21
69.5731
 31
0.0
  0
LINE
  8
0
 62
     0
 10
131.446
 20
69.5731
 30
0.0
 11
145.445
 21
69.5731
 31
0.0
  0
LINE
  8
0
 62
     0
 10
145.445
 20
69.5731
 30
0.0
 11
145.445
 21
70.5735
 31
0.0
  0
LINE
  8
0
 62
     0
 10
145.445
 20
70.5735
 30
0.0
 11
146.246
 21
70.5735
 31
0.0
  0
LINE
  8
0
 62
     0
 10
146.246
 20
70.5735
 30
0.0
 11
146.246
 21
73.6727
 31
0.0
  0
LINE
  8
0
 62
     0
 10
146.246
 20
73.6727
 30
0.0
 11
145.445
 21
73.6727
 31
0.0
  0
LINE
  8
0
 62
     0
 10
145.445
 20
73.6727
 30
0.0
 11
145.445
 21
79.4727
 31
0.0
  0
LINE
  8
0
 62
     0
 10
145.445
 20
79.4727
 30
0.0
 11
146.246
 21
79.4727
 31
0.0
  0
LINE
  8
0
 62
     0
 10
146.246
 20
79.4727
 30
0.0
 11
146.246
 21
82.5733
 31
0.0
  0
LINE
  8
0
 62
     0
 10
146.246
 20
82.5733
 30
0.0
 11
145.445
 21
82.5733
 31
0.0
  0
LINE
  8
0
 62
     0
 10
145.445
 20
82.5733
 30
0.0
 11
145.445
 21
83.5723
 31
0.0
  0
LINE
  8
0
 62
     0
 10
145.445
 20
83.5723
 30
0.0
 11
131.446
 21
83.5723
 31
0.0
  0
LINE
  8
0
 62
     0
 10
112.396
 20
83.5723
 30
0.0
 11
112.396
 21
82.5733
 31
0.0
  0
LINE
  8
0
 62
     0
 10
112.396
 20
82.5733
 30
0.0
 11
111.595
 21
82.5733
 31
0.0
  0
LINE
  8
0
 62
     0
 10
111.595
 20
82.5733
 30
0.0
 11
111.595
 21
79.4727
 31
0.0
  0
LINE
  8
0
 62
     0
 10
111.595
 20
79.4727
 30
0.0
 11
112.396
 21
79.4727
 31
0.0
  0
LINE
  8
0
 62
     0
 10
112.396
 20
79.4727
 30
0.0
 11
112.396
 21
73.6727
 31
0.0
  0
LINE
  8
0
 62
     0
 10
112.396
 20
73.6727
 30
0.0
 11
111.595
 21
73.6727
 31
0.0
  0
LINE
  8
0
 62
     0
 10
111.595
 20
73.6727
 30
0.0
 11
111.595
 21
70.5735
 31
0.0
  0
LINE
  8
0
 62
     0
 10
111.595
 20
70.5735
 30
0.0
 11
112.396
 21
70.5735
 31
0.0
  0
LINE
  8
0
 62
     0
 10
112.396
 20
70.5735
 30
0.0
 11
112.396
 21
69.5731
 31
0.0
  0
LINE
  8
0
 62
     0
 10
112.396
 20
69.5731
 30
0.0
 11
126.395
 21
69.5731
 31
0.0
  0
LINE
  8
0
 62
     0
 10
126.395
 20
69.5731
 30
0.0
 11
126.395
 21
70.5735
 31
0.0
  0
LINE
  8
0
 62
     0
 10
126.395
 20
70.5735
 30
0.0
 11
127.196
 21
70.5735
 31
0.0
  0
LINE
  8
0
 62
     0
 10
127.196
 20
70.5735
 30
0.0
 11
127.196
 21
73.6727
 31
0.0
  0
LINE
  8
0
 62
     0
 10
127.196
 20
73.6727
 30
0.0
 11
126.395
 21
73.6727
 31
0.0
  0
LINE
  8
0
 62
     0
 10
126.395
 20
73.6727
 30
0.0
 11
126.395
 21
79.4727
 31
0.0
  0
LINE
  8
0
 62
     0
 10
126.395
 20
79.4727
 30
0.0
 11
127.196
 21
79.4727
 31
0.0
  0
LINE
  8
0
 62
     0
 10
127.196
 20
79.4727
 30
0.0
 11
127.196
 21
82.5733
 31
0.0
  0
LINE
  8
0
 62
     0
 10
127.196
 20
82.5733
 30
0.0
 11
126.395
 21
82.5733
 31
0.0
  0
LINE
  8
0
 62
     0
 10
126.395
 20
82.5733
 30
0.0
 11
126.395
 21
83.5723
 31
0.0
  0
LINE
  8
0
 62
     0
 10
126.395
 20
83.5723
 30
0.0
 11
112.396
 21
83.5723
 31
0.0
  0
LINE
  8
0
 62
     0
 10
93.3457
 20
83.5723
 30
0.0
 11
93.3457
 21
82.5733
 31
0.0
  0
LINE
  8
0
 62
     0
 10
93.3457
 20
82.5733
 30
0.0
 11
92.5449
 21
82.5733
 31
0.0
  0
LINE
  8
0
 62
     0
 10
92.5449
 20
82.5733
 30
0.0
 11
92.5449
 21
79.4727
 31
0.0
  0
LINE
  8
0
 62
     0
 10
92.5449
 20
79.4727
 30
0.0
 11
93.3457
 21
79.4727
 31
0.0
  0
LINE
  8
0
 62
     0
 10
93.3457
 20
79.4727
 30
0.0
 11
93.3457
 21
73.6727
 31
0.0
  0
LINE
  8
0
 62
     0
 10
93.3457
 20
73.6727
 30
0.0
 11
92.5449
 21
73.6727
 31
0.0
  0
LINE
  8
0
 62
     0
 10
92.5449
 20
73.6727
 30
0.0
 11
92.5449
 21
70.5735
 31
0.0
  0
LINE
  8
0
 62
     0
 10
92.5449
 20
70.5735
 30
0.0
 11
93.3457
 21
70.5735
 31
0.0
  0
LINE
  8
0
 62
     0
 10
93.3457
 20
70.5735
 30
0.0
 11
93.3457
 21
69.5731
 31
0.0
  0
LINE
  8
0
 62
     0
 10
93.3457
 20
69.5731
 30
0.0
 11
107.345
 21
69.5731
 31
0.0
  0
LINE
  8
0
 62
     0
 10
107.345
 20
69.5731
 30
0.0
 11
107.345
 21
70.5735
 31
0.0
  0
LINE
  8
0
 62
     0
 10
107.345
 20
70.5735
 30
0.0
 11
108.146
 21
70.5735
 31
0.0
  0
LINE
  8
0
 62
     0
 10
108.146
 20
70.5735
 30
0.0
 11
108.146
 21
73.6727
 31
0.0
  0
LINE
  8
0
 62
     0
 10
108.146
 20
73.6727
 30
0.0
 11
107.345
 21
73.6727
 31
0.0
  0
LINE
  8
0
 62
     0
 10
107.345
 20
73.6727
 30
0.0
 11
107.345
 21
79.4727
 31
0.0
  0
LINE
  8
0
 62
     0
 10
107.345
 20
79.4727
 30
0.0
 11
108.146
 21
79.4727
 31
0.0
  0
LINE
  8
0
 62
     0
 10
108.146
 20
79.4727
 30
0.0
 11
108.146
 21
82.5733
 31
0.0
  0
LINE
  8
0
 62
     0
 10
108.146
 20
82.5733
 30
0.0
 11
107.345
 21
82.5733
 31
0.0
  0
LINE
  8
0
 62
     0
 10
107.345
 20
82.5733
 30
0.0
 11
107.345
 21
83.5723
 31
0.0
  0
LINE
  8
0
 62
     0
 10
107.345
 20
83.5723
 30
0.0
 11
93.3457
 21
83.5723
 31
0.0
  0
LINE
  8
0
 62
     0
 10
74.2957
 20
83.5723
 30
0.0
 11
74.2957
 21
82.5733
 31
0.0
  0
LINE
  8
0
 62
     0
 10
74.2957
 20
82.5733
 30
0.0
 11
73.4949
 21
82.5733
 31
0.0
  0
LINE
  8
0
 62
     0
 10
73.4949
 20
82.5733
 30
0.0
 11
73.4949
 21
79.4727
 31
0.0
  0
LINE
  8
0
 62
     0
 10
73.4949
 20
79.4727
 30
0.0
 11
74.2957
 21
79.4727
 31
0.0
  0
LINE
  8
0
 62
     0
 10
74.2957
 20
79.4727
 30
0.0
 11
74.2957
 21
73.6727
 31
0.0
  0
LINE
  8
0
 62
     0
 10
74.2957
 20
73.6727
 30
0.0
 11
73.4949
 21
73.6727
 31
0.0
  0
LINE
  8
0
 62
     0
 10
73.4949
 20
73.6727
 30
0.0
 11
73.4949
 21
70.5735
 31
0.0
  0
LINE
  8
0
 62
     0
 10
73.4949
 20
70.5735
 30
0.0
 11
74.2957
 21
70.5735
 31
0.0
  0
LINE
  8
0
 62
     0
 10
74.2957
 20
70.5735
 30
0.0
 11
74.2957
 21
69.5731
 31
0.0
  0
LINE
  8
0
 62
     0
 10
74.2957
 20
69.5731
 30
0.0
 11
88.295
 21
69.5731
 31
0.0
  0
LINE
  8
0
 62
     0
 10
88.295
 20
69.5731
 30
0.0
 11
88.295
 21
70.5735
 31
0.0
  0
LINE
  8
0
 62
     0
 10
88.295
 20
70.5735
 30
0.0
 11
89.0958
 21
70.5735
 31
0.0
  0
LINE
  8
0
 62
     0
 10
89.0958
 20
70.5735
 30
0.0
 11
89.0958
 21
73.6727
 31
0.0
  0
LINE
  8
0
 62
     0
 10
89.0958
 20
73.6727
 30
0.0
 11
88.295
 21
73.6727
 31
0.0
  0
LINE
  8
0
 62
     0
 10
88.295
 20
73.6727
 30
0.0
 11
88.295
 21
79.4727
 31
0.0
  0
LINE
  8
0
 62
     0
 10
88.295
 20
79.4727
 30
0.0
 11
89.0958
 21
79.4727
 31
0.0
  0
LINE
  8
0
 62
     0
 10
89.0958
 20
79.4727
 30
0.0
 11
89.0958
 21
82.5733
 31
0.0
  0
LINE
  8
0
 62
     0
 10
89.0958
 20
82.5733
 30
0.0
 11
88.295
 21
82.5733
 31
0.0
  0
LINE
  8
0
 62
     0
 10
88.295
 20
82.5733
 30
0.0
 11
88.295
 21
83.5723
 31
0.0
  0
LINE
  8
0
 62
     0
 10
88.295
 20
83.5723
 30
0.0
 11
74.2957
 21
83.5723
 31
0.0
  0
LINE
  8
0
 62
     0
 10
55.2457
 20
83.5723
 30
0.0
 11
55.2457
 21
82.5733
 31
0.0
  0
LINE
  8
0
 62
     0
 10
55.2457
 20
82.5733
 30
0.0
 11
54.4449
 21
82.5733
 31
0.0
  0
LINE
  8
0
 62
     0
 10
54.4449
 20
82.5733
 30
0.0
 11
54.4449
 21
79.4727
 31
0.0
  0
LINE
  8
0
 62
     0
 10
54.4449
 20
79.4727
 30
0.0
 11
55.2457
 21
79.4727
 31
0.0
  0
LINE
  8
0
 62
     0
 10
55.2457
 20
79.4727
 30
0.0
 11
55.2457
 21
73.6727
 31
0.0
  0
LINE
  8
0
 62
     0
 10
55.2457
 20
73.6727
 30
0.0
 11
54.4449
 21
73.6727
 31
0.0
  0
LINE
  8
0
 62
     0
 10
54.4449
 20
73.6727
 30
0.0
 11
54.4449
 21
70.5735
 31
0.0
  0
LINE
  8
0
 62
     0
 10
54.4449
 20
70.5735
 30
0.0
 11
55.2457
 21
70.5735
 31
0.0
  0
LINE
  8
0
 62
     0
 10
55.2457
 20
70.5735
 30
0.0
 11
55.2457
 21
69.5731
 31
0.0
  0
LINE
  8
0
 62
     0
 10
55.2457
 20
69.5731
 30
0.0
 11
69.245
 21
69.5731
 31
0.0
  0
LINE
  8
0
 62
     0
 10
69.245
 20
69.5731
 30
0.0
 11
69.245
 21
70.5735
 31
0.0
  0
LINE
  8
0
 62
     0
 10
69.245
 20
70.5735
 30
0.0
 11
70.0458
 21
70.5735
 31
0.0
  0
LINE
  8
0
 62
     0
 10
70.0458
 20
70.5735
 30
0.0
 11
70.0458
 21
73.6727
 31
0.0
  0
LINE
  8
0
 62
     0
 10
70.0458
 20
73.6727
 30
0.0
 11
69.245
 21
73.6727
 31
0.0
  0
LINE
  8
0
 62
     0
 10
69.245
 20
73.6727
 30
0.0
 11
69.245
 21
79.4727
 31
0.0
  0
LINE
  8
0
 62
     0
 10
69.245
 20
79.4727
 30
0.0
 11
70.0458
 21
79.4727
 31
0.0
  0
LINE
  8
0
 62
     0
 10
70.0458
 20
79.4727
 30
0.0
 11
70.0458
 21
82.5733
 31
0.0
  0
LINE
  8
0
 62
     0
 10
70.0458
 20
82.5733
 30
0.0
 11
69.245
 21
82.5733
 31
0.0
  0
LINE
  8
0
 62
     0
 10
69.245
 20
82.5733
 30
0.0
 11
69.245
 21
83.5723
 31
0.0
  0
LINE
  8
0
 62
     0
 10
69.245
 20
83.5723
 30
0.0
 11
55.2457
 21
83.5723
 31
0.0
  0
LINE
  8
0
 62
     0
 10
36.1957
 20
83.5723
 30
0.0
 11
36.1957
 21
82.5733
 31
0.0
  0
LINE
  8
0
 62
     0
 10
36.1957
 20
82.5733
 30
0.0
 11
35.3949
 21
82.5733
 31
0.0
  0
LINE
  8
0
 62
     0
 10
35.3949
 20
82.5733
 30
0.0
 11
35.3949
 21
79.4727
 31
0.0
  0
LINE
  8
0
 62
     0
 10
35.3949
 20
79.4727
 30
0.0
 11
36.1957
 21
79.4727
 31
0.0
  0
LINE
  8
0
 62
     0
 10
36.1957
 20
79.4727
 30
0.0
 11
36.1957
 21
73.6727
 31
0.0
  0
LINE
  8
0
 62
     0
 10
36.1957
 20
73.6727
 30
0.0
 11
35.3949
 21
73.6727
 31
0.0
  0
LINE
  8
0
 62
     0
 10
35.3949
 20
73.6727
 30
0.0
 11
35.3949
 21
70.5735
 31
0.0
  0
LINE
  8
0
 62
     0
 10
35.3949
 20
70.5735
 30
0.0
 11
36.1957
 21
70.5735
 31
0.0
  0
LINE
  8
0
 62
     0
 10
36.1957
 20
70.5735
 30
0.0
 11
36.1957
 21
69.5731
 31
0.0
  0
LINE
  8
0
 62
     0
 10
36.1957
 20
69.5731
 30
0.0
 11
50.195
 21
69.5731
 31
0.0
  0
LINE
  8
0
 62
     0
 10
50.195
 20
69.5731
 30
0.0
 11
50.195
 21
70.5735
 31
0.0
  0
LINE
  8
0
 62
     0
 10
50.195
 20
70.5735
 30
0.0
 11
50.9958
 21
70.5735
 31
0.0
  0
LINE
  8
0
 62
     0
 10
50.9958
 20
70.5735
 30
0.0
 11
50.9958
 21
73.6727
 31
0.0
  0
LINE
  8
0
 62
     0
 10
50.9958
 20
73.6727
 30
0.0
 11
50.195
 21
73.6727
 31
0.0
  0
LINE
  8
0
 62
     0
 10
50.195
 20
73.6727
 30
0.0
 11
50.195
 21
79.4727
 31
0.0
  0
LINE
  8
0
 62
     0
 10
50.195
 20
79.4727
 30
0.0
 11
50.9958
 21
79.4727
 31
0.0
  0
LINE
  8
0
 62
     0
 10
50.9958
 20
79.4727
 30
0.0
 11
50.9958
 21
82.5733
 31
0.0
  0
LINE
  8
0
 62
     0
 10
50.9958
 20
82.5733
 30
0.0
 11
50.195
 21
82.5733
 31
0.0
  0
LINE
  8
0
 62
     0
 10
50.195
 20
82.5733
 30
0.0
 11
50.195
 21
83.5723
 31
0.0
  0
LINE
  8
0
 62
     0
 10
50.195
 20
83.5723
 30
0.0
 11
36.1957
 21
83.5723
 31
0.0
  0
LINE
  8
0
 62
     0
 10
12.3831
 20
83.5723
 30
0.0
 11
12.3831
 21
82.5733
 31
0.0
  0
LINE
  8
0
 62
     0
 10
12.3831
 20
82.5733
 30
0.0
 11
11.5824
 21
82.5733
 31
0.0
  0
LINE
  8
0
 62
     0
 10
11.5824
 20
82.5733
 30
0.0
 11
11.5824
 21
79.4727
 31
0.0
  0
LINE
  8
0
 62
     0
 10
11.5824
 20
79.4727
 30
0.0
 11
12.3831
 21
79.4727
 31
0.0
  0
LINE
  8
0
 62
     0
 10
12.3831
 20
79.4727
 30
0.0
 11
12.3831
 21
73.6727
 31
0.0
  0
LINE
  8
0
 62
     0
 10
12.3831
 20
73.6727
 30
0.0
 11
11.5824
 21
73.6727
 31
0.0
  0
LINE
  8
0
 62
     0
 10
11.5824
 20
73.6727
 30
0.0
 11
11.5824
 21
70.5735
 31
0.0
  0
LINE
  8
0
 62
     0
 10
11.5824
 20
70.5735
 30
0.0
 11
12.3831
 21
70.5735
 31
0.0
  0
LINE
  8
0
 62
     0
 10
12.3831
 20
70.5735
 30
0.0
 11
12.3831
 21
69.5731
 31
0.0
  0
LINE
  8
0
 62
     0
 10
12.3831
 20
69.5731
 30
0.0
 11
26.3826
 21
69.5731
 31
0.0
  0
LINE
  8
0
 62
     0
 10
26.3826
 20
69.5731
 30
0.0
 11
26.3826
 21
70.5735
 31
0.0
  0
LINE
  8
0
 62
     0
 10
26.3826
 20
70.5735
 30
0.0
 11
27.1818
 21
70.5735
 31
0.0
  0
LINE
  8
0
 62
     0
 10
27.1818
 20
70.5735
 30
0.0
 11
27.1818
 21
73.6727
 31
0.0
  0
LINE
  8
0
 62
     0
 10
27.1818
 20
73.6727
 30
0.0
 11
26.3826
 21
73.6727
 31
0.0
  0
LINE
  8
0
 62
     0
 10
26.3826
 20
73.6727
 30
0.0
 11
26.3826
 21
79.4727
 31
0.0
  0
LINE
  8
0
 62
     0
 10
26.3826
 20
79.4727
 30
0.0
 11
27.1818
 21
79.4727
 31
0.0
  0
LINE
  8
0
 62
     0
 10
27.1818
 20
79.4727
 30
0.0
 11
27.1818
 21
82.5733
 31
0.0
  0
LINE
  8
0
 62
     0
 10
27.1818
 20
82.5733
 30
0.0
 11
26.3826
 21
82.5733
 31
0.0
  0
LINE
  8
0
 62
     0
 10
26.3826
 20
82.5733
 30
0.0
 11
26.3826
 21
83.5723
 31
0.0
  0
LINE
  8
0
 62
     0
 10
26.3826
 20
83.5723
 30
0.0
 11
12.3831
 21
83.5723
 31
0.0
  0
LINE
  8
0
 62
     0
 10
264.796
 20
102.622
 30
0.0
 11
264.796
 21
101.623
 31
0.0
  0
LINE
  8
0
 62
     0
 10
264.796
 20
101.623
 30
0.0
 11
263.995
 21
101.623
 31
0.0
  0
LINE
  8
0
 62
     0
 10
263.995
 20
101.623
 30
0.0
 11
263.995
 21
98.5227
 31
0.0
  0
LINE
  8
0
 62
     0
 10
263.995
 20
98.5227
 30
0.0
 11
264.796
 21
98.5227
 31
0.0
  0
LINE
  8
0
 62
     0
 10
264.796
 20
98.5227
 30
0.0
 11
264.796
 21
97.9234
 31
0.0
  0
LINE
  8
0
 62
     0
 10
264.796
 20
97.9234
 30
0.0
 11
263.27
 21
97.9234
 31
0.0
  0
LINE
  8
0
 62
     0
 10
263.27
 20
97.9234
 30
0.0
 11
263.27
 21
101.153
 31
0.0
  0
LINE
  8
0
 62
     0
 10
263.27
 20
101.153
 30
0.0
 11
261.546
 21
101.153
 31
0.0
  0
LINE
  8
0
 62
     0
 10
261.546
 20
101.153
 30
0.0
 11
261.546
 21
102.073
 31
0.0
  0
LINE
  8
0
 62
     0
 10
261.546
 20
102.073
 30
0.0
 11
258.246
 21
102.073
 31
0.0
  0
LINE
  8
0
 62
     0
 10
258.246
 20
102.073
 30
0.0
 11
258.246
 21
101.153
 31
0.0
  0
LINE
  8
0
 62
     0
 10
258.246
 20
101.153
 30
0.0
 11
256.521
 21
101.153
 31
0.0
  0
LINE
  8
0
 62
     0
 10
256.521
 20
101.153
 30
0.0
 11
256.521
 21
97.9234
 31
0.0
  0
LINE
  8
0
 62
     0
 10
256.521
 20
97.9234
 30
0.0
 11
255.695
 21
97.9234
 31
0.0
  0
LINE
  8
0
 62
     0
 10
255.695
 20
97.9234
 30
0.0
 11
255.695
 21
95.1234
 31
0.0
  0
LINE
  8
0
 62
     0
 10
255.695
 20
95.1234
 30
0.0
 11
256.521
 21
95.1234
 31
0.0
  0
LINE
  8
0
 62
     0
 10
256.521
 20
95.1234
 30
0.0
 11
256.521
 21
88.8531
 31
0.0
  0
LINE
  8
0
 62
     0
 10
256.521
 20
88.8531
 30
0.0
 11
258.246
 21
88.8531
 31
0.0
  0
LINE
  8
0
 62
     0
 10
258.246
 20
88.8531
 30
0.0
 11
258.246
 21
87.8734
 31
0.0
  0
LINE
  8
0
 62
     0
 10
258.246
 20
87.8734
 30
0.0
 11
261.546
 21
87.8734
 31
0.0
  0
LINE
  8
0
 62
     0
 10
261.546
 20
87.8734
 30
0.0
 11
261.546
 21
88.8531
 31
0.0
  0
LINE
  8
0
 62
     0
 10
261.546
 20
88.8531
 30
0.0
 11
263.27
 21
88.8531
 31
0.0
  0
LINE
  8
0
 62
     0
 10
263.27
 20
88.8531
 30
0.0
 11
263.27
 21
93.3235
 31
0.0
  0
LINE
  8
0
 62
     0
 10
263.27
 20
93.3235
 30
0.0
 11
264.796
 21
93.3235
 31
0.0
  0
LINE
  8
0
 62
     0
 10
264.796
 20
93.3235
 30
0.0
 11
264.796
 21
92.7227
 31
0.0
  0
LINE
  8
0
 62
     0
 10
264.796
 20
92.7227
 30
0.0
 11
263.995
 21
92.7227
 31
0.0
  0
LINE
  8
0
 62
     0
 10
263.995
 20
92.7227
 30
0.0
 11
263.995
 21
89.6235
 31
0.0
  0
LINE
  8
0
 62
     0
 10
263.995
 20
89.6235
 30
0.0
 11
264.796
 21
89.6235
 31
0.0
  0
LINE
  8
0
 62
     0
 10
264.796
 20
89.6235
 30
0.0
 11
264.796
 21
88.6231
 31
0.0
  0
LINE
  8
0
 62
     0
 10
264.796
 20
88.6231
 30
0.0
 11
278.795
 21
88.6231
 31
0.0
  0
LINE
  8
0
 62
     0
 10
278.795
 20
88.6231
 30
0.0
 11
278.795
 21
89.6235
 31
0.0
  0
LINE
  8
0
 62
     0
 10
278.795
 20
89.6235
 30
0.0
 11
279.596
 21
89.6235
 31
0.0
  0
LINE
  8
0
 62
     0
 10
279.596
 20
89.6235
 30
0.0
 11
279.596
 21
92.7227
 31
0.0
  0
LINE
  8
0
 62
     0
 10
279.596
 20
92.7227
 30
0.0
 11
278.795
 21
92.7227
 31
0.0
  0
LINE
  8
0
 62
     0
 10
278.795
 20
92.7227
 30
0.0
 11
278.795
 21
93.3235
 31
0.0
  0
LINE
  8
0
 62
     0
 10
278.795
 20
93.3235
 30
0.0
 11
280.32
 21
93.3235
 31
0.0
  0
LINE
  8
0
 62
     0
 10
280.32
 20
93.3235
 30
0.0
 11
280.32
 21
88.8531
 31
0.0
  0
LINE
  8
0
 62
     0
 10
280.32
 20
88.8531
 30
0.0
 11
282.046
 21
88.8531
 31
0.0
  0
LINE
  8
0
 62
     0
 10
282.046
 20
88.8531
 30
0.0
 11
282.046
 21
87.8734
 31
0.0
  0
LINE
  8
0
 62
     0
 10
282.046
 20
87.8734
 30
0.0
 11
285.345
 21
87.8734
 31
0.0
  0
LINE
  8
0
 62
     0
 10
285.345
 20
87.8734
 30
0.0
 11
285.345
 21
88.8531
 31
0.0
  0
LINE
  8
0
 62
     0
 10
285.345
 20
88.8531
 30
0.0
 11
287.07
 21
88.8531
 31
0.0
  0
LINE
  8
0
 62
     0
 10
287.07
 20
88.8531
 30
0.0
 11
287.07
 21
95.1234
 31
0.0
  0
LINE
  8
0
 62
     0
 10
287.07
 20
95.1234
 30
0.0
 11
287.896
 21
95.1234
 31
0.0
  0
LINE
  8
0
 62
     0
 10
287.896
 20
95.1234
 30
0.0
 11
287.896
 21
97.9234
 31
0.0
  0
LINE
  8
0
 62
     0
 10
287.896
 20
97.9234
 30
0.0
 11
287.07
 21
97.9234
 31
0.0
  0
LINE
  8
0
 62
     0
 10
287.07
 20
97.9234
 30
0.0
 11
287.07
 21
101.153
 31
0.0
  0
LINE
  8
0
 62
     0
 10
287.07
 20
101.153
 30
0.0
 11
285.345
 21
101.153
 31
0.0
  0
LINE
  8
0
 62
     0
 10
285.345
 20
101.153
 30
0.0
 11
285.345
 21
102.073
 31
0.0
  0
LINE
  8
0
 62
     0
 10
285.345
 20
102.073
 30
0.0
 11
282.046
 21
102.073
 31
0.0
  0
LINE
  8
0
 62
     0
 10
282.046
 20
102.073
 30
0.0
 11
282.046
 21
101.153
 31
0.0
  0
LINE
  8
0
 62
     0
 10
282.046
 20
101.153
 30
0.0
 11
280.32
 21
101.153
 31
0.0
  0
LINE
  8
0
 62
     0
 10
280.32
 20
101.153
 30
0.0
 11
280.32
 21
97.9234
 31
0.0
  0
LINE
  8
0
 62
     0
 10
280.32
 20
97.9234
 30
0.0
 11
278.795
 21
97.9234
 31
0.0
  0
LINE
  8
0
 62
     0
 10
278.795
 20
97.9234
 30
0.0
 11
278.795
 21
98.5227
 31
0.0
  0
LINE
  8
0
 62
     0
 10
278.795
 20
98.5227
 30
0.0
 11
279.596
 21
98.5227
 31
0.0
  0
LINE
  8
0
 62
     0
 10
279.596
 20
98.5227
 30
0.0
 11
279.596
 21
101.623
 31
0.0
  0
LINE
  8
0
 62
     0
 10
279.596
 20
101.623
 30
0.0
 11
278.795
 21
101.623
 31
0.0
  0
LINE
  8
0
 62
     0
 10
278.795
 20
101.623
 30
0.0
 11
278.795
 21
102.622
 31
0.0
  0
LINE
  8
0
 62
     0
 10
278.795
 20
102.622
 30
0.0
 11
264.796
 21
102.622
 31
0.0
  0
LINE
  8
0
 62
     0
 10
298.133
 20
102.622
 30
0.0
 11
298.133
 21
101.623
 31
0.0
  0
LINE
  8
0
 62
     0
 10
298.133
 20
101.623
 30
0.0
 11
297.332
 21
101.623
 31
0.0
  0
LINE
  8
0
 62
     0
 10
297.332
 20
101.623
 30
0.0
 11
297.332
 21
98.5227
 31
0.0
  0
LINE
  8
0
 62
     0
 10
297.332
 20
98.5227
 30
0.0
 11
298.133
 21
98.5227
 31
0.0
  0
LINE
  8
0
 62
     0
 10
298.133
 20
98.5227
 30
0.0
 11
298.133
 21
92.7227
 31
0.0
  0
LINE
  8
0
 62
     0
 10
298.133
 20
92.7227
 30
0.0
 11
297.332
 21
92.7227
 31
0.0
  0
LINE
  8
0
 62
     0
 10
297.332
 20
92.7227
 30
0.0
 11
297.332
 21
89.6235
 31
0.0
  0
LINE
  8
0
 62
     0
 10
297.332
 20
89.6235
 30
0.0
 11
298.133
 21
89.6235
 31
0.0
  0
LINE
  8
0
 62
     0
 10
298.133
 20
89.6235
 30
0.0
 11
298.133
 21
88.6231
 31
0.0
  0
LINE
  8
0
 62
     0
 10
298.133
 20
88.6231
 30
0.0
 11
312.132
 21
88.6231
 31
0.0
  0
LINE
  8
0
 62
     0
 10
312.132
 20
88.6231
 30
0.0
 11
312.132
 21
89.6235
 31
0.0
  0
LINE
  8
0
 62
     0
 10
312.132
 20
89.6235
 30
0.0
 11
312.932
 21
89.6235
 31
0.0
  0
LINE
  8
0
 62
     0
 10
312.932
 20
89.6235
 30
0.0
 11
312.932
 21
92.7227
 31
0.0
  0
LINE
  8
0
 62
     0
 10
312.932
 20
92.7227
 30
0.0
 11
312.132
 21
92.7227
 31
0.0
  0
LINE
  8
0
 62
     0
 10
312.132
 20
92.7227
 30
0.0
 11
312.132
 21
98.5227
 31
0.0
  0
LINE
  8
0
 62
     0
 10
312.132
 20
98.5227
 30
0.0
 11
312.932
 21
98.5227
 31
0.0
  0
LINE
  8
0
 62
     0
 10
312.932
 20
98.5227
 30
0.0
 11
312.932
 21
101.623
 31
0.0
  0
LINE
  8
0
 62
     0
 10
312.932
 20
101.623
 30
0.0
 11
312.132
 21
101.623
 31
0.0
  0
LINE
  8
0
 62
     0
 10
312.132
 20
101.623
 30
0.0
 11
312.132
 21
102.622
 31
0.0
  0
LINE
  8
0
 62
     0
 10
312.132
 20
102.622
 30
0.0
 11
298.133
 21
102.622
 31
0.0
  0
LINE
  8
0
 62
     0
 10
236.221
 20
102.622
 30
0.0
 11
236.221
 21
101.623
 31
0.0
  0
LINE
  8
0
 62
     0
 10
236.221
 20
101.623
 30
0.0
 11
235.42
 21
101.623
 31
0.0
  0
LINE
  8
0
 62
     0
 10
235.42
 20
101.623
 30
0.0
 11
235.42
 21
98.5227
 31
0.0
  0
LINE
  8
0
 62
     0
 10
235.42
 20
98.5227
 30
0.0
 11
236.221
 21
98.5227
 31
0.0
  0
LINE
  8
0
 62
     0
 10
236.221
 20
98.5227
 30
0.0
 11
236.221
 21
92.7227
 31
0.0
  0
LINE
  8
0
 62
     0
 10
236.221
 20
92.7227
 30
0.0
 11
235.42
 21
92.7227
 31
0.0
  0
LINE
  8
0
 62
     0
 10
235.42
 20
92.7227
 30
0.0
 11
235.42
 21
89.6235
 31
0.0
  0
LINE
  8
0
 62
     0
 10
235.42
 20
89.6235
 30
0.0
 11
236.221
 21
89.6235
 31
0.0
  0
LINE
  8
0
 62
     0
 10
236.221
 20
89.6235
 30
0.0
 11
236.221
 21
88.6231
 31
0.0
  0
LINE
  8
0
 62
     0
 10
236.221
 20
88.6231
 30
0.0
 11
250.22
 21
88.6231
 31
0.0
  0
LINE
  8
0
 62
     0
 10
250.22
 20
88.6231
 30
0.0
 11
250.22
 21
89.6235
 31
0.0
  0
LINE
  8
0
 62
     0
 10
250.22
 20
89.6235
 30
0.0
 11
251.021
 21
89.6235
 31
0.0
  0
LINE
  8
0
 62
     0
 10
251.021
 20
89.6235
 30
0.0
 11
251.021
 21
92.7227
 31
0.0
  0
LINE
  8
0
 62
     0
 10
251.021
 20
92.7227
 30
0.0
 11
250.22
 21
92.7227
 31
0.0
  0
LINE
  8
0
 62
     0
 10
250.22
 20
92.7227
 30
0.0
 11
250.22
 21
98.5227
 31
0.0
  0
LINE
  8
0
 62
     0
 10
250.22
 20
98.5227
 30
0.0
 11
251.021
 21
98.5227
 31
0.0
  0
LINE
  8
0
 62
     0
 10
251.021
 20
98.5227
 30
0.0
 11
251.021
 21
101.623
 31
0.0
  0
LINE
  8
0
 62
     0
 10
251.021
 20
101.623
 30
0.0
 11
250.22
 21
101.623
 31
0.0
  0
LINE
  8
0
 62
     0
 10
250.22
 20
101.623
 30
0.0
 11
250.22
 21
102.622
 31
0.0
  0
LINE
  8
0
 62
     0
 10
250.22
 20
102.622
 30
0.0
 11
236.221
 21
102.622
 31
0.0
  0
LINE
  8
0
 62
     0
 10
217.171
 20
102.622
 30
0.0
 11
217.171
 21
101.623
 31
0.0
  0
LINE
  8
0
 62
     0
 10
217.171
 20
101.623
 30
0.0
 11
216.37
 21
101.623
 31
0.0
  0
LINE
  8
0
 62
     0
 10
216.37
 20
101.623
 30
0.0
 11
216.37
 21
98.5227
 31
0.0
  0
LINE
  8
0
 62
     0
 10
216.37
 20
98.5227
 30
0.0
 11
217.171
 21
98.5227
 31
0.0
  0
LINE
  8
0
 62
     0
 10
217.171
 20
98.5227
 30
0.0
 11
217.171
 21
92.7227
 31
0.0
  0
LINE
  8
0
 62
     0
 10
217.171
 20
92.7227
 30
0.0
 11
216.37
 21
92.7227
 31
0.0
  0
LINE
  8
0
 62
     0
 10
216.37
 20
92.7227
 30
0.0
 11
216.37
 21
89.6235
 31
0.0
  0
LINE
  8
0
 62
     0
 10
216.37
 20
89.6235
 30
0.0
 11
217.171
 21
89.6235
 31
0.0
  0
LINE
  8
0
 62
     0
 10
217.171
 20
89.6235
 30
0.0
 11
217.171
 21
88.6231
 31
0.0
  0
LINE
  8
0
 62
     0
 10
217.171
 20
88.6231
 30
0.0
 11
231.17
 21
88.6231
 31
0.0
  0
LINE
  8
0
 62
     0
 10
231.17
 20
88.6231
 30
0.0
 11
231.17
 21
89.6235
 31
0.0
  0
LINE
  8
0
 62
     0
 10
231.17
 20
89.6235
 30
0.0
 11
231.971
 21
89.6235
 31
0.0
  0
LINE
  8
0
 62
     0
 10
231.971
 20
89.6235
 30
0.0
 11
231.971
 21
92.7227
 31
0.0
  0
LINE
  8
0
 62
     0
 10
231.971
 20
92.7227
 30
0.0
 11
231.17
 21
92.7227
 31
0.0
  0
LINE
  8
0
 62
     0
 10
231.17
 20
92.7227
 30
0.0
 11
231.17
 21
98.5227
 31
0.0
  0
LINE
  8
0
 62
     0
 10
231.17
 20
98.5227
 30
0.0
 11
231.971
 21
98.5227
 31
0.0
  0
LINE
  8
0
 62
     0
 10
231.971
 20
98.5227
 30
0.0
 11
231.971
 21
101.623
 31
0.0
  0
LINE
  8
0
 62
     0
 10
231.971
 20
101.623
 30
0.0
 11
231.17
 21
101.623
 31
0.0
  0
LINE
  8
0
 62
     0
 10
231.17
 20
101.623
 30
0.0
 11
231.17
 21
102.622
 31
0.0
  0
LINE
  8
0
 62
     0
 10
231.17
 20
102.622
 30
0.0
 11
217.171
 21
102.622
 31
0.0
  0
LINE
  8
0
 62
     0
 10
198.121
 20
102.622
 30
0.0
 11
198.121
 21
101.623
 31
0.0
  0
LINE
  8
0
 62
     0
 10
198.121
 20
101.623
 30
0.0
 11
197.32
 21
101.623
 31
0.0
  0
LINE
  8
0
 62
     0
 10
197.32
 20
101.623
 30
0.0
 11
197.32
 21
98.5227
 31
0.0
  0
LINE
  8
0
 62
     0
 10
197.32
 20
98.5227
 30
0.0
 11
198.121
 21
98.5227
 31
0.0
  0
LINE
  8
0
 62
     0
 10
198.121
 20
98.5227
 30
0.0
 11
198.121
 21
92.7227
 31
0.0
  0
LINE
  8
0
 62
     0
 10
198.121
 20
92.7227
 30
0.0
 11
197.32
 21
92.7227
 31
0.0
  0
LINE
  8
0
 62
     0
 10
197.32
 20
92.7227
 30
0.0
 11
197.32
 21
89.6235
 31
0.0
  0
LINE
  8
0
 62
     0
 10
197.32
 20
89.6235
 30
0.0
 11
198.121
 21
89.6235
 31
0.0
  0
LINE
  8
0
 62
     0
 10
198.121
 20
89.6235
 30
0.0
 11
198.121
 21
88.6231
 31
0.0
  0
LINE
  8
0
 62
     0
 10
198.121
 20
88.6231
 30
0.0
 11
212.12
 21
88.6231
 31
0.0
  0
LINE
  8
0
 62
     0
 10
212.12
 20
88.6231
 30
0.0
 11
212.12
 21
89.6235
 31
0.0
  0
LINE
  8
0
 62
     0
 10
212.12
 20
89.6235
 30
0.0
 11
212.921
 21
89.6235
 31
0.0
  0
LINE
  8
0
 62
     0
 10
212.921
 20
89.6235
 30
0.0
 11
212.921
 21
92.7227
 31
0.0
  0
LINE
  8
0
 62
     0
 10
212.921
 20
92.7227
 30
0.0
 11
212.12
 21
92.7227
 31
0.0
  0
LINE
  8
0
 62
     0
 10
212.12
 20
92.7227
 30
0.0
 11
212.12
 21
98.5227
 31
0.0
  0
LINE
  8
0
 62
     0
 10
212.12
 20
98.5227
 30
0.0
 11
212.921
 21
98.5227
 31
0.0
  0
LINE
  8
0
 62
     0
 10
212.921
 20
98.5227
 30
0.0
 11
212.921
 21
101.623
 31
0.0
  0
LINE
  8
0
 62
     0
 10
212.921
 20
101.623
 30
0.0
 11
212.12
 21
101.623
 31
0.0
  0
LINE
  8
0
 62
     0
 10
212.12
 20
101.623
 30
0.0
 11
212.12
 21
102.622
 31
0.0
  0
LINE
  8
0
 62
     0
 10
212.12
 20
102.622
 30
0.0
 11
198.121
 21
102.622
 31
0.0
  0
LINE
  8
0
 62
     0
 10
179.071
 20
102.622
 30
0.0
 11
179.071
 21
101.623
 31
0.0
  0
LINE
  8
0
 62
     0
 10
179.071
 20
101.623
 30
0.0
 11
178.27
 21
101.623
 31
0.0
  0
LINE
  8
0
 62
     0
 10
178.27
 20
101.623
 30
0.0
 11
178.27
 21
98.5227
 31
0.0
  0
LINE
  8
0
 62
     0
 10
178.27
 20
98.5227
 30
0.0
 11
179.071
 21
98.5227
 31
0.0
  0
LINE
  8
0
 62
     0
 10
179.071
 20
98.5227
 30
0.0
 11
179.071
 21
92.7227
 31
0.0
  0
LINE
  8
0
 62
     0
 10
179.071
 20
92.7227
 30
0.0
 11
178.27
 21
92.7227
 31
0.0
  0
LINE
  8
0
 62
     0
 10
178.27
 20
92.7227
 30
0.0
 11
178.27
 21
89.6235
 31
0.0
  0
LINE
  8
0
 62
     0
 10
178.27
 20
89.6235
 30
0.0
 11
179.071
 21
89.6235
 31
0.0
  0
LINE
  8
0
 62
     0
 10
179.071
 20
89.6235
 30
0.0
 11
179.071
 21
88.6231
 31
0.0
  0
LINE
  8
0
 62
     0
 10
179.071
 20
88.6231
 30
0.0
 11
193.07
 21
88.6231
 31
0.0
  0
LINE
  8
0
 62
     0
 10
193.07
 20
88.6231
 30
0.0
 11
193.07
 21
89.6235
 31
0.0
  0
LINE
  8
0
 62
     0
 10
193.07
 20
89.6235
 30
0.0
 11
193.871
 21
89.6235
 31
0.0
  0
LINE
  8
0
 62
     0
 10
193.871
 20
89.6235
 30
0.0
 11
193.871
 21
92.7227
 31
0.0
  0
LINE
  8
0
 62
     0
 10
193.871
 20
92.7227
 30
0.0
 11
193.07
 21
92.7227
 31
0.0
  0
LINE
  8
0
 62
     0
 10
193.07
 20
92.7227
 30
0.0
 11
193.07
 21
98.5227
 31
0.0
  0
LINE
  8
0
 62
     0
 10
193.07
 20
98.5227
 30
0.0
 11
193.871
 21
98.5227
 31
0.0
  0
LINE
  8
0
 62
     0
 10
193.871
 20
98.5227
 30
0.0
 11
193.871
 21
101.623
 31
0.0
  0
LINE
  8
0
 62
     0
 10
193.871
 20
101.623
 30
0.0
 11
193.07
 21
101.623
 31
0.0
  0
LINE
  8
0
 62
     0
 10
193.07
 20
101.623
 30
0.0
 11
193.07
 21
102.622
 31
0.0
  0
LINE
  8
0
 62
     0
 10
193.07
 20
102.622
 30
0.0
 11
179.071
 21
102.622
 31
0.0
  0
LINE
  8
0
 62
     0
 10
160.021
 20
102.622
 30
0.0
 11
160.021
 21
101.623
 31
0.0
  0
LINE
  8
0
 62
     0
 10
160.021
 20
101.623
 30
0.0
 11
159.22
 21
101.623
 31
0.0
  0
LINE
  8
0
 62
     0
 10
159.22
 20
101.623
 30
0.0
 11
159.22
 21
98.5227
 31
0.0
  0
LINE
  8
0
 62
     0
 10
159.22
 20
98.5227
 30
0.0
 11
160.021
 21
98.5227
 31
0.0
  0
LINE
  8
0
 62
     0
 10
160.021
 20
98.5227
 30
0.0
 11
160.021
 21
92.7227
 31
0.0
  0
LINE
  8
0
 62
     0
 10
160.021
 20
92.7227
 30
0.0
 11
159.22
 21
92.7227
 31
0.0
  0
LINE
  8
0
 62
     0
 10
159.22
 20
92.7227
 30
0.0
 11
159.22
 21
89.6235
 31
0.0
  0
LINE
  8
0
 62
     0
 10
159.22
 20
89.6235
 30
0.0
 11
160.021
 21
89.6235
 31
0.0
  0
LINE
  8
0
 62
     0
 10
160.021
 20
89.6235
 30
0.0
 11
160.021
 21
88.6231
 31
0.0
  0
LINE
  8
0
 62
     0
 10
160.021
 20
88.6231
 30
0.0
 11
174.02
 21
88.6231
 31
0.0
  0
LINE
  8
0
 62
     0
 10
174.02
 20
88.6231
 30
0.0
 11
174.02
 21
89.6235
 31
0.0
  0
LINE
  8
0
 62
     0
 10
174.02
 20
89.6235
 30
0.0
 11
174.821
 21
89.6235
 31
0.0
  0
LINE
  8
0
 62
     0
 10
174.821
 20
89.6235
 30
0.0
 11
174.821
 21
92.7227
 31
0.0
  0
LINE
  8
0
 62
     0
 10
174.821
 20
92.7227
 30
0.0
 11
174.02
 21
92.7227
 31
0.0
  0
LINE
  8
0
 62
     0
 10
174.02
 20
92.7227
 30
0.0
 11
174.02
 21
98.5227
 31
0.0
  0
LINE
  8
0
 62
     0
 10
174.02
 20
98.5227
 30
0.0
 11
174.821
 21
98.5227
 31
0.0
  0
LINE
  8
0
 62
     0
 10
174.821
 20
98.5227
 30
0.0
 11
174.821
 21
101.623
 31
0.0
  0
LINE
  8
0
 62
     0
 10
174.821
 20
101.623
 30
0.0
 11
174.02
 21
101.623
 31
0.0
  0
LINE
  8
0
 62
     0
 10
174.02
 20
101.623
 30
0.0
 11
174.02
 21
102.622
 31
0.0
  0
LINE
  8
0
 62
     0
 10
174.02
 20
102.622
 30
0.0
 11
160.021
 21
102.622
 31
0.0
  0
LINE
  8
0
 62
     0
 10
140.971
 20
102.622
 30
0.0
 11
140.971
 21
101.623
 31
0.0
  0
LINE
  8
0
 62
     0
 10
140.971
 20
101.623
 30
0.0
 11
140.17
 21
101.623
 31
0.0
  0
LINE
  8
0
 62
     0
 10
140.17
 20
101.623
 30
0.0
 11
140.17
 21
98.5227
 31
0.0
  0
LINE
  8
0
 62
     0
 10
140.17
 20
98.5227
 30
0.0
 11
140.971
 21
98.5227
 31
0.0
  0
LINE
  8
0
 62
     0
 10
140.971
 20
98.5227
 30
0.0
 11
140.971
 21
92.7227
 31
0.0
  0
LINE
  8
0
 62
     0
 10
140.971
 20
92.7227
 30
0.0
 11
140.17
 21
92.7227
 31
0.0
  0
LINE
  8
0
 62
     0
 10
140.17
 20
92.7227
 30
0.0
 11
140.17
 21
89.6235
 31
0.0
  0
LINE
  8
0
 62
     0
 10
140.17
 20
89.6235
 30
0.0
 11
140.971
 21
89.6235
 31
0.0
  0
LINE
  8
0
 62
     0
 10
140.971
 20
89.6235
 30
0.0
 11
140.971
 21
88.6231
 31
0.0
  0
LINE
  8
0
 62
     0
 10
140.971
 20
88.6231
 30
0.0
 11
154.97
 21
88.6231
 31
0.0
  0
LINE
  8
0
 62
     0
 10
154.97
 20
88.6231
 30
0.0
 11
154.97
 21
89.6235
 31
0.0
  0
LINE
  8
0
 62
     0
 10
154.97
 20
89.6235
 30
0.0
 11
155.771
 21
89.6235
 31
0.0
  0
LINE
  8
0
 62
     0
 10
155.771
 20
89.6235
 30
0.0
 11
155.771
 21
92.7227
 31
0.0
  0
LINE
  8
0
 62
     0
 10
155.771
 20
92.7227
 30
0.0
 11
154.97
 21
92.7227
 31
0.0
  0
LINE
  8
0
 62
     0
 10
154.97
 20
92.7227
 30
0.0
 11
154.97
 21
98.5227
 31
0.0
  0
LINE
  8
0
 62
     0
 10
154.97
 20
98.5227
 30
0.0
 11
155.771
 21
98.5227
 31
0.0
  0
LINE
  8
0
 62
     0
 10
155.771
 20
98.5227
 30
0.0
 11
155.771
 21
101.623
 31
0.0
  0
LINE
  8
0
 62
     0
 10
155.771
 20
101.623
 30
0.0
 11
154.97
 21
101.623
 31
0.0
  0
LINE
  8
0
 62
     0
 10
154.97
 20
101.623
 30
0.0
 11
154.97
 21
102.622
 31
0.0
  0
LINE
  8
0
 62
     0
 10
154.97
 20
102.622
 30
0.0
 11
140.971
 21
102.622
 31
0.0
  0
LINE
  8
0
 62
     0
 10
121.919
 20
102.622
 30
0.0
 11
121.919
 21
101.623
 31
0.0
  0
LINE
  8
0
 62
     0
 10
121.919
 20
101.623
 30
0.0
 11
121.12
 21
101.623
 31
0.0
  0
LINE
  8
0
 62
     0
 10
121.12
 20
101.623
 30
0.0
 11
121.12
 21
98.5227
 31
0.0
  0
LINE
  8
0
 62
     0
 10
121.12
 20
98.5227
 30
0.0
 11
121.919
 21
98.5227
 31
0.0
  0
LINE
  8
0
 62
     0
 10
121.919
 20
98.5227
 30
0.0
 11
121.919
 21
92.7227
 31
0.0
  0
LINE
  8
0
 62
     0
 10
121.919
 20
92.7227
 30
0.0
 11
121.12
 21
92.7227
 31
0.0
  0
LINE
  8
0
 62
     0
 10
121.12
 20
92.7227
 30
0.0
 11
121.12
 21
89.6235
 31
0.0
  0
LINE
  8
0
 62
     0
 10
121.12
 20
89.6235
 30
0.0
 11
121.919
 21
89.6235
 31
0.0
  0
LINE
  8
0
 62
     0
 10
121.919
 20
89.6235
 30
0.0
 11
121.919
 21
88.6231
 31
0.0
  0
LINE
  8
0
 62
     0
 10
121.919
 20
88.6231
 30
0.0
 11
135.92
 21
88.6231
 31
0.0
  0
LINE
  8
0
 62
     0
 10
135.92
 20
88.6231
 30
0.0
 11
135.92
 21
89.6235
 31
0.0
  0
LINE
  8
0
 62
     0
 10
135.92
 20
89.6235
 30
0.0
 11
136.721
 21
89.6235
 31
0.0
  0
LINE
  8
0
 62
     0
 10
136.721
 20
89.6235
 30
0.0
 11
136.721
 21
92.7227
 31
0.0
  0
LINE
  8
0
 62
     0
 10
136.721
 20
92.7227
 30
0.0
 11
135.92
 21
92.7227
 31
0.0
  0
LINE
  8
0
 62
     0
 10
135.92
 20
92.7227
 30
0.0
 11
135.92
 21
98.5227
 31
0.0
  0
LINE
  8
0
 62
     0
 10
135.92
 20
98.5227
 30
0.0
 11
136.721
 21
98.5227
 31
0.0
  0
LINE
  8
0
 62
     0
 10
136.721
 20
98.5227
 30
0.0
 11
136.721
 21
101.623
 31
0.0
  0
LINE
  8
0
 62
     0
 10
136.721
 20
101.623
 30
0.0
 11
135.92
 21
101.623
 31
0.0
  0
LINE
  8
0
 62
     0
 10
135.92
 20
101.623
 30
0.0
 11
135.92
 21
102.622
 31
0.0
  0
LINE
  8
0
 62
     0
 10
135.92
 20
102.622
 30
0.0
 11
121.919
 21
102.622
 31
0.0
  0
LINE
  8
0
 62
     0
 10
102.869
 20
102.622
 30
0.0
 11
102.869
 21
101.623
 31
0.0
  0
LINE
  8
0
 62
     0
 10
102.869
 20
101.623
 30
0.0
 11
102.07
 21
101.623
 31
0.0
  0
LINE
  8
0
 62
     0
 10
102.07
 20
101.623
 30
0.0
 11
102.07
 21
98.5227
 31
0.0
  0
LINE
  8
0
 62
     0
 10
102.07
 20
98.5227
 30
0.0
 11
102.869
 21
98.5227
 31
0.0
  0
LINE
  8
0
 62
     0
 10
102.869
 20
98.5227
 30
0.0
 11
102.869
 21
92.7227
 31
0.0
  0
LINE
  8
0
 62
     0
 10
102.869
 20
92.7227
 30
0.0
 11
102.07
 21
92.7227
 31
0.0
  0
LINE
  8
0
 62
     0
 10
102.07
 20
92.7227
 30
0.0
 11
102.07
 21
89.6235
 31
0.0
  0
LINE
  8
0
 62
     0
 10
102.07
 20
89.6235
 30
0.0
 11
102.869
 21
89.6235
 31
0.0
  0
LINE
  8
0
 62
     0
 10
102.869
 20
89.6235
 30
0.0
 11
102.869
 21
88.6231
 31
0.0
  0
LINE
  8
0
 62
     0
 10
102.869
 20
88.6231
 30
0.0
 11
116.87
 21
88.6231
 31
0.0
  0
LINE
  8
0
 62
     0
 10
116.87
 20
88.6231
 30
0.0
 11
116.87
 21
89.6235
 31
0.0
  0
LINE
  8
0
 62
     0
 10
116.87
 20
89.6235
 30
0.0
 11
117.669
 21
89.6235
 31
0.0
  0
LINE
  8
0
 62
     0
 10
117.669
 20
89.6235
 30
0.0
 11
117.669
 21
92.7227
 31
0.0
  0
LINE
  8
0
 62
     0
 10
117.669
 20
92.7227
 30
0.0
 11
116.87
 21
92.7227
 31
0.0
  0
LINE
  8
0
 62
     0
 10
116.87
 20
92.7227
 30
0.0
 11
116.87
 21
98.5227
 31
0.0
  0
LINE
  8
0
 62
     0
 10
116.87
 20
98.5227
 30
0.0
 11
117.669
 21
98.5227
 31
0.0
  0
LINE
  8
0
 62
     0
 10
117.669
 20
98.5227
 30
0.0
 11
117.669
 21
101.623
 31
0.0
  0
LINE
  8
0
 62
     0
 10
117.669
 20
101.623
 30
0.0
 11
116.87
 21
101.623
 31
0.0
  0
LINE
  8
0
 62
     0
 10
116.87
 20
101.623
 30
0.0
 11
116.87
 21
102.622
 31
0.0
  0
LINE
  8
0
 62
     0
 10
116.87
 20
102.622
 30
0.0
 11
102.869
 21
102.622
 31
0.0
  0
LINE
  8
0
 62
     0
 10
83.8207
 20
102.622
 30
0.0
 11
83.8207
 21
101.623
 31
0.0
  0
LINE
  8
0
 62
     0
 10
83.8207
 20
101.623
 30
0.0
 11
83.0199
 21
101.623
 31
0.0
  0
LINE
  8
0
 62
     0
 10
83.0199
 20
101.623
 30
0.0
 11
83.0199
 21
98.5227
 31
0.0
  0
LINE
  8
0
 62
     0
 10
83.0199
 20
98.5227
 30
0.0
 11
83.8207
 21
98.5227
 31
0.0
  0
LINE
  8
0
 62
     0
 10
83.8207
 20
98.5227
 30
0.0
 11
83.8207
 21
92.7227
 31
0.0
  0
LINE
  8
0
 62
     0
 10
83.8207
 20
92.7227
 30
0.0
 11
83.0199
 21
92.7227
 31
0.0
  0
LINE
  8
0
 62
     0
 10
83.0199
 20
92.7227
 30
0.0
 11
83.0199
 21
89.6235
 31
0.0
  0
LINE
  8
0
 62
     0
 10
83.0199
 20
89.6235
 30
0.0
 11
83.8207
 21
89.6235
 31
0.0
  0
LINE
  8
0
 62
     0
 10
83.8207
 20
89.6235
 30
0.0
 11
83.8207
 21
88.6231
 31
0.0
  0
LINE
  8
0
 62
     0
 10
83.8207
 20
88.6231
 30
0.0
 11
97.82
 21
88.6231
 31
0.0
  0
LINE
  8
0
 62
     0
 10
97.82
 20
88.6231
 30
0.0
 11
97.82
 21
89.6235
 31
0.0
  0
LINE
  8
0
 62
     0
 10
97.82
 20
89.6235
 30
0.0
 11
98.6194
 21
89.6235
 31
0.0
  0
LINE
  8
0
 62
     0
 10
98.6194
 20
89.6235
 30
0.0
 11
98.6194
 21
92.7227
 31
0.0
  0
LINE
  8
0
 62
     0
 10
98.6194
 20
92.7227
 30
0.0
 11
97.82
 21
92.7227
 31
0.0
  0
LINE
  8
0
 62
     0
 10
97.82
 20
92.7227
 30
0.0
 11
97.82
 21
98.5227
 31
0.0
  0
LINE
  8
0
 62
     0
 10
97.82
 20
98.5227
 30
0.0
 11
98.6194
 21
98.5227
 31
0.0
  0
LINE
  8
0
 62
     0
 10
98.6194
 20
98.5227
 30
0.0
 11
98.6194
 21
101.623
 31
0.0
  0
LINE
  8
0
 62
     0
 10
98.6194
 20
101.623
 30
0.0
 11
97.82
 21
101.623
 31
0.0
  0
LINE
  8
0
 62
     0
 10
97.82
 20
101.623
 30
0.0
 11
97.82
 21
102.622
 31
0.0
  0
LINE
  8
0
 62
     0
 10
97.82
 20
102.622
 30
0.0
 11
83.8207
 21
102.622
 31
0.0
  0
LINE
  8
0
 62
     0
 10
64.7707
 20
102.622
 30
0.0
 11
64.7707
 21
101.623
 31
0.0
  0
LINE
  8
0
 62
     0
 10
64.7707
 20
101.623
 30
0.0
 11
63.9699
 21
101.623
 31
0.0
  0
LINE
  8
0
 62
     0
 10
63.9699
 20
101.623
 30
0.0
 11
63.9699
 21
98.5227
 31
0.0
  0
LINE
  8
0
 62
     0
 10
63.9699
 20
98.5227
 30
0.0
 11
64.7707
 21
98.5227
 31
0.0
  0
LINE
  8
0
 62
     0
 10
64.7707
 20
98.5227
 30
0.0
 11
64.7707
 21
92.7227
 31
0.0
  0
LINE
  8
0
 62
     0
 10
64.7707
 20
92.7227
 30
0.0
 11
63.9699
 21
92.7227
 31
0.0
  0
LINE
  8
0
 62
     0
 10
63.9699
 20
92.7227
 30
0.0
 11
63.9699
 21
89.6235
 31
0.0
  0
LINE
  8
0
 62
     0
 10
63.9699
 20
89.6235
 30
0.0
 11
64.7707
 21
89.6235
 31
0.0
  0
LINE
  8
0
 62
     0
 10
64.7707
 20
89.6235
 30
0.0
 11
64.7707
 21
88.6231
 31
0.0
  0
LINE
  8
0
 62
     0
 10
64.7707
 20
88.6231
 30
0.0
 11
78.77
 21
88.6231
 31
0.0
  0
LINE
  8
0
 62
     0
 10
78.77
 20
88.6231
 30
0.0
 11
78.77
 21
89.6235
 31
0.0
  0
LINE
  8
0
 62
     0
 10
78.77
 20
89.6235
 30
0.0
 11
79.5708
 21
89.6235
 31
0.0
  0
LINE
  8
0
 62
     0
 10
79.5708
 20
89.6235
 30
0.0
 11
79.5708
 21
92.7227
 31
0.0
  0
LINE
  8
0
 62
     0
 10
79.5708
 20
92.7227
 30
0.0
 11
78.77
 21
92.7227
 31
0.0
  0
LINE
  8
0
 62
     0
 10
78.77
 20
92.7227
 30
0.0
 11
78.77
 21
98.5227
 31
0.0
  0
LINE
  8
0
 62
     0
 10
78.77
 20
98.5227
 30
0.0
 11
79.5708
 21
98.5227
 31
0.0
  0
LINE
  8
0
 62
     0
 10
79.5708
 20
98.5227
 30
0.0
 11
79.5708
 21
101.623
 31
0.0
  0
LINE
  8
0
 62
     0
 10
79.5708
 20
101.623
 30
0.0
 11
78.77
 21
101.623
 31
0.0
  0
LINE
  8
0
 62
     0
 10
78.77
 20
101.623
 30
0.0
 11
78.77
 21
102.622
 31
0.0
  0
LINE
  8
0
 62
     0
 10
78.77
 20
102.622
 30
0.0
 11
64.7707
 21
102.622
 31
0.0
  0
LINE
  8
0
 62
     0
 10
45.7207
 20
102.622
 30
0.0
 11
45.7207
 21
101.623
 31
0.0
  0
LINE
  8
0
 62
     0
 10
45.7207
 20
101.623
 30
0.0
 11
44.9199
 21
101.623
 31
0.0
  0
LINE
  8
0
 62
     0
 10
44.9199
 20
101.623
 30
0.0
 11
44.9199
 21
98.5227
 31
0.0
  0
LINE
  8
0
 62
     0
 10
44.9199
 20
98.5227
 30
0.0
 11
45.7207
 21
98.5227
 31
0.0
  0
LINE
  8
0
 62
     0
 10
45.7207
 20
98.5227
 30
0.0
 11
45.7207
 21
92.7227
 31
0.0
  0
LINE
  8
0
 62
     0
 10
45.7207
 20
92.7227
 30
0.0
 11
44.9199
 21
92.7227
 31
0.0
  0
LINE
  8
0
 62
     0
 10
44.9199
 20
92.7227
 30
0.0
 11
44.9199
 21
89.6235
 31
0.0
  0
LINE
  8
0
 62
     0
 10
44.9199
 20
89.6235
 30
0.0
 11
45.7207
 21
89.6235
 31
0.0
  0
LINE
  8
0
 62
     0
 10
45.7207
 20
89.6235
 30
0.0
 11
45.7207
 21
88.6231
 31
0.0
  0
LINE
  8
0
 62
     0
 10
45.7207
 20
88.6231
 30
0.0
 11
59.72
 21
88.6231
 31
0.0
  0
LINE
  8
0
 62
     0
 10
59.72
 20
88.6231
 30
0.0
 11
59.72
 21
89.6235
 31
0.0
  0
LINE
  8
0
 62
     0
 10
59.72
 20
89.6235
 30
0.0
 11
60.5208
 21
89.6235
 31
0.0
  0
LINE
  8
0
 62
     0
 10
60.5208
 20
89.6235
 30
0.0
 11
60.5208
 21
92.7227
 31
0.0
  0
LINE
  8
0
 62
     0
 10
60.5208
 20
92.7227
 30
0.0
 11
59.72
 21
92.7227
 31
0.0
  0
LINE
  8
0
 62
     0
 10
59.72
 20
92.7227
 30
0.0
 11
59.72
 21
98.5227
 31
0.0
  0
LINE
  8
0
 62
     0
 10
59.72
 20
98.5227
 30
0.0
 11
60.5208
 21
98.5227
 31
0.0
  0
LINE
  8
0
 62
     0
 10
60.5208
 20
98.5227
 30
0.0
 11
60.5208
 21
101.623
 31
0.0
  0
LINE
  8
0
 62
     0
 10
60.5208
 20
101.623
 30
0.0
 11
59.72
 21
101.623
 31
0.0
  0
LINE
  8
0
 62
     0
 10
59.72
 20
101.623
 30
0.0
 11
59.72
 21
102.622
 31
0.0
  0
LINE
  8
0
 62
     0
 10
59.72
 20
102.622
 30
0.0
 11
45.7207
 21
102.622
 31
0.0
  0
LINE
  8
0
 62
     0
 10
26.6706
 20
102.622
 30
0.0
 11
26.6706
 21
101.623
 31
0.0
  0
LINE
  8
0
 62
     0
 10
26.6706
 20
101.623
 30
0.0
 11
25.8699
 21
101.623
 31
0.0
  0
LINE
  8
0
 62
     0
 10
25.8699
 20
101.623
 30
0.0
 11
25.8699
 21
98.5227
 31
0.0
  0
LINE
  8
0
 62
     0
 10
25.8699
 20
98.5227
 30
0.0
 11
26.6706
 21
98.5227
 31
0.0
  0
LINE
  8
0
 62
     0
 10
26.6706
 20
98.5227
 30
0.0
 11
26.6706
 21
92.7227
 31
0.0
  0
LINE
  8
0
 62
     0
 10
26.6706
 20
92.7227
 30
0.0
 11
25.8699
 21
92.7227
 31
0.0
  0
LINE
  8
0
 62
     0
 10
25.8699
 20
92.7227
 30
0.0
 11
25.8699
 21
89.6235
 31
0.0
  0
LINE
  8
0
 62
     0
 10
25.8699
 20
89.6235
 30
0.0
 11
26.6706
 21
89.6235
 31
0.0
  0
LINE
  8
0
 62
     0
 10
26.6706
 20
89.6235
 30
0.0
 11
26.6706
 21
88.6231
 31
0.0
  0
LINE
  8
0
 62
     0
 10
26.6706
 20
88.6231
 30
0.0
 11
40.67
 21
88.6231
 31
0.0
  0
LINE
  8
0
 62
     0
 10
40.67
 20
88.6231
 30
0.0
 11
40.67
 21
89.6235
 31
0.0
  0
LINE
  8
0
 62
     0
 10
40.67
 20
89.6235
 30
0.0
 11
41.4708
 21
89.6235
 31
0.0
  0
LINE
  8
0
 62
     0
 10
41.4708
 20
89.6235
 30
0.0
 11
41.4708
 21
92.7227
 31
0.0
  0
LINE
  8
0
 62
     0
 10
41.4708
 20
92.7227
 30
0.0
 11
40.67
 21
92.7227
 31
0.0
  0
LINE
  8
0
 62
     0
 10
40.67
 20
92.7227
 30
0.0
 11
40.67
 21
98.5227
 31
0.0
  0
LINE
  8
0
 62
     0
 10
40.67
 20
98.5227
 30
0.0
 11
41.4708
 21
98.5227
 31
0.0
  0
LINE
  8
0
 62
     0
 10
41.4708
 20
98.5227
 30
0.0
 11
41.4708
 21
101.623
 31
0.0
  0
LINE
  8
0
 62
     0
 10
41.4708
 20
101.623
 30
0.0
 11
40.67
 21
101.623
 31
0.0
  0
LINE
  8
0
 62
     0
 10
40.67
 20
101.623
 30
0.0
 11
40.67
 21
102.622
 31
0.0
  0
LINE
  8
0
 62
     0
 10
40.67
 20
102.622
 30
0.0
 11
26.6706
 21
102.622
 31
0.0
  0
LINE
  8
0
 62
     0
 10
7.61919
 20
102.622
 30
0.0
 11
7.61919
 21
101.623
 31
0.0
  0
LINE
  8
0
 62
     0
 10
7.61919
 20
101.623
 30
0.0
 11
6.8199
 21
101.623
 31
0.0
  0
LINE
  8
0
 62
     0
 10
6.8199
 20
101.623
 30
0.0
 11
6.8199
 21
98.5227
 31
0.0
  0
LINE
  8
0
 62
     0
 10
6.8199
 20
98.5227
 30
0.0
 11
7.61919
 21
98.5227
 31
0.0
  0
LINE
  8
0
 62
     0
 10
7.61919
 20
98.5227
 30
0.0
 11
7.61919
 21
92.7227
 31
0.0
  0
LINE
  8
0
 62
     0
 10
7.61919
 20
92.7227
 30
0.0
 11
6.8199
 21
92.7227
 31
0.0
  0
LINE
  8
0
 62
     0
 10
6.8199
 20
92.7227
 30
0.0
 11
6.8199
 21
89.6235
 31
0.0
  0
LINE
  8
0
 62
     0
 10
6.8199
 20
89.6235
 30
0.0
 11
7.61919
 21
89.6235
 31
0.0
  0
LINE
  8
0
 62
     0
 10
7.61919
 20
89.6235
 30
0.0
 11
7.61919
 21
88.6231
 31
0.0
  0
LINE
  8
0
 62
     0
 10
7.61919
 20
88.6231
 30
0.0
 11
21.6201
 21
88.6231
 31
0.0
  0
LINE
  8
0
 62
     0
 10
21.6201
 20
88.6231
 30
0.0
 11
21.6201
 21
89.6235
 31
0.0
  0
LINE
  8
0
 62
     0
 10
21.6201
 20
89.6235
 30
0.0
 11
22.4207
 21
89.6235
 31
0.0
  0
LINE
  8
0
 62
     0
 10
22.4207
 20
89.6235
 30
0.0
 11
22.4207
 21
92.7227
 31
0.0
  0
LINE
  8
0
 62
     0
 10
22.4207
 20
92.7227
 30
0.0
 11
21.6201
 21
92.7227
 31
0.0
  0
LINE
  8
0
 62
     0
 10
21.6201
 20
92.7227
 30
0.0
 11
21.6201
 21
98.5227
 31
0.0
  0
LINE
  8
0
 62
     0
 10
21.6201
 20
98.5227
 30
0.0
 11
22.4207
 21
98.5227
 31
0.0
  0
LINE
  8
0
 62
     0
 10
22.4207
 20
98.5227
 30
0.0
 11
22.4207
 21
101.623
 31
0.0
  0
LINE
  8
0
 62
     0
 10
22.4207
 20
101.623
 30
0.0
 11
21.6201
 21
101.623
 31
0.0
  0
LINE
  8
0
 62
     0
 10
21.6201
 20
101.623
 30
0.0
 11
21.6201
 21
102.622
 31
0.0
  0
LINE
  8
0
 62
     0
 10
21.6201
 20
102.622
 30
0.0
 11
7.61919
 21
102.622
 31
0.0
  0
LINE
  8
0
 62
     0
 10
298.133
 20
126.436
 30
0.0
 11
298.133
 21
125.436
 31
0.0
  0
LINE
  8
0
 62
     0
 10
298.133
 20
125.436
 30
0.0
 11
297.332
 21
125.436
 31
0.0
  0
LINE
  8
0
 62
     0
 10
297.332
 20
125.436
 30
0.0
 11
297.332
 21
122.335
 31
0.0
  0
LINE
  8
0
 62
     0
 10
297.332
 20
122.335
 30
0.0
 11
298.133
 21
122.335
 31
0.0
  0
LINE
  8
0
 62
     0
 10
298.133
 20
122.335
 30
0.0
 11
298.133
 21
116.537
 31
0.0
  0
LINE
  8
0
 62
     0
 10
298.133
 20
116.537
 30
0.0
 11
297.332
 21
116.537
 31
0.0
  0
LINE
  8
0
 62
     0
 10
297.332
 20
116.537
 30
0.0
 11
297.332
 21
113.435
 31
0.0
  0
LINE
  8
0
 62
     0
 10
297.332
 20
113.435
 30
0.0
 11
298.133
 21
113.435
 31
0.0
  0
LINE
  8
0
 62
     0
 10
298.133
 20
113.435
 30
0.0
 11
298.133
 21
112.436
 31
0.0
  0
LINE
  8
0
 62
     0
 10
298.133
 20
112.436
 30
0.0
 11
312.132
 21
112.436
 31
0.0
  0
LINE
  8
0
 62
     0
 10
312.132
 20
112.436
 30
0.0
 11
312.132
 21
113.435
 31
0.0
  0
LINE
  8
0
 62
     0
 10
312.132
 20
113.435
 30
0.0
 11
312.932
 21
113.435
 31
0.0
  0
LINE
  8
0
 62
     0
 10
312.932
 20
113.435
 30
0.0
 11
312.932
 21
116.537
 31
0.0
  0
LINE
  8
0
 62
     0
 10
312.932
 20
116.537
 30
0.0
 11
312.132
 21
116.537
 31
0.0
  0
LINE
  8
0
 62
     0
 10
312.132
 20
116.537
 30
0.0
 11
312.132
 21
122.335
 31
0.0
  0
LINE
  8
0
 62
     0
 10
312.132
 20
122.335
 30
0.0
 11
312.932
 21
122.335
 31
0.0
  0
LINE
  8
0
 62
     0
 10
312.932
 20
122.335
 30
0.0
 11
312.932
 21
125.436
 31
0.0
  0
LINE
  8
0
 62
     0
 10
312.932
 20
125.436
 30
0.0
 11
312.132
 21
125.436
 31
0.0
  0
LINE
  8
0
 62
     0
 10
312.132
 20
125.436
 30
0.0
 11
312.132
 21
126.436
 31
0.0
  0
LINE
  8
0
 62
     0
 10
312.132
 20
126.436
 30
0.0
 11
298.133
 21
126.436
 31
0.0
  0
LINE
  8
0
 62
     0
 10
274.321
 20
126.436
 30
0.0
 11
274.321
 21
125.436
 31
0.0
  0
LINE
  8
0
 62
     0
 10
274.321
 20
125.436
 30
0.0
 11
273.52
 21
125.436
 31
0.0
  0
LINE
  8
0
 62
     0
 10
273.52
 20
125.436
 30
0.0
 11
273.52
 21
122.335
 31
0.0
  0
LINE
  8
0
 62
     0
 10
273.52
 20
122.335
 30
0.0
 11
274.321
 21
122.335
 31
0.0
  0
LINE
  8
0
 62
     0
 10
274.321
 20
122.335
 30
0.0
 11
274.321
 21
116.537
 31
0.0
  0
LINE
  8
0
 62
     0
 10
274.321
 20
116.537
 30
0.0
 11
273.52
 21
116.537
 31
0.0
  0
LINE
  8
0
 62
     0
 10
273.52
 20
116.537
 30
0.0
 11
273.52
 21
113.435
 31
0.0
  0
LINE
  8
0
 62
     0
 10
273.52
 20
113.435
 30
0.0
 11
274.321
 21
113.435
 31
0.0
  0
LINE
  8
0
 62
     0
 10
274.321
 20
113.435
 30
0.0
 11
274.321
 21
112.436
 31
0.0
  0
LINE
  8
0
 62
     0
 10
274.321
 20
112.436
 30
0.0
 11
288.32
 21
112.436
 31
0.0
  0
LINE
  8
0
 62
     0
 10
288.32
 20
112.436
 30
0.0
 11
288.32
 21
113.435
 31
0.0
  0
LINE
  8
0
 62
     0
 10
288.32
 20
113.435
 30
0.0
 11
289.121
 21
113.435
 31
0.0
  0
LINE
  8
0
 62
     0
 10
289.121
 20
113.435
 30
0.0
 11
289.121
 21
116.537
 31
0.0
  0
LINE
  8
0
 62
     0
 10
289.121
 20
116.537
 30
0.0
 11
288.32
 21
116.537
 31
0.0
  0
LINE
  8
0
 62
     0
 10
288.32
 20
116.537
 30
0.0
 11
288.32
 21
122.335
 31
0.0
  0
LINE
  8
0
 62
     0
 10
288.32
 20
122.335
 30
0.0
 11
289.121
 21
122.335
 31
0.0
  0
LINE
  8
0
 62
     0
 10
289.121
 20
122.335
 30
0.0
 11
289.121
 21
125.436
 31
0.0
  0
LINE
  8
0
 62
     0
 10
289.121
 20
125.436
 30
0.0
 11
288.32
 21
125.436
 31
0.0
  0
LINE
  8
0
 62
     0
 10
288.32
 20
125.436
 30
0.0
 11
288.32
 21
126.436
 31
0.0
  0
LINE
  8
0
 62
     0
 10
288.32
 20
126.436
 30
0.0
 11
274.321
 21
126.436
 31
0.0
  0
LINE
  8
0
 62
     0
 10
255.271
 20
126.436
 30
0.0
 11
255.271
 21
125.436
 31
0.0
  0
LINE
  8
0
 62
     0
 10
255.271
 20
125.436
 30
0.0
 11
254.47
 21
125.436
 31
0.0
  0
LINE
  8
0
 62
     0
 10
254.47
 20
125.436
 30
0.0
 11
254.47
 21
122.335
 31
0.0
  0
LINE
  8
0
 62
     0
 10
254.47
 20
122.335
 30
0.0
 11
255.271
 21
122.335
 31
0.0
  0
LINE
  8
0
 62
     0
 10
255.271
 20
122.335
 30
0.0
 11
255.271
 21
116.537
 31
0.0
  0
LINE
  8
0
 62
     0
 10
255.271
 20
116.537
 30
0.0
 11
254.47
 21
116.537
 31
0.0
  0
LINE
  8
0
 62
     0
 10
254.47
 20
116.537
 30
0.0
 11
254.47
 21
113.435
 31
0.0
  0
LINE
  8
0
 62
     0
 10
254.47
 20
113.435
 30
0.0
 11
255.271
 21
113.435
 31
0.0
  0
LINE
  8
0
 62
     0
 10
255.271
 20
113.435
 30
0.0
 11
255.271
 21
112.436
 31
0.0
  0
LINE
  8
0
 62
     0
 10
255.271
 20
112.436
 30
0.0
 11
269.27
 21
112.436
 31
0.0
  0
LINE
  8
0
 62
     0
 10
269.27
 20
112.436
 30
0.0
 11
269.27
 21
113.435
 31
0.0
  0
LINE
  8
0
 62
     0
 10
269.27
 20
113.435
 30
0.0
 11
270.071
 21
113.435
 31
0.0
  0
LINE
  8
0
 62
     0
 10
270.071
 20
113.435
 30
0.0
 11
270.071
 21
116.537
 31
0.0
  0
LINE
  8
0
 62
     0
 10
270.071
 20
116.537
 30
0.0
 11
269.27
 21
116.537
 31
0.0
  0
LINE
  8
0
 62
     0
 10
269.27
 20
116.537
 30
0.0
 11
269.27
 21
122.335
 31
0.0
  0
LINE
  8
0
 62
     0
 10
269.27
 20
122.335
 30
0.0
 11
270.071
 21
122.335
 31
0.0
  0
LINE
  8
0
 62
     0
 10
270.071
 20
122.335
 30
0.0
 11
270.071
 21
125.436
 31
0.0
  0
LINE
  8
0
 62
     0
 10
270.071
 20
125.436
 30
0.0
 11
269.27
 21
125.436
 31
0.0
  0
LINE
  8
0
 62
     0
 10
269.27
 20
125.436
 30
0.0
 11
269.27
 21
126.436
 31
0.0
  0
LINE
  8
0
 62
     0
 10
269.27
 20
126.436
 30
0.0
 11
255.271
 21
126.436
 31
0.0
  0
LINE
  8
0
 62
     0
 10
236.221
 20
126.436
 30
0.0
 11
236.221
 21
125.436
 31
0.0
  0
LINE
  8
0
 62
     0
 10
236.221
 20
125.436
 30
0.0
 11
235.42
 21
125.436
 31
0.0
  0
LINE
  8
0
 62
     0
 10
235.42
 20
125.436
 30
0.0
 11
235.42
 21
122.335
 31
0.0
  0
LINE
  8
0
 62
     0
 10
235.42
 20
122.335
 30
0.0
 11
236.221
 21
122.335
 31
0.0
  0
LINE
  8
0
 62
     0
 10
236.221
 20
122.335
 30
0.0
 11
236.221
 21
116.537
 31
0.0
  0
LINE
  8
0
 62
     0
 10
236.221
 20
116.537
 30
0.0
 11
235.42
 21
116.537
 31
0.0
  0
LINE
  8
0
 62
     0
 10
235.42
 20
116.537
 30
0.0
 11
235.42
 21
113.435
 31
0.0
  0
LINE
  8
0
 62
     0
 10
235.42
 20
113.435
 30
0.0
 11
236.221
 21
113.435
 31
0.0
  0
LINE
  8
0
 62
     0
 10
236.221
 20
113.435
 30
0.0
 11
236.221
 21
112.436
 31
0.0
  0
LINE
  8
0
 62
     0
 10
236.221
 20
112.436
 30
0.0
 11
250.22
 21
112.436
 31
0.0
  0
LINE
  8
0
 62
     0
 10
250.22
 20
112.436
 30
0.0
 11
250.22
 21
113.435
 31
0.0
  0
LINE
  8
0
 62
     0
 10
250.22
 20
113.435
 30
0.0
 11
251.021
 21
113.435
 31
0.0
  0
LINE
  8
0
 62
     0
 10
251.021
 20
113.435
 30
0.0
 11
251.021
 21
116.537
 31
0.0
  0
LINE
  8
0
 62
     0
 10
251.021
 20
116.537
 30
0.0
 11
250.22
 21
116.537
 31
0.0
  0
LINE
  8
0
 62
     0
 10
250.22
 20
116.537
 30
0.0
 11
250.22
 21
122.335
 31
0.0
  0
LINE
  8
0
 62
     0
 10
250.22
 20
122.335
 30
0.0
 11
251.021
 21
122.335
 31
0.0
  0
LINE
  8
0
 62
     0
 10
251.021
 20
122.335
 30
0.0
 11
251.021
 21
125.436
 31
0.0
  0
LINE
  8
0
 62
     0
 10
251.021
 20
125.436
 30
0.0
 11
250.22
 21
125.436
 31
0.0
  0
LINE
  8
0
 62
     0
 10
250.22
 20
125.436
 30
0.0
 11
250.22
 21
126.436
 31
0.0
  0
LINE
  8
0
 62
     0
 10
250.22
 20
126.436
 30
0.0
 11
236.221
 21
126.436
 31
0.0
  0
LINE
  8
0
 62
     0
 10
217.171
 20
126.436
 30
0.0
 11
217.171
 21
125.436
 31
0.0
  0
LINE
  8
0
 62
     0
 10
217.171
 20
125.436
 30
0.0
 11
216.37
 21
125.436
 31
0.0
  0
LINE
  8
0
 62
     0
 10
216.37
 20
125.436
 30
0.0
 11
216.37
 21
122.335
 31
0.0
  0
LINE
  8
0
 62
     0
 10
216.37
 20
122.335
 30
0.0
 11
217.171
 21
122.335
 31
0.0
  0
LINE
  8
0
 62
     0
 10
217.171
 20
122.335
 30
0.0
 11
217.171
 21
116.537
 31
0.0
  0
LINE
  8
0
 62
     0
 10
217.171
 20
116.537
 30
0.0
 11
216.37
 21
116.537
 31
0.0
  0
LINE
  8
0
 62
     0
 10
216.37
 20
116.537
 30
0.0
 11
216.37
 21
113.435
 31
0.0
  0
LINE
  8
0
 62
     0
 10
216.37
 20
113.435
 30
0.0
 11
217.171
 21
113.435
 31
0.0
  0
LINE
  8
0
 62
     0
 10
217.171
 20
113.435
 30
0.0
 11
217.171
 21
112.436
 31
0.0
  0
LINE
  8
0
 62
     0
 10
217.171
 20
112.436
 30
0.0
 11
231.17
 21
112.436
 31
0.0
  0
LINE
  8
0
 62
     0
 10
231.17
 20
112.436
 30
0.0
 11
231.17
 21
113.435
 31
0.0
  0
LINE
  8
0
 62
     0
 10
231.17
 20
113.435
 30
0.0
 11
231.971
 21
113.435
 31
0.0
  0
LINE
  8
0
 62
     0
 10
231.971
 20
113.435
 30
0.0
 11
231.971
 21
116.537
 31
0.0
  0
LINE
  8
0
 62
     0
 10
231.971
 20
116.537
 30
0.0
 11
231.17
 21
116.537
 31
0.0
  0
LINE
  8
0
 62
     0
 10
231.17
 20
116.537
 30
0.0
 11
231.17
 21
122.335
 31
0.0
  0
LINE
  8
0
 62
     0
 10
231.17
 20
122.335
 30
0.0
 11
231.971
 21
122.335
 31
0.0
  0
LINE
  8
0
 62
     0
 10
231.971
 20
122.335
 30
0.0
 11
231.971
 21
125.436
 31
0.0
  0
LINE
  8
0
 62
     0
 10
231.971
 20
125.436
 30
0.0
 11
231.17
 21
125.436
 31
0.0
  0
LINE
  8
0
 62
     0
 10
231.17
 20
125.436
 30
0.0
 11
231.17
 21
126.436
 31
0.0
  0
LINE
  8
0
 62
     0
 10
231.17
 20
126.436
 30
0.0
 11
217.171
 21
126.436
 31
0.0
  0
LINE
  8
0
 62
     0
 10
198.121
 20
126.436
 30
0.0
 11
198.121
 21
125.436
 31
0.0
  0
LINE
  8
0
 62
     0
 10
198.121
 20
125.436
 30
0.0
 11
197.32
 21
125.436
 31
0.0
  0
LINE
  8
0
 62
     0
 10
197.32
 20
125.436
 30
0.0
 11
197.32
 21
122.335
 31
0.0
  0
LINE
  8
0
 62
     0
 10
197.32
 20
122.335
 30
0.0
 11
198.121
 21
122.335
 31
0.0
  0
LINE
  8
0
 62
     0
 10
198.121
 20
122.335
 30
0.0
 11
198.121
 21
116.537
 31
0.0
  0
LINE
  8
0
 62
     0
 10
198.121
 20
116.537
 30
0.0
 11
197.32
 21
116.537
 31
0.0
  0
LINE
  8
0
 62
     0
 10
197.32
 20
116.537
 30
0.0
 11
197.32
 21
113.435
 31
0.0
  0
LINE
  8
0
 62
     0
 10
197.32
 20
113.435
 30
0.0
 11
198.121
 21
113.435
 31
0.0
  0
LINE
  8
0
 62
     0
 10
198.121
 20
113.435
 30
0.0
 11
198.121
 21
112.436
 31
0.0
  0
LINE
  8
0
 62
     0
 10
198.121
 20
112.436
 30
0.0
 11
212.12
 21
112.436
 31
0.0
  0
LINE
  8
0
 62
     0
 10
212.12
 20
112.436
 30
0.0
 11
212.12
 21
113.435
 31
0.0
  0
LINE
  8
0
 62
     0
 10
212.12
 20
113.435
 30
0.0
 11
212.921
 21
113.435
 31
0.0
  0
LINE
  8
0
 62
     0
 10
212.921
 20
113.435
 30
0.0
 11
212.921
 21
116.537
 31
0.0
  0
LINE
  8
0
 62
     0
 10
212.921
 20
116.537
 30
0.0
 11
212.12
 21
116.537
 31
0.0
  0
LINE
  8
0
 62
     0
 10
212.12
 20
116.537
 30
0.0
 11
212.12
 21
122.335
 31
0.0
  0
LINE
  8
0
 62
     0
 10
212.12
 20
122.335
 30
0.0
 11
212.921
 21
122.335
 31
0.0
  0
LINE
  8
0
 62
     0
 10
212.921
 20
122.335
 30
0.0
 11
212.921
 21
125.436
 31
0.0
  0
LINE
  8
0
 62
     0
 10
212.921
 20
125.436
 30
0.0
 11
212.12
 21
125.436
 31
0.0
  0
LINE
  8
0
 62
     0
 10
212.12
 20
125.436
 30
0.0
 11
212.12
 21
126.436
 31
0.0
  0
LINE
  8
0
 62
     0
 10
212.12
 20
126.436
 30
0.0
 11
198.121
 21
126.436
 31
0.0
  0
LINE
  8
0
 62
     0
 10
179.071
 20
126.436
 30
0.0
 11
179.071
 21
125.436
 31
0.0
  0
LINE
  8
0
 62
     0
 10
179.071
 20
125.436
 30
0.0
 11
178.27
 21
125.436
 31
0.0
  0
LINE
  8
0
 62
     0
 10
178.27
 20
125.436
 30
0.0
 11
178.27
 21
122.335
 31
0.0
  0
LINE
  8
0
 62
     0
 10
178.27
 20
122.335
 30
0.0
 11
179.071
 21
122.335
 31
0.0
  0
LINE
  8
0
 62
     0
 10
179.071
 20
122.335
 30
0.0
 11
179.071
 21
116.537
 31
0.0
  0
LINE
  8
0
 62
     0
 10
179.071
 20
116.537
 30
0.0
 11
178.27
 21
116.537
 31
0.0
  0
LINE
  8
0
 62
     0
 10
178.27
 20
116.537
 30
0.0
 11
178.27
 21
113.435
 31
0.0
  0
LINE
  8
0
 62
     0
 10
178.27
 20
113.435
 30
0.0
 11
179.071
 21
113.435
 31
0.0
  0
LINE
  8
0
 62
     0
 10
179.071
 20
113.435
 30
0.0
 11
179.071
 21
112.436
 31
0.0
  0
LINE
  8
0
 62
     0
 10
179.071
 20
112.436
 30
0.0
 11
193.07
 21
112.436
 31
0.0
  0
LINE
  8
0
 62
     0
 10
193.07
 20
112.436
 30
0.0
 11
193.07
 21
113.435
 31
0.0
  0
LINE
  8
0
 62
     0
 10
193.07
 20
113.435
 30
0.0
 11
193.871
 21
113.435
 31
0.0
  0
LINE
  8
0
 62
     0
 10
193.871
 20
113.435
 30
0.0
 11
193.871
 21
116.537
 31
0.0
  0
LINE
  8
0
 62
     0
 10
193.871
 20
116.537
 30
0.0
 11
193.07
 21
116.537
 31
0.0
  0
LINE
  8
0
 62
     0
 10
193.07
 20
116.537
 30
0.0
 11
193.07
 21
122.335
 31
0.0
  0
LINE
  8
0
 62
     0
 10
193.07
 20
122.335
 30
0.0
 11
193.871
 21
122.335
 31
0.0
  0
LINE
  8
0
 62
     0
 10
193.871
 20
122.335
 30
0.0
 11
193.871
 21
125.436
 31
0.0
  0
LINE
  8
0
 62
     0
 10
193.871
 20
125.436
 30
0.0
 11
193.07
 21
125.436
 31
0.0
  0
LINE
  8
0
 62
     0
 10
193.07
 20
125.436
 30
0.0
 11
193.07
 21
126.436
 31
0.0
  0
LINE
  8
0
 62
     0
 10
193.07
 20
126.436
 30
0.0
 11
179.071
 21
126.436
 31
0.0
  0
LINE
  8
0
 62
     0
 10
160.021
 20
126.436
 30
0.0
 11
160.021
 21
125.436
 31
0.0
  0
LINE
  8
0
 62
     0
 10
160.021
 20
125.436
 30
0.0
 11
159.22
 21
125.436
 31
0.0
  0
LINE
  8
0
 62
     0
 10
159.22
 20
125.436
 30
0.0
 11
159.22
 21
122.335
 31
0.0
  0
LINE
  8
0
 62
     0
 10
159.22
 20
122.335
 30
0.0
 11
160.021
 21
122.335
 31
0.0
  0
LINE
  8
0
 62
     0
 10
160.021
 20
122.335
 30
0.0
 11
160.021
 21
116.537
 31
0.0
  0
LINE
  8
0
 62
     0
 10
160.021
 20
116.537
 30
0.0
 11
159.22
 21
116.537
 31
0.0
  0
LINE
  8
0
 62
     0
 10
159.22
 20
116.537
 30
0.0
 11
159.22
 21
113.435
 31
0.0
  0
LINE
  8
0
 62
     0
 10
159.22
 20
113.435
 30
0.0
 11
160.021
 21
113.435
 31
0.0
  0
LINE
  8
0
 62
     0
 10
160.021
 20
113.435
 30
0.0
 11
160.021
 21
112.436
 31
0.0
  0
LINE
  8
0
 62
     0
 10
160.021
 20
112.436
 30
0.0
 11
174.02
 21
112.436
 31
0.0
  0
LINE
  8
0
 62
     0
 10
174.02
 20
112.436
 30
0.0
 11
174.02
 21
113.435
 31
0.0
  0
LINE
  8
0
 62
     0
 10
174.02
 20
113.435
 30
0.0
 11
174.821
 21
113.435
 31
0.0
  0
LINE
  8
0
 62
     0
 10
174.821
 20
113.435
 30
0.0
 11
174.821
 21
116.537
 31
0.0
  0
LINE
  8
0
 62
     0
 10
174.821
 20
116.537
 30
0.0
 11
174.02
 21
116.537
 31
0.0
  0
LINE
  8
0
 62
     0
 10
174.02
 20
116.537
 30
0.0
 11
174.02
 21
122.335
 31
0.0
  0
LINE
  8
0
 62
     0
 10
174.02
 20
122.335
 30
0.0
 11
174.821
 21
122.335
 31
0.0
  0
LINE
  8
0
 62
     0
 10
174.821
 20
122.335
 30
0.0
 11
174.821
 21
125.436
 31
0.0
  0
LINE
  8
0
 62
     0
 10
174.821
 20
125.436
 30
0.0
 11
174.02
 21
125.436
 31
0.0
  0
LINE
  8
0
 62
     0
 10
174.02
 20
125.436
 30
0.0
 11
174.02
 21
126.436
 31
0.0
  0
LINE
  8
0
 62
     0
 10
174.02
 20
126.436
 30
0.0
 11
160.021
 21
126.436
 31
0.0
  0
LINE
  8
0
 62
     0
 10
140.971
 20
126.436
 30
0.0
 11
140.971
 21
125.436
 31
0.0
  0
LINE
  8
0
 62
     0
 10
140.971
 20
125.436
 30
0.0
 11
140.17
 21
125.436
 31
0.0
  0
LINE
  8
0
 62
     0
 10
140.17
 20
125.436
 30
0.0
 11
140.17
 21
122.335
 31
0.0
  0
LINE
  8
0
 62
     0
 10
140.17
 20
122.335
 30
0.0
 11
140.971
 21
122.335
 31
0.0
  0
LINE
  8
0
 62
     0
 10
140.971
 20
122.335
 30
0.0
 11
140.971
 21
116.537
 31
0.0
  0
LINE
  8
0
 62
     0
 10
140.971
 20
116.537
 30
0.0
 11
140.17
 21
116.537
 31
0.0
  0
LINE
  8
0
 62
     0
 10
140.17
 20
116.537
 30
0.0
 11
140.17
 21
113.435
 31
0.0
  0
LINE
  8
0
 62
     0
 10
140.17
 20
113.435
 30
0.0
 11
140.971
 21
113.435
 31
0.0
  0
LINE
  8
0
 62
     0
 10
140.971
 20
113.435
 30
0.0
 11
140.971
 21
112.436
 31
0.0
  0
LINE
  8
0
 62
     0
 10
140.971
 20
112.436
 30
0.0
 11
154.97
 21
112.436
 31
0.0
  0
LINE
  8
0
 62
     0
 10
154.97
 20
112.436
 30
0.0
 11
154.97
 21
113.435
 31
0.0
  0
LINE
  8
0
 62
     0
 10
154.97
 20
113.435
 30
0.0
 11
155.771
 21
113.435
 31
0.0
  0
LINE
  8
0
 62
     0
 10
155.771
 20
113.435
 30
0.0
 11
155.771
 21
116.537
 31
0.0
  0
LINE
  8
0
 62
     0
 10
155.771
 20
116.537
 30
0.0
 11
154.97
 21
116.537
 31
0.0
  0
LINE
  8
0
 62
     0
 10
154.97
 20
116.537
 30
0.0
 11
154.97
 21
122.335
 31
0.0
  0
LINE
  8
0
 62
     0
 10
154.97
 20
122.335
 30
0.0
 11
155.771
 21
122.335
 31
0.0
  0
LINE
  8
0
 62
     0
 10
155.771
 20
122.335
 30
0.0
 11
155.771
 21
125.436
 31
0.0
  0
LINE
  8
0
 62
     0
 10
155.771
 20
125.436
 30
0.0
 11
154.97
 21
125.436
 31
0.0
  0
LINE
  8
0
 62
     0
 10
154.97
 20
125.436
 30
0.0
 11
154.97
 21
126.436
 31
0.0
  0
LINE
  8
0
 62
     0
 10
154.97
 20
126.436
 30
0.0
 11
140.971
 21
126.436
 31
0.0
  0
LINE
  8
0
 62
     0
 10
121.919
 20
126.436
 30
0.0
 11
121.919
 21
125.436
 31
0.0
  0
LINE
  8
0
 62
     0
 10
121.919
 20
125.436
 30
0.0
 11
121.12
 21
125.436
 31
0.0
  0
LINE
  8
0
 62
     0
 10
121.12
 20
125.436
 30
0.0
 11
121.12
 21
122.335
 31
0.0
  0
LINE
  8
0
 62
     0
 10
121.12
 20
122.335
 30
0.0
 11
121.919
 21
122.335
 31
0.0
  0
LINE
  8
0
 62
     0
 10
121.919
 20
122.335
 30
0.0
 11
121.919
 21
116.537
 31
0.0
  0
LINE
  8
0
 62
     0
 10
121.919
 20
116.537
 30
0.0
 11
121.12
 21
116.537
 31
0.0
  0
LINE
  8
0
 62
     0
 10
121.12
 20
116.537
 30
0.0
 11
121.12
 21
113.435
 31
0.0
  0
LINE
  8
0
 62
     0
 10
121.12
 20
113.435
 30
0.0
 11
121.919
 21
113.435
 31
0.0
  0
LINE
  8
0
 62
     0
 10
121.919
 20
113.435
 30
0.0
 11
121.919
 21
112.436
 31
0.0
  0
LINE
  8
0
 62
     0
 10
121.919
 20
112.436
 30
0.0
 11
135.92
 21
112.436
 31
0.0
  0
LINE
  8
0
 62
     0
 10
135.92
 20
112.436
 30
0.0
 11
135.92
 21
113.435
 31
0.0
  0
LINE
  8
0
 62
     0
 10
135.92
 20
113.435
 30
0.0
 11
136.721
 21
113.435
 31
0.0
  0
LINE
  8
0
 62
     0
 10
136.721
 20
113.435
 30
0.0
 11
136.721
 21
116.537
 31
0.0
  0
LINE
  8
0
 62
     0
 10
136.721
 20
116.537
 30
0.0
 11
135.92
 21
116.537
 31
0.0
  0
LINE
  8
0
 62
     0
 10
135.92
 20
116.537
 30
0.0
 11
135.92
 21
122.335
 31
0.0
  0
LINE
  8
0
 62
     0
 10
135.92
 20
122.335
 30
0.0
 11
136.721
 21
122.335
 31
0.0
  0
LINE
  8
0
 62
     0
 10
136.721
 20
122.335
 30
0.0
 11
136.721
 21
125.436
 31
0.0
  0
LINE
  8
0
 62
     0
 10
136.721
 20
125.436
 30
0.0
 11
135.92
 21
125.436
 31
0.0
  0
LINE
  8
0
 62
     0
 10
135.92
 20
125.436
 30
0.0
 11
135.92
 21
126.436
 31
0.0
  0
LINE
  8
0
 62
     0
 10
135.92
 20
126.436
 30
0.0
 11
121.919
 21
126.436
 31
0.0
  0
LINE
  8
0
 62
     0
 10
102.869
 20
126.436
 30
0.0
 11
102.869
 21
125.436
 31
0.0
  0
LINE
  8
0
 62
     0
 10
102.869
 20
125.436
 30
0.0
 11
102.07
 21
125.436
 31
0.0
  0
LINE
  8
0
 62
     0
 10
102.07
 20
125.436
 30
0.0
 11
102.07
 21
122.335
 31
0.0
  0
LINE
  8
0
 62
     0
 10
102.07
 20
122.335
 30
0.0
 11
102.869
 21
122.335
 31
0.0
  0
LINE
  8
0
 62
     0
 10
102.869
 20
122.335
 30
0.0
 11
102.869
 21
116.537
 31
0.0
  0
LINE
  8
0
 62
     0
 10
102.869
 20
116.537
 30
0.0
 11
102.07
 21
116.537
 31
0.0
  0
LINE
  8
0
 62
     0
 10
102.07
 20
116.537
 30
0.0
 11
102.07
 21
113.435
 31
0.0
  0
LINE
  8
0
 62
     0
 10
102.07
 20
113.435
 30
0.0
 11
102.869
 21
113.435
 31
0.0
  0
LINE
  8
0
 62
     0
 10
102.869
 20
113.435
 30
0.0
 11
102.869
 21
112.436
 31
0.0
  0
LINE
  8
0
 62
     0
 10
102.869
 20
112.436
 30
0.0
 11
116.87
 21
112.436
 31
0.0
  0
LINE
  8
0
 62
     0
 10
116.87
 20
112.436
 30
0.0
 11
116.87
 21
113.435
 31
0.0
  0
LINE
  8
0
 62
     0
 10
116.87
 20
113.435
 30
0.0
 11
117.669
 21
113.435
 31
0.0
  0
LINE
  8
0
 62
     0
 10
117.669
 20
113.435
 30
0.0
 11
117.669
 21
116.537
 31
0.0
  0
LINE
  8
0
 62
     0
 10
117.669
 20
116.537
 30
0.0
 11
116.87
 21
116.537
 31
0.0
  0
LINE
  8
0
 62
     0
 10
116.87
 20
116.537
 30
0.0
 11
116.87
 21
122.335
 31
0.0
  0
LINE
  8
0
 62
     0
 10
116.87
 20
122.335
 30
0.0
 11
117.669
 21
122.335
 31
0.0
  0
LINE
  8
0
 62
     0
 10
117.669
 20
122.335
 30
0.0
 11
117.669
 21
125.436
 31
0.0
  0
LINE
  8
0
 62
     0
 10
117.669
 20
125.436
 30
0.0
 11
116.87
 21
125.436
 31
0.0
  0
LINE
  8
0
 62
     0
 10
116.87
 20
125.436
 30
0.0
 11
116.87
 21
126.436
 31
0.0
  0
LINE
  8
0
 62
     0
 10
116.87
 20
126.436
 30
0.0
 11
102.869
 21
126.436
 31
0.0
  0
LINE
  8
0
 62
     0
 10
83.8207
 20
126.436
 30
0.0
 11
83.8207
 21
125.436
 31
0.0
  0
LINE
  8
0
 62
     0
 10
83.8207
 20
125.436
 30
0.0
 11
83.0199
 21
125.436
 31
0.0
  0
LINE
  8
0
 62
     0
 10
83.0199
 20
125.436
 30
0.0
 11
83.0199
 21
122.335
 31
0.0
  0
LINE
  8
0
 62
     0
 10
83.0199
 20
122.335
 30
0.0
 11
83.8207
 21
122.335
 31
0.0
  0
LINE
  8
0
 62
     0
 10
83.8207
 20
122.335
 30
0.0
 11
83.8207
 21
116.537
 31
0.0
  0
LINE
  8
0
 62
     0
 10
83.8207
 20
116.537
 30
0.0
 11
83.0199
 21
116.537
 31
0.0
  0
LINE
  8
0
 62
     0
 10
83.0199
 20
116.537
 30
0.0
 11
83.0199
 21
113.435
 31
0.0
  0
LINE
  8
0
 62
     0
 10
83.0199
 20
113.435
 30
0.0
 11
83.8207
 21
113.435
 31
0.0
  0
LINE
  8
0
 62
     0
 10
83.8207
 20
113.435
 30
0.0
 11
83.8207
 21
112.436
 31
0.0
  0
LINE
  8
0
 62
     0
 10
83.8207
 20
112.436
 30
0.0
 11
97.82
 21
112.436
 31
0.0
  0
LINE
  8
0
 62
     0
 10
97.82
 20
112.436
 30
0.0
 11
97.82
 21
113.435
 31
0.0
  0
LINE
  8
0
 62
     0
 10
97.82
 20
113.435
 30
0.0
 11
98.6194
 21
113.435
 31
0.0
  0
LINE
  8
0
 62
     0
 10
98.6194
 20
113.435
 30
0.0
 11
98.6194
 21
116.537
 31
0.0
  0
LINE
  8
0
 62
     0
 10
98.6194
 20
116.537
 30
0.0
 11
97.82
 21
116.537
 31
0.0
  0
LINE
  8
0
 62
     0
 10
97.82
 20
116.537
 30
0.0
 11
97.82
 21
122.335
 31
0.0
  0
LINE
  8
0
 62
     0
 10
97.82
 20
122.335
 30
0.0
 11
98.6194
 21
122.335
 31
0.0
  0
LINE
  8
0
 62
     0
 10
98.6194
 20
122.335
 30
0.0
 11
98.6194
 21
125.436
 31
0.0
  0
LINE
  8
0
 62
     0
 10
98.6194
 20
125.436
 30
0.0
 11
97.82
 21
125.436
 31
0.0
  0
LINE
  8
0
 62
     0
 10
97.82
 20
125.436
 30
0.0
 11
97.82
 21
126.436
 31
0.0
  0
LINE
  8
0
 62
     0
 10
97.82
 20
126.436
 30
0.0
 11
83.8207
 21
126.436
 31
0.0
  0
LINE
  8
0
 62
     0
 10
64.7707
 20
126.436
 30
0.0
 11
64.7707
 21
125.436
 31
0.0
  0
LINE
  8
0
 62
     0
 10
64.7707
 20
125.436
 30
0.0
 11
63.9699
 21
125.436
 31
0.0
  0
LINE
  8
0
 62
     0
 10
63.9699
 20
125.436
 30
0.0
 11
63.9699
 21
122.335
 31
0.0
  0
LINE
  8
0
 62
     0
 10
63.9699
 20
122.335
 30
0.0
 11
64.7707
 21
122.335
 31
0.0
  0
LINE
  8
0
 62
     0
 10
64.7707
 20
122.335
 30
0.0
 11
64.7707
 21
116.537
 31
0.0
  0
LINE
  8
0
 62
     0
 10
64.7707
 20
116.537
 30
0.0
 11
63.9699
 21
116.537
 31
0.0
  0
LINE
  8
0
 62
     0
 10
63.9699
 20
116.537
 30
0.0
 11
63.9699
 21
113.435
 31
0.0
  0
LINE
  8
0
 62
     0
 10
63.9699
 20
113.435
 30
0.0
 11
64.7707
 21
113.435
 31
0.0
  0
LINE
  8
0
 62
     0
 10
64.7707
 20
113.435
 30
0.0
 11
64.7707
 21
112.436
 31
0.0
  0
LINE
  8
0
 62
     0
 10
64.7707
 20
112.436
 30
0.0
 11
78.77
 21
112.436
 31
0.0
  0
LINE
  8
0
 62
     0
 10
78.77
 20
112.436
 30
0.0
 11
78.77
 21
113.435
 31
0.0
  0
LINE
  8
0
 62
     0
 10
78.77
 20
113.435
 30
0.0
 11
79.5708
 21
113.435
 31
0.0
  0
LINE
  8
0
 62
     0
 10
79.5708
 20
113.435
 30
0.0
 11
79.5708
 21
116.537
 31
0.0
  0
LINE
  8
0
 62
     0
 10
79.5708
 20
116.537
 30
0.0
 11
78.77
 21
116.537
 31
0.0
  0
LINE
  8
0
 62
     0
 10
78.77
 20
116.537
 30
0.0
 11
78.77
 21
122.335
 31
0.0
  0
LINE
  8
0
 62
     0
 10
78.77
 20
122.335
 30
0.0
 11
79.5708
 21
122.335
 31
0.0
  0
LINE
  8
0
 62
     0
 10
79.5708
 20
122.335
 30
0.0
 11
79.5708
 21
125.436
 31
0.0
  0
LINE
  8
0
 62
     0
 10
79.5708
 20
125.436
 30
0.0
 11
78.77
 21
125.436
 31
0.0
  0
LINE
  8
0
 62
     0
 10
78.77
 20
125.436
 30
0.0
 11
78.77
 21
126.436
 31
0.0
  0
LINE
  8
0
 62
     0
 10
78.77
 20
126.436
 30
0.0
 11
64.7707
 21
126.436
 31
0.0
  0
LINE
  8
0
 62
     0
 10
45.7207
 20
126.436
 30
0.0
 11
45.7207
 21
125.436
 31
0.0
  0
LINE
  8
0
 62
     0
 10
45.7207
 20
125.436
 30
0.0
 11
44.9199
 21
125.436
 31
0.0
  0
LINE
  8
0
 62
     0
 10
44.9199
 20
125.436
 30
0.0
 11
44.9199
 21
122.335
 31
0.0
  0
LINE
  8
0
 62
     0
 10
44.9199
 20
122.335
 30
0.0
 11
45.7207
 21
122.335
 31
0.0
  0
LINE
  8
0
 62
     0
 10
45.7207
 20
122.335
 30
0.0
 11
45.7207
 21
116.537
 31
0.0
  0
LINE
  8
0
 62
     0
 10
45.7207
 20
116.537
 30
0.0
 11
44.9199
 21
116.537
 31
0.0
  0
LINE
  8
0
 62
     0
 10
44.9199
 20
116.537
 30
0.0
 11
44.9199
 21
113.435
 31
0.0
  0
LINE
  8
0
 62
     0
 10
44.9199
 20
113.435
 30
0.0
 11
45.7207
 21
113.435
 31
0.0
  0
LINE
  8
0
 62
     0
 10
45.7207
 20
113.435
 30
0.0
 11
45.7207
 21
112.436
 31
0.0
  0
LINE
  8
0
 62
     0
 10
45.7207
 20
112.436
 30
0.0
 11
59.72
 21
112.436
 31
0.0
  0
LINE
  8
0
 62
     0
 10
59.72
 20
112.436
 30
0.0
 11
59.72
 21
113.435
 31
0.0
  0
LINE
  8
0
 62
     0
 10
59.72
 20
113.435
 30
0.0
 11
60.5208
 21
113.435
 31
0.0
  0
LINE
  8
0
 62
     0
 10
60.5208
 20
113.435
 30
0.0
 11
60.5208
 21
116.537
 31
0.0
  0
LINE
  8
0
 62
     0
 10
60.5208
 20
116.537
 30
0.0
 11
59.72
 21
116.537
 31
0.0
  0
LINE
  8
0
 62
     0
 10
59.72
 20
116.537
 30
0.0
 11
59.72
 21
122.335
 31
0.0
  0
LINE
  8
0
 62
     0
 10
59.72
 20
122.335
 30
0.0
 11
60.5208
 21
122.335
 31
0.0
  0
LINE
  8
0
 62
     0
 10
60.5208
 20
122.335
 30
0.0
 11
60.5208
 21
125.436
 31
0.0
  0
LINE
  8
0
 62
     0
 10
60.5208
 20
125.436
 30
0.0
 11
59.72
 21
125.436
 31
0.0
  0
LINE
  8
0
 62
     0
 10
59.72
 20
125.436
 30
0.0
 11
59.72
 21
126.436
 31
0.0
  0
LINE
  8
0
 62
     0
 10
59.72
 20
126.436
 30
0.0
 11
45.7207
 21
126.436
 31
0.0
  0
LINE
  8
0
 62
     0
 10
26.6706
 20
126.436
 30
0.0
 11
26.6706
 21
125.436
 31
0.0
  0
LINE
  8
0
 62
     0
 10
26.6706
 20
125.436
 30
0.0
 11
25.8699
 21
125.436
 31
0.0
  0
LINE
  8
0
 62
     0
 10
25.8699
 20
125.436
 30
0.0
 11
25.8699
 21
122.335
 31
0.0
  0
LINE
  8
0
 62
     0
 10
25.8699
 20
122.335
 30
0.0
 11
26.6706
 21
122.335
 31
0.0
  0
LINE
  8
0
 62
     0
 10
26.6706
 20
122.335
 30
0.0
 11
26.6706
 21
116.537
 31
0.0
  0
LINE
  8
0
 62
     0
 10
26.6706
 20
116.537
 30
0.0
 11
25.8699
 21
116.537
 31
0.0
  0
LINE
  8
0
 62
     0
 10
25.8699
 20
116.537
 30
0.0
 11
25.8699
 21
113.435
 31
0.0
  0
LINE
  8
0
 62
     0
 10
25.8699
 20
113.435
 30
0.0
 11
26.6706
 21
113.435
 31
0.0
  0
LINE
  8
0
 62
     0
 10
26.6706
 20
113.435
 30
0.0
 11
26.6706
 21
112.436
 31
0.0
  0
LINE
  8
0
 62
     0
 10
26.6706
 20
112.436
 30
0.0
 11
40.67
 21
112.436
 31
0.0
  0
LINE
  8
0
 62
     0
 10
40.67
 20
112.436
 30
0.0
 11
40.67
 21
113.435
 31
0.0
  0
LINE
  8
0
 62
     0
 10
40.67
 20
113.435
 30
0.0
 11
41.4708
 21
113.435
 31
0.0
  0
LINE
  8
0
 62
     0
 10
41.4708
 20
113.435
 30
0.0
 11
41.4708
 21
116.537
 31
0.0
  0
LINE
  8
0
 62
     0
 10
41.4708
 20
116.537
 30
0.0
 11
40.67
 21
116.537
 31
0.0
  0
LINE
  8
0
 62
     0
 10
40.67
 20
116.537
 30
0.0
 11
40.67
 21
122.335
 31
0.0
  0
LINE
  8
0
 62
     0
 10
40.67
 20
122.335
 30
0.0
 11
41.4708
 21
122.335
 31
0.0
  0
LINE
  8
0
 62
     0
 10
41.4708
 20
122.335
 30
0.0
 11
41.4708
 21
125.436
 31
0.0
  0
LINE
  8
0
 62
     0
 10
41.4708
 20
125.436
 30
0.0
 11
40.67
 21
125.436
 31
0.0
  0
LINE
  8
0
 62
     0
 10
40.67
 20
125.436
 30
0.0
 11
40.67
 21
126.436
 31
0.0
  0
LINE
  8
0
 62
     0
 10
40.67
 20
126.436
 30
0.0
 11
26.6706
 21
126.436
 31
0.0
  0
LINE
  8
0
 62
     0
 10
7.61919
 20
126.436
 30
0.0
 11
7.61919
 21
125.436
 31
0.0
  0
LINE
  8
0
 62
     0
 10
7.61919
 20
125.436
 30
0.0
 11
6.8199
 21
125.436
 31
0.0
  0
LINE
  8
0
 62
     0
 10
6.8199
 20
125.436
 30
0.0
 11
6.8199
 21
122.335
 31
0.0
  0
LINE
  8
0
 62
     0
 10
6.8199
 20
122.335
 30
0.0
 11
7.61919
 21
122.335
 31
0.0
  0
LINE
  8
0
 62
     0
 10
7.61919
 20
122.335
 30
0.0
 11
7.61919
 21
116.537
 31
0.0
  0
LINE
  8
0
 62
     0
 10
7.61919
 20
116.537
 30
0.0
 11
6.8199
 21
116.537
 31
0.0
  0
LINE
  8
0
 62
     0
 10
6.8199
 20
116.537
 30
0.0
 11
6.8199
 21
113.435
 31
0.0
  0
LINE
  8
0
 62
     0
 10
6.8199
 20
113.435
 30
0.0
 11
7.61919
 21
113.435
 31
0.0
  0
LINE
  8
0
 62
     0
 10
7.61919
 20
113.435
 30
0.0
 11
7.61919
 21
112.436
 31
0.0
  0
LINE
  8
0
 62
     0
 10
7.61919
 20
112.436
 30
0.0
 11
21.6201
 21
112.436
 31
0.0
  0
LINE
  8
0
 62
     0
 10
21.6201
 20
112.436
 30
0.0
 11
21.6201
 21
113.435
 31
0.0
  0
LINE
  8
0
 62
     0
 10
21.6201
 20
113.435
 30
0.0
 11
22.4207
 21
113.435
 31
0.0
  0
LINE
  8
0
 62
     0
 10
22.4207
 20
113.435
 30
0.0
 11
22.4207
 21
116.537
 31
0.0
  0
LINE
  8
0
 62
     0
 10
22.4207
 20
116.537
 30
0.0
 11
21.6201
 21
116.537
 31
0.0
  0
LINE
  8
0
 62
     0
 10
21.6201
 20
116.537
 30
0.0
 11
21.6201
 21
122.335
 31
0.0
  0
LINE
  8
0
 62
     0
 10
21.6201
 20
122.335
 30
0.0
 11
22.4207
 21
122.335
 31
0.0
  0
LINE
  8
0
 62
     0
 10
22.4207
 20
122.335
 30
0.0
 11
22.4207
 21
125.436
 31
0.0
  0
LINE
  8
0
 62
     0
 10
22.4207
 20
125.436
 30
0.0
 11
21.6201
 21
125.436
 31
0.0
  0
LINE
  8
0
 62
     0
 10
21.6201
 20
125.436
 30
0.0
 11
21.6201
 21
126.436
 31
0.0
  0
LINE
  8
0
 62
     0
 10
21.6201
 20
126.436
 30
0.0
 11
7.61919
 21
126.436
 31
0.0
  0
LINE
  8
0
 62
     0
 10
2.10013
 20
132.982
 30
0.0
 11
1.65503
 21
132.755
 31
0.0
  0
LINE
  8
0
 62
     0
 10
1.65503
 20
132.755
 30
0.0
 11
1.30087
 21
132.401
 31
0.0
  0
LINE
  8
0
 62
     0
 10
1.30087
 20
132.401
 30
0.0
 11
1.07349
 21
131.955
 31
0.0
  0
LINE
  8
0
 62
     0
 10
1.07349
 20
131.955
 30
0.0
 11
0.994943
 21
131.461
 31
0.0
  0
LINE
  8
0
 62
     0
 10
0.994943
 20
131.461
 30
0.0
 11
1.07349
 21
130.966
 31
0.0
  0
LINE
  8
0
 62
     0
 10
1.07349
 20
130.966
 30
0.0
 11
1.30087
 21
130.52
 31
0.0
  0
LINE
  8
0
 62
     0
 10
1.30087
 20
130.52
 30
0.0
 11
1.65503
 21
130.167
 31
0.0
  0
LINE
  8
0
 62
     0
 10
1.65503
 20
130.167
 30
0.0
 11
2.10013
 21
129.939
 31
0.0
  0
LINE
  8
0
 62
     0
 10
2.10013
 20
129.939
 30
0.0
 11
2.59485
 21
129.859
 31
0.0
  0
LINE
  8
0
 62
     0
 10
2.59485
 20
129.859
 30
0.0
 11
3.08956
 21
129.939
 31
0.0
  0
LINE
  8
0
 62
     0
 10
3.08956
 20
129.939
 30
0.0
 11
3.53603
 21
130.167
 31
0.0
  0
LINE
  8
0
 62
     0
 10
3.53603
 20
130.167
 30
0.0
 11
3.88881
 21
130.52
 31
0.0
  0
LINE
  8
0
 62
     0
 10
3.88881
 20
130.52
 30
0.0
 11
4.11621
 21
130.966
 31
0.0
  0
LINE
  8
0
 62
     0
 10
4.11621
 20
130.966
 30
0.0
 11
4.19612
 21
131.461
 31
0.0
  0
LINE
  8
0
 62
     0
 10
4.19612
 20
131.461
 30
0.0
 11
4.11621
 21
131.955
 31
0.0
  0
LINE
  8
0
 62
     0
 10
4.11621
 20
131.955
 30
0.0
 11
3.88881
 21
132.401
 31
0.0
  0
LINE
  8
0
 62
     0
 10
3.88881
 20
132.401
 30
0.0
 11
3.53603
 21
132.755
 31
0.0
  0
LINE
  8
0
 62
     0
 10
3.53603
 20
132.755
 30
0.0
 11
3.08956
 21
132.982
 31
0.0
  0
LINE
  8
0
 62
     0
 10
3.08956
 20
132.982
 30
0.0
 11
2.59485
 21
133.061
 31
0.0
  0
LINE
  8
0
 62
     0
 10
2.59485
 20
133.061
 30
0.0
 11
2.10013
 21
132.982
 31
0.0
  0
LINE
  8
0
 62
     0
 10
316.665
 20
132.982
 30
0.0
 11
316.218
 21
132.755
 31
0.0
  0
LINE
  8
0
 62
     0
 10
316.218
 20
132.755
 30
0.0
 11
315.864
 21
132.401
 31
0.0
  0
LINE
  8
0
 62
     0
 10
315.864
 20
132.401
 30
0.0
 11
315.637
 21
131.955
 31
0.0
  0
LINE
  8
0
 62
     0
 10
315.637
 20
131.955
 30
0.0
 11
315.558
 21
131.461
 31
0.0
  0
LINE
  8
0
 62
     0
 10
315.558
 20
131.461
 30
0.0
 11
315.637
 21
130.966
 31
0.0
  0
LINE
  8
0
 62
     0
 10
315.637
 20
130.966
 30
0.0
 11
315.864
 21
130.52
 31
0.0
  0
LINE
  8
0
 62
     0
 10
315.864
 20
130.52
 30
0.0
 11
316.218
 21
130.167
 31
0.0
  0
LINE
  8
0
 62
     0
 10
316.218
 20
130.167
 30
0.0
 11
316.665
 21
129.939
 31
0.0
  0
LINE
  8
0
 62
     0
 10
316.665
 20
129.939
 30
0.0
 11
317.158
 21
129.859
 31
0.0
  0
LINE
  8
0
 62
     0
 10
317.158
 20
129.859
 30
0.0
 11
317.653
 21
129.939
 31
0.0
  0
LINE
  8
0
 62
     0
 10
317.653
 20
129.939
 30
0.0
 11
318.098
 21
130.167
 31
0.0
  0
LINE
  8
0
 62
     0
 10
318.098
 20
130.167
 30
0.0
 11
318.452
 21
130.52
 31
0.0
  0
LINE
  8
0
 62
     0
 10
318.452
 20
130.52
 30
0.0
 11
318.681
 21
130.966
 31
0.0
  0
LINE
  8
0
 62
     0
 10
318.681
 20
130.966
 30
0.0
 11
318.758
 21
131.461
 31
0.0
  0
LINE
  8
0
 62
     0
 10
318.758
 20
131.461
 30
0.0
 11
318.681
 21
131.955
 31
0.0
  0
LINE
  8
0
 62
     0
 10
318.681
 20
131.955
 30
0.0
 11
318.452
 21
132.401
 31
0.0
  0
LINE
  8
0
 62
     0
 10
318.452
 20
132.401
 30
0.0
 11
318.098
 21
132.755
 31
0.0
  0
LINE
  8
0
 62
     0
 10
318.098
 20
132.755
 30
0.0
 11
317.653
 21
132.982
 31
0.0
  0
LINE
  8
0
 62
     0
 10
317.653
 20
132.982
 30
0.0
 11
317.158
 21
133.061
 31
0.0
  0
LINE
  8
0
 62
     0
 10
317.158
 20
133.061
 30
0.0
 11
316.665
 21
132.982
 31
0.0
  0
LINE
  8
0
 62
     0
 10
159.383
 20
132.982
 30
0.0
 11
158.936
 21
132.755
 31
0.0
  0
LINE
  8
0
 62
     0
 10
158.936
 20
132.755
 30
0.0
 11
158.582
 21
132.401
 31
0.0
  0
LINE
  8
0
 62
     0
 10
158.582
 20
132.401
 30
0.0
 11
158.356
 21
131.955
 31
0.0
  0
LINE
  8
0
 62
     0
 10
158.356
 20
131.955
 30
0.0
 11
158.276
 21
131.461
 31
0.0
  0
LINE
  8
0
 62
     0
 10
158.276
 20
131.461
 30
0.0
 11
158.356
 21
130.966
 31
0.0
  0
LINE
  8
0
 62
     0
 10
158.356
 20
130.966
 30
0.0
 11
158.582
 21
130.52
 31
0.0
  0
LINE
  8
0
 62
     0
 10
158.582
 20
130.52
 30
0.0
 11
158.936
 21
130.167
 31
0.0
  0
LINE
  8
0
 62
     0
 10
158.936
 20
130.167
 30
0.0
 11
159.383
 21
129.939
 31
0.0
  0
LINE
  8
0
 62
     0
 10
159.383
 20
129.939
 30
0.0
 11
159.876
 21
129.859
 31
0.0
  0
LINE
  8
0
 62
     0
 10
159.876
 20
129.859
 30
0.0
 11
160.372
 21
129.939
 31
0.0
  0
LINE
  8
0
 62
     0
 10
160.372
 20
129.939
 30
0.0
 11
160.817
 21
130.167
 31
0.0
  0
LINE
  8
0
 62
     0
 10
160.817
 20
130.167
 30
0.0
 11
161.171
 21
130.52
 31
0.0
  0
LINE
  8
0
 62
     0
 10
161.171
 20
130.52
 30
0.0
 11
161.399
 21
130.966
 31
0.0
  0
LINE
  8
0
 62
     0
 10
161.399
 20
130.966
 30
0.0
 11
161.477
 21
131.461
 31
0.0
  0
LINE
  8
0
 62
     0
 10
161.477
 20
131.461
 30
0.0
 11
161.399
 21
131.955
 31
0.0
  0
LINE
  8
0
 62
     0
 10
161.399
 20
131.955
 30
0.0
 11
161.171
 21
132.401
 31
0.0
  0
LINE
  8
0
 62
     0
 10
161.171
 20
132.401
 30
0.0
 11
160.817
 21
132.755
 31
0.0
  0
LINE
  8
0
 62
     0
 10
160.817
 20
132.755
 30
0.0
 11
160.372
 21
132.982
 31
0.0
  0
LINE
  8
0
 62
     0
 10
160.372
 20
132.982
 30
0.0
 11
159.876
 21
133.061
 31
0.0
  0
LINE
  8
0
 62
     0
 10
159.876
 20
133.061
 30
0.0
 11
159.383
 21
132.982
 31
0.0
  0
ENDSEC
  0
EOF
